<svg id="boxes-inventory-color" xmlns="http://www.w3.org/2000/svg" width="200" height="200" viewBox="0 0 200 200">
  <rect id="Rectangle_411" data-name="Rectangle 411" width="200" height="200" fill="none"/>
  <g id="Group_86" data-name="Group 86">
    <g id="Group_85" data-name="Group 85">
      <rect id="Rectangle_442" data-name="Rectangle 442" width="8" height="11" transform="translate(138 128)" fill="#77ffd6"/>
      <path id="Subtraction_18" data-name="Subtraction 18" d="M-2310-1156h-40v-32h16v11h8v-11h16v32Z" transform="translate(2400 1273)" fill="#77ffd6"/>
    </g>
    <g id="boxes" transform="translate(38.453 32.787)">
      <path id="Path_2116" data-name="Path 2116" d="M131.557,93.222H113.166V62.968a1.978,1.978,0,0,0-3.955,0V93.222H74.848V84.653a1.977,1.977,0,0,0-1.978-1.978H53.013V35.534H75.472v8.135a3.161,3.161,0,0,0,3.158,3.158h4.963a3.161,3.161,0,0,0,3.158-3.158V35.534h22.459V55.061a1.978,1.978,0,1,0,3.955,0V35.022a3.447,3.447,0,0,0-3.443-3.443H68.1V3.635A3.447,3.447,0,0,0,64.657.192H28.336a3.447,3.447,0,0,0-3.443,3.443v12.5a1.978,1.978,0,1,0,3.955,0V4.147H40.857v8.135a3.161,3.161,0,0,0,3.158,3.158h4.964a3.161,3.161,0,0,0,3.158-3.158V4.147H64.145V31.579H51.036a1.977,1.977,0,0,0-1.978,1.978v16.48H28.848V24.044a1.978,1.978,0,0,0-3.955,0V50.036H13.249a3.447,3.447,0,0,0-3.443,3.443v29.2H3.443A3.447,3.447,0,0,0,0,86.119v46.994a1.977,1.977,0,0,0,1.978,1.978h20.94a1.978,1.978,0,1,0,0-3.955H3.955V86.631H31.784v8.135a3.162,3.162,0,0,0,3.158,3.158h4.963a3.161,3.161,0,0,0,3.158-3.158V86.631H70.893v44.505H30.824a1.978,1.978,0,1,0,0,3.955h102.2A1.977,1.977,0,0,0,135,133.113V96.666a3.447,3.447,0,0,0-3.443-3.443ZM48.181,11.485H44.812V4.147h3.369ZM82.8,35.534v7.338H79.427V35.534ZM29.725,53.991h3.369v7.337H29.725Zm-15.964,0H25.77v8.135a3.161,3.161,0,0,0,3.158,3.158h4.964a3.161,3.161,0,0,0,3.158-3.158V53.991H49.058V82.676h-35.3ZM39.108,93.968H35.739V86.631h3.369Zm65.523,3.209v7.338h-3.369V97.178Zm26.414,33.958h-56.2V97.178H97.307v8.135a3.162,3.162,0,0,0,3.158,3.158h4.963a3.162,3.162,0,0,0,3.158-3.158V97.178h22.459v33.958Z" transform="translate(0 0)" fill="#0e186e"/>
    </g>
  </g>
</svg>
