<svg xmlns="http://www.w3.org/2000/svg" width="200" height="200" viewBox="0 0 200 200">
  <g id="gears-multi" transform="translate(-5086 -2435)">
    <rect id="Rectangle_411" data-name="Rectangle 411" width="200" height="200" transform="translate(5086 2435)" fill="none"/>
    <g id="gears">
      <g id="color">
        <path id="white" d="M41.545,78.31H35.6l-1.73-8.445-5.882-1.936L22.06,74.547l-5.407-3.47L19.291,62.3l-3.957-3.785-8.953,2.9-2.768-5.8,6.445-5.839-1.58-5.828L0,42V35.771L8.477,33.8l1.58-6.4L3.741,22.027l2.9-5.233,8,2.552,4.845-4.369-2.26-8.814L22.2,3.439,27.824,10.1l6.142-1.492L35.943,0h6.619c.018.086,1.689,8.565,1.947,8.608s5.32,1.537,5.536,1.6l5.8-6.4,5.537,3.331-2.769,8.391,4.521,4.131,8.261-2.6,3.028,4.845-6.228,6.055,1.816,6.229,8.175,2.12v5.753c-.085.019-8.478,1.947-8.607,2.119C69.508,44.27,69,45.8,68.541,47.3a13.365,13.365,0,0,0-.741,3.152c.245.2,5.96,5.258,6.611,5.833l.007.006-3.244,5.147-8.3-2.9-4.5,4.585L61.355,71.3l-5.234,3.244L50.2,67.929,44.01,69.313l-2.465,9ZM38.779,18.633a20.5,20.5,0,1,0,20.5,20.5A20.523,20.523,0,0,0,38.779,18.633Z" transform="translate(5126.221 2516.867)" fill="#fff"/>
        <path id="blue" d="M20.312,36.516H15.92l-1.363-4.559-3.094-1.264L6.671,33.022,3.477,30.227l2.462-4.99L4.808,22.375l-.032-.012C3.655,21.937,0,20.537,0,20.421V16.1l4.808-2,1.131-2.928L3.685,6.263l.035-.032A35.52,35.52,0,0,1,6.938,3.567h.007c.158.063,4.045,1.909,4.488,2.12l2.433-1.063L16.835,0h3.659l2.164,4.625L25.22,5.69l4.525-1.963,3.227,3.626-2.395,4.159,1.2,3.028,5.157,1.88v3.86l-4.924,2.1-1.43,2.862,2.395,4.99-3.21,2.794L25.27,30.693l-3.594,1.631-1.364,4.192ZM18.472,11.884a6.5,6.5,0,1,0,6.5,6.5A6.508,6.508,0,0,0,18.472,11.884Z" transform="translate(5209.029 2527.116)" fill="#97d1ff"/>
        <path id="green" d="M25.713,44.516H20.369L18.71,38.959l-3.765-1.542-5.829,2.84L5.231,36.851l3-6.085L6.85,27.277l-.032-.012C5.846,26.9,1,25.041,1,24.895V19.622l5.85-2.434,1.376-3.569L5.484,7.636,5.519,7.6A43.342,43.342,0,0,1,9.441,4.348H9.45c.2.079,5.246,2.482,5.461,2.585l2.96-1.3L21.482,0h4.453l2.631,5.638,3.118,1.3,5.505-2.393,3.927,4.421L38.2,14.035l1.456,3.691,6.274,2.291v4.705l-5.99,2.555L38.2,30.766l2.914,6.085-3.907,3.406-5.465-2.84-4.371,1.988-1.659,5.11ZM22.472,14.487a7.924,7.924,0,1,0,7.908,7.925A7.925,7.925,0,0,0,22.472,14.487Z" transform="translate(5186.029 2476.116)" fill="#77ffd6"/>
      </g>
      <g id="automation" transform="translate(5122 2471)">
        <path id="Path_2206" data-name="Path 2206" d="M2.165,66.525a2.06,2.06,0,0,0,1.62,1.851l7.184,1.55a32.566,32.566,0,0,0,.965,3.611L6.5,78.464a2.061,2.061,0,0,0-.476,2.414,41.219,41.219,0,0,0,3.29,5.741,2.061,2.061,0,0,0,2.327.789l6.982-2.249a33.029,33.029,0,0,0,2.659,2.659L19.029,94.8a2.061,2.061,0,0,0,.789,2.327,41.218,41.218,0,0,0,5.741,3.29,2.063,2.063,0,0,0,2.414-.476L32.9,94.5a33.189,33.189,0,0,0,3.614.965l1.55,7.184a2.064,2.064,0,0,0,1.849,1.62c1.1.087,2.2.165,3.315.165s2.218-.078,3.315-.165a2.06,2.06,0,0,0,1.851-1.62l1.55-7.184a32.606,32.606,0,0,0,3.614-.965l4.927,5.438a2.059,2.059,0,0,0,2.414.476,41.426,41.426,0,0,0,5.741-3.29,2.061,2.061,0,0,0,.789-2.327l-2.249-6.982a33.34,33.34,0,0,0,2.659-2.657l6.982,2.249a2.058,2.058,0,0,0,2.327-.789,41.219,41.219,0,0,0,3.29-5.741,2.061,2.061,0,0,0-.476-2.414L74.522,73.54a33.184,33.184,0,0,0,.965-3.614l7.184-1.55a2.064,2.064,0,0,0,1.62-1.849c.085-1.1.163-2.2.163-3.317s-.078-2.218-.165-3.315a2.06,2.06,0,0,0-1.62-1.851l-7.184-1.55a32.6,32.6,0,0,0-.965-3.614l5.438-4.927a2.061,2.061,0,0,0,.476-2.414,41.425,41.425,0,0,0-3.29-5.741,2.058,2.058,0,0,0-2.327-.789l-6.982,2.249A33.027,33.027,0,0,0,65.176,38.6l2.249-6.982a2.061,2.061,0,0,0-.789-2.327A41.219,41.219,0,0,0,60.894,26a2.057,2.057,0,0,0-2.414.476l-4.927,5.438a33.186,33.186,0,0,0-3.614-.965l-1.55-7.184a2.064,2.064,0,0,0-1.849-1.62,41.894,41.894,0,0,0-6.631,0,2.06,2.06,0,0,0-1.851,1.62l-1.55,7.184a32.565,32.565,0,0,0-3.611.965l-4.927-5.438A2.06,2.06,0,0,0,25.557,26a41.219,41.219,0,0,0-5.741,3.29,2.061,2.061,0,0,0-.789,2.327L21.276,38.6a33.026,33.026,0,0,0-2.659,2.659l-6.98-2.249a2.056,2.056,0,0,0-2.327.789,41.218,41.218,0,0,0-3.29,5.741A2.061,2.061,0,0,0,6.5,47.955l5.438,4.927a33.185,33.185,0,0,0-.965,3.614l-7.184,1.55a2.064,2.064,0,0,0-1.62,1.849c-.087,1.1-.165,2.2-.165,3.317s.078,2.218.165,3.315Zm4-4.776,7.013-1.515a2.062,2.062,0,0,0,1.6-1.684A28.737,28.737,0,0,1,16.26,53a2.059,2.059,0,0,0-.544-2.257l-5.3-4.8c.462-.884.944-1.732,1.443-2.533L18.658,45.6a2.069,2.069,0,0,0,2.228-.656,28.983,28.983,0,0,1,4.077-4.077,2.059,2.059,0,0,0,.656-2.228L23.43,31.847q1.2-.751,2.533-1.443l4.8,5.3a2.064,2.064,0,0,0,2.259.544,28.6,28.6,0,0,1,5.545-1.482,2.062,2.062,0,0,0,1.684-1.6l1.513-7.013a27.15,27.15,0,0,1,2.925,0L46.2,33.164a2.062,2.062,0,0,0,1.684,1.6,28.737,28.737,0,0,1,5.547,1.482,2.058,2.058,0,0,0,2.257-.544l4.8-5.3c.884.462,1.732.944,2.533,1.443l-2.189,6.794a2.064,2.064,0,0,0,.656,2.228,28.982,28.982,0,0,1,4.077,4.077A2.054,2.054,0,0,0,67.8,45.6l6.794-2.189q.751,1.2,1.443,2.531l-5.3,4.8A2.061,2.061,0,0,0,70.191,53a28.6,28.6,0,0,1,1.482,5.545,2.062,2.062,0,0,0,1.6,1.684l7.013,1.513c.027.484.045.973.045,1.464s-.016.979-.043,1.461l-7.013,1.515a2.062,2.062,0,0,0-1.6,1.684,28.737,28.737,0,0,1-1.482,5.547,2.059,2.059,0,0,0,.544,2.257l5.3,4.8c-.462.884-.944,1.732-1.443,2.533L67.8,80.818a2.052,2.052,0,0,0-2.228.656,29.093,29.093,0,0,1-4.077,4.077,2.06,2.06,0,0,0-.656,2.226l2.189,6.794q-1.2.751-2.531,1.443l-4.8-5.3a2.069,2.069,0,0,0-2.259-.544,28.6,28.6,0,0,1-5.545,1.482,2.062,2.062,0,0,0-1.684,1.6l-1.513,7.013a27.145,27.145,0,0,1-2.925,0l-1.515-7.013a2.062,2.062,0,0,0-1.684-1.6,28.736,28.736,0,0,1-5.547-1.482,2.056,2.056,0,0,0-2.257.544l-4.8,5.3c-.884-.462-1.732-.944-2.533-1.443l2.189-6.794a2.064,2.064,0,0,0-.656-2.228,28.983,28.983,0,0,1-4.077-4.077,2.059,2.059,0,0,0-2.228-.656L11.866,83q-.751-1.2-1.443-2.533l5.3-4.8a2.061,2.061,0,0,0,.544-2.259,28.6,28.6,0,0,1-1.482-5.545,2.062,2.062,0,0,0-1.6-1.684L6.166,64.674c-.025-.484-.043-.973-.043-1.464S6.139,62.231,6.166,61.749Z" transform="translate(0 21.562)" fill="#0e186e"/>
        <path id="Path_2207" data-name="Path 2207" d="M78.862,31.343a2.06,2.06,0,0,0,1.429-1.729,24.241,24.241,0,0,0,.181-2.878,24.659,24.659,0,0,0-.179-2.878,2.06,2.06,0,0,0-1.429-1.729l-5.716-1.8q-.257-.7-.569-1.377l2.77-5.308a2.066,2.066,0,0,0-.21-2.232A24.958,24.958,0,0,0,71.06,7.336a2.066,2.066,0,0,0-2.232-.212l-5.312,2.77q-.674-.309-1.377-.567l-1.8-5.716a2.06,2.06,0,0,0-1.729-1.429,22.8,22.8,0,0,0-5.757,0,2.06,2.06,0,0,0-1.729,1.429l-1.8,5.716q-.7.257-1.377.569l-5.308-2.77a2.07,2.07,0,0,0-2.232.21,24.957,24.957,0,0,0-4.079,4.079,2.062,2.062,0,0,0-.212,2.232l2.768,5.308q-.309.674-.567,1.377l-5.716,1.8a2.06,2.06,0,0,0-1.429,1.729,23.176,23.176,0,0,0,0,5.755,2.06,2.06,0,0,0,1.429,1.729l5.716,1.8q.257.7.569,1.377l-2.77,5.308a2.066,2.066,0,0,0,.21,2.232,24.957,24.957,0,0,0,4.079,4.079,2.066,2.066,0,0,0,2.232.212l5.308-2.768q.674.309,1.377.567l1.8,5.716a2.06,2.06,0,0,0,1.729,1.429,24.362,24.362,0,0,0,2.882.181,24.661,24.661,0,0,0,2.878-.179,2.06,2.06,0,0,0,1.729-1.429l1.8-5.716q.7-.257,1.377-.569l5.308,2.77a2.062,2.062,0,0,0,2.232-.21,24.959,24.959,0,0,0,4.079-4.079,2.062,2.062,0,0,0,.212-2.232l-2.77-5.308q.312-.674.569-1.377ZM70.905,29.52A2.067,2.067,0,0,0,69.549,30.9a14.519,14.519,0,0,1-1.1,2.667,2.056,2.056,0,0,0-.012,1.929l2.616,5.013a21.036,21.036,0,0,1-1.546,1.546l-5.013-2.616a2.062,2.062,0,0,0-1.929.012,14.519,14.519,0,0,1-2.667,1.1A2.067,2.067,0,0,0,58.521,41.9l-1.7,5.409a17.364,17.364,0,0,1-2.173,0l-1.7-5.409a2.067,2.067,0,0,0-1.375-1.356,14.323,14.323,0,0,1-2.665-1.1,2.06,2.06,0,0,0-1.931-.012l-5.013,2.616a21.037,21.037,0,0,1-1.546-1.546l2.616-5.013a2.062,2.062,0,0,0-.012-1.929,14.519,14.519,0,0,1-1.1-2.667,2.067,2.067,0,0,0-1.356-1.375l-5.409-1.7c-.025-.377-.035-.738-.035-1.086s.01-.709.035-1.086l5.409-1.7a2.067,2.067,0,0,0,1.356-1.375,14.324,14.324,0,0,1,1.1-2.665,2.06,2.06,0,0,0,.012-1.931L40.42,12.966a21.038,21.038,0,0,1,1.546-1.546l5.013,2.616a2.068,2.068,0,0,0,1.929-.012,14.519,14.519,0,0,1,2.667-1.1,2.067,2.067,0,0,0,1.375-1.356l1.7-5.409a17.365,17.365,0,0,1,2.173,0l1.7,5.409A2.067,2.067,0,0,0,59.9,12.922a14.324,14.324,0,0,1,2.665,1.1,2.06,2.06,0,0,0,1.931.012l5.013-2.616a21.035,21.035,0,0,1,1.546,1.546l-2.616,5.013a2.062,2.062,0,0,0,.012,1.929,14.519,14.519,0,0,1,1.1,2.667,2.067,2.067,0,0,0,1.356,1.375l5.409,1.7c.025.377.035.738.035,1.086s-.01.709-.035,1.086Z" transform="translate(31.099 0)" fill="#0e186e"/>
        <path id="Path_2208" data-name="Path 2208" d="M81.705,43.416l-3.541-1.257a16.707,16.707,0,0,0-.695-1.684l1.61-3.391a2.052,2.052,0,0,0-.239-2.152A20.746,20.746,0,0,0,75.3,31.386a2.062,2.062,0,0,0-2.154-.239l-3.393,1.61a16.464,16.464,0,0,0-1.682-.693l-1.259-3.541a2.066,2.066,0,0,0-1.694-1.356,19,19,0,0,0-5,0,2.059,2.059,0,0,0-1.694,1.356l-1.257,3.541a16.706,16.706,0,0,0-1.684.695l-3.391-1.61a2.063,2.063,0,0,0-2.152.239,20.746,20.746,0,0,0-3.546,3.543,2.065,2.065,0,0,0-.239,2.154l1.61,3.393a16.463,16.463,0,0,0-.693,1.682L43.523,43.42a2.066,2.066,0,0,0-1.356,1.694,20.194,20.194,0,0,0-.167,2.5,20.662,20.662,0,0,0,.165,2.5,2.059,2.059,0,0,0,1.356,1.694l3.541,1.257a16.7,16.7,0,0,0,.695,1.684l-1.61,3.391a2.052,2.052,0,0,0,.239,2.152,20.746,20.746,0,0,0,3.543,3.546,2.065,2.065,0,0,0,2.154.239l3.393-1.61a16.463,16.463,0,0,0,1.682.693L58.419,66.7a2.066,2.066,0,0,0,1.694,1.356,19.91,19.91,0,0,0,2.5.169,20.662,20.662,0,0,0,2.5-.165A2.059,2.059,0,0,0,66.808,66.7l1.257-3.541a16.708,16.708,0,0,0,1.684-.695l3.391,1.61a2.048,2.048,0,0,0,2.152-.239A20.746,20.746,0,0,0,78.838,60.3a2.065,2.065,0,0,0,.239-2.154l-1.61-3.393a16.465,16.465,0,0,0,.693-1.682L81.7,51.807a2.066,2.066,0,0,0,1.356-1.694,19.91,19.91,0,0,0,.169-2.5,20.662,20.662,0,0,0-.165-2.5,2.062,2.062,0,0,0-1.356-1.7Zm-2.622,4.949-3.267,1.161a2.061,2.061,0,0,0-1.3,1.391,12.266,12.266,0,0,1-1.144,2.777,2.066,2.066,0,0,0-.068,1.9l1.48,3.119q-.513.563-1.074,1.074L70.595,58.3a2.067,2.067,0,0,0-1.9.068,12.273,12.273,0,0,1-2.775,1.144,2.069,2.069,0,0,0-1.393,1.3l-1.161,3.267a14.1,14.1,0,0,1-1.5,0L60.7,60.813a2.061,2.061,0,0,0-1.391-1.3,12.266,12.266,0,0,1-2.777-1.144,2.078,2.078,0,0,0-1.9-.068l-3.119,1.48q-.563-.513-1.074-1.074l1.48-3.119a2.06,2.06,0,0,0-.068-1.9,12.273,12.273,0,0,1-1.144-2.775,2.069,2.069,0,0,0-1.3-1.393l-3.267-1.161c-.016-.249-.025-.5-.025-.752s.008-.505.021-.752L49.41,45.7A2.054,2.054,0,0,0,50.7,44.306a12.327,12.327,0,0,1,1.146-2.777,2.066,2.066,0,0,0,.068-1.9l-1.48-3.119q.513-.563,1.074-1.074l3.119,1.48a2.054,2.054,0,0,0,1.9-.068A12.272,12.272,0,0,1,59.3,35.706a2.069,2.069,0,0,0,1.393-1.3l1.161-3.267a14.093,14.093,0,0,1,1.5,0l1.161,3.267a2.061,2.061,0,0,0,1.391,1.3,12.266,12.266,0,0,1,2.777,1.144,2.054,2.054,0,0,0,1.9.068l3.119-1.48q.563.513,1.074,1.074L73.3,39.631a2.06,2.06,0,0,0,.068,1.9A12.273,12.273,0,0,1,74.516,44.3a2.069,2.069,0,0,0,1.3,1.393l3.267,1.161c.016.251.025.5.025.754s-.008.5-.021.752Z" transform="translate(42.773 26.734)" fill="#0e186e"/>
        <path id="Path_2209" data-name="Path 2209" d="M33.675,76.349A22.675,22.675,0,1,0,11,53.675,22.7,22.7,0,0,0,33.675,76.349Zm0-41.227A18.552,18.552,0,1,1,15.123,53.675,18.575,18.575,0,0,1,33.675,35.123Z" transform="translate(9.628 31.022)" fill="#0e186e"/>
        <path id="Path_2210" data-name="Path 2210" d="M2.022,38.165l3.166,2.641A49.372,49.372,0,0,1,43.2,23c1.049,0,2.1.06,3.144.126l-2.54,2.54,2.915,2.915,6.184-6.184a2.059,2.059,0,0,0,0-2.915l-6.184-6.184-2.915,2.915,2.8,2.8c-1.134-.072-2.27-.136-3.405-.136A53.486,53.486,0,0,0,2.022,38.165Z" transform="translate(0.023 12.063)" fill="#0e186e"/>
        <path id="Path_2211" data-name="Path 2211" d="M48.307,9A10.307,10.307,0,1,0,58.613,19.307,10.318,10.318,0,0,0,48.307,9Zm0,16.491a6.184,6.184,0,1,1,6.184-6.184A6.192,6.192,0,0,1,48.307,25.491Z" transform="translate(38.438 7.429)" fill="#0e186e"/>
        <path id="Path_2212" data-name="Path 2212" d="M56.245,33a8.245,8.245,0,1,0,8.245,8.245A8.254,8.254,0,0,0,56.245,33Zm0,12.368a4.123,4.123,0,1,1,4.123-4.123A4.127,4.127,0,0,1,56.245,45.368Z" transform="translate(49.141 33.092)" fill="#0e186e"/>
        <path id="Path_2213" data-name="Path 2213" d="M68.813,6.1,58.507,4.041A2.057,2.057,0,0,0,56.08,5.657L54.019,15.964l4.042.81,1.111-5.549a30.93,30.93,0,0,1,3.053,13.388,30.589,30.589,0,0,1-6.782,19.325l3.218,2.579A35.07,35.07,0,0,0,62.728,9.09l5.277,1.055Z" transform="translate(55.529 2.122)" fill="#0e186e"/>
      </g>
    </g>
  </g>
</svg>
