<svg xmlns="http://www.w3.org/2000/svg" width="487" height="439.18" viewBox="0 0 487 439.18"><defs><style>.a{fill:#cbffef;}.b{fill:#455a64;}.c{fill:#97d1ff;}.d,.i,.j{fill:#fff;}.d{opacity:0.4;}.e{opacity:0.05;}.f{fill:#0e186e;}.g,.i,.k{opacity:0.2;}.h{opacity:0.1;}.l{opacity:0.8;}.m{fill:#37474f;}.n{fill:#263238;}.o{opacity:0.3;}.p{opacity:0.5;}.q{opacity:0.7;}</style></defs><g transform="translate(-8.5 -24.65)"><g transform="translate(2 -14)"><ellipse class="a" cx="243.5" cy="140.59" rx="243.5" ry="140.59" transform="translate(6.5 196.65)"/></g><path class="b" d="M319.91,143.1a74.33,74.33,0,1,1-52.3-44.81,74.33,74.33,0,0,1,52.3,44.81Z"/><path class="c" d="M242,107.29c-3.4.06-7.76,1.26-4.6,3.19s5.17,2.12,5.2,4.62-1.61,5.14-.81,6.92,2.13,3.85,3.43,3.25,4.83-4.55,6.85-4.37,8.9.49,9.9-1.76,2-2.1,3.66-4.6,1.56-5.83-.45-5.85-2.28.85-5.64.6-4.92-2.46-8.19-1.88S244.51,107.25,242,107.29Z"/><path class="c" d="M229.37,108.18c-3.85,2.06-12,5.17-15.73,4.12-1.87-.53-4.09-1.27-6.46-1.71A74.51,74.51,0,0,0,178.43,154a24.59,24.59,0,0,0,3.36,5.2c2.94,3.45,6,3.89,9.71,4.61s2.56,2.82,4.39,5,2.62,3.48,4.71,4.66-.74,3.39-1.56,5.8-1.06,3.76.66,8.64,6.7,8.86,8.18,10.75-1,4.09-.39,8,.44,14.49,4.24,20.4,6.08,5.23,5.77,1.24-1.59-7.76.71-10.76,7-2.2,8.58-7.68,2.61-5.21,5.15-7.07,1.4-3.46,3.76-7.69,3.05-8.22-.44-10-5.79-1.56-8.79-5.68a38.42,38.42,0,0,0-12-10.45c-4.32-2.34-11.18.52-13.92-.28s-4.48-6-4.3-8-1.86-2.54-3.83-2.05-3.07-.76-3.61-3.4,3.56-6,6.89-6.22,5.11,1.29,5.77,5.58a8.35,8.35,0,0,0,6.57,7.19c3.07.77,1.15-2.42-1-4.6s-2.33-4.17-.69-9,5.68-4.45,8.69-8.87,3.59-1.1,6.63-.66,2.59-1.2,3.71-4,5-.38,8.16-2.63-3.45-5.76-3-8.8,3.46-2.93,1.78-7.49.64-4.73,1.84-6.43S233.23,106.12,229.37,108.18Zm-4.5,11.12c-1,2.25-1.86,1.82-3.51,4.28a9.3,9.3,0,0,1-5.88,4c-1.66.2-4.39-2.75-4.53-4.58s2.49-2.37,5.47-2.75a16.7,16.7,0,0,0,8.24-3.81C226.8,114.8,225.88,117.06,224.87,119.3Z"/><path class="c" d="M325,165.07v.21a5.25,5.25,0,0,0-2.94,2.92c-1.69,4.15-2,2.33-6,5.15s-2.45,5-2.24,7.85-4.38,6-6.65,7-3.28,7.44-2.53,10.57-3,4.4-5.3,7.25-3.6,7.63-5.1,9.92a7,7,0,0,1-6.93,3.21c-2.72-.46-5.24-5-6.7-8.86a22.68,22.68,0,0,1-1.12-12.45c.85-4.24.55-3.71-.46-10.33a10.56,10.56,0,0,0-8.23-9.23c-2.56-.64-6.79.85-9.07-.48s-3.25-3.26-4.74-9.49,1.6-7.65,4-11a23.24,23.24,0,0,1,11.42-8.07,12.57,12.57,0,0,1,9.78,1.26c2.61,1.3,3.84,4.22,5.7,4.42s3.45-.77,5.31-.41,3.11,1.27,4.92,1,.66-2.39.4-3.54-1.9-.86-4.08-.88-2.72-.61-3.49-2.06-2-.17-3.07-.76-.85,2.07-.94,3.1-.89-.79-.89-.79-.9,1.41-1.29.76.51-2.2.38-3.8-2.43-1.22-3.87-2.45a5.5,5.5,0,0,0-5.4-.75c-2,.65-2.32.18-3.19,1.91s-5.14,2.9-6.49,2.67-.4-3,.76-5.4,3.55-1.62,5-4.07-.55-2.8-1.92-3.19-1.8-1.71-.37-4.83,3.33-2.26,4.12-.82a4.81,4.81,0,0,0,4.35,2.18c1.83,0,1.4-1.27,1.36-4s1.19-4.1,3.62-5.12,6.49-2.67,8-4.13,4.31-.5,5.76,1.07,4.68,2.15,8.07,2.72a2.79,2.79,0,0,0,2.4-.79A74,74,0,0,1,325,165.07Z"/><path class="c" d="M311.09,201.65c-1.81-.31-1.65.29-2.71,1.71s-2.61,3-2.33,4.52.42,3.31,1.67,2.22.82-2.41,2.6-3.21S313.8,202.11,311.09,201.65Z"/><path class="d" d="M270.26,104.85c-47.33-13.67-56.17,18.6-31.08,38.93s68.08,27,73.87,13.63S305.45,115,270.26,104.85Z"/><path class="e" d="M230.75,208c-36.79-30.18-35.64-88.78-3.4-107.72h0c-1.36.46-2.72.94-4.07,1.48a74.32,74.32,0,1,0,96.17,97.7C309.06,213.83,267.51,238.12,230.75,208Z"/><path class="f" d="M423.08,101.12c-2.48-1.44-5.91-1.23-9.69.95-7.56,4.37-13.69,15-13.69,23.72,0,4.38,1.54,7.46,4,8.88l4.82,2.8c2.48,1.43,5.9,1.23,9.68-1,7.57-4.36,13.7-15,13.7-23.72,0-4.36-1.53-7.43-4-8.86"/><path class="f" d="M418.24,104.88c-7.56,4.37-13.69,15-13.69,23.73s6.13,12.27,13.69,7.9,13.71-15,13.7-23.72S425.8,100.52,418.24,104.88Z"/><path class="f" d="M425.8,124.26v1a21.941,21.941,0,0,1-7.56,7.92c-2.94,1.7-5.61,1.88-7.56.8v-2.06a13.47,13.47,0,0,1,6.16-10.68l2-1.15c1.77-1,3.48-1.15,4.82-.37A5.028,5.028,0,0,1,425.8,124.26Z"/><path class="d" d="M423.08,101.12l4.85,2.81c-2.48-1.44-5.9-1.23-9.69.95-4.95,2.87-9.29,8.41-11.69,14.35l-4.86-2.82c2.41-5.94,6.75-11.48,11.7-14.34C417.17,99.89,420.6,99.68,423.08,101.12Z"/><path class="g" d="M408.38,137.36l-4.64-2.69c-2.5-1.42-4-4.5-4-8.88l4.85,2.82C404.55,132.86,406,135.89,408.38,137.36Z"/><path class="h" d="M401.69,116.41l4.86,2.82a25.36,25.36,0,0,0-2,9.38h0l-4.85-2.82a25.58,25.58,0,0,1,1.99-9.38Z"/><path class="f" d="M352.78,219.16a24.25,24.25,0,0,0,2.13-10.07,18.942,18.942,0,0,0,1.74-3.42,12.609,12.609,0,0,1-2,1.89,9.24,9.24,0,0,0,1.53-3.46,13.21,13.21,0,0,1-2.22,2.41,2.13,2.13,0,0,0-2.54,0,8.26,8.26,0,0,0-3.4,7.68c-2.9,1.48-5.47,1.11-7.19-.71-.92,2.62-.48,5.1,1.08,5.59a2.59,2.59,0,0,1-1.58.33c0,2.17,1.12,3.52,2.79,3a4.32,4.32,0,0,1-1.57,1,2.06,2.06,0,0,0,3.26,1.35,12.1,12.1,0,0,1-5.17,4.91,7,7,0,0,0,5.35-1c3.45-2,6.1-5.59,7.79-9.49"/><path class="f" d="M86.54,206.57c2.48-1.43,5.9-1.23,9.69,1,7.56,4.37,13.69,15,13.69,23.73,0,4.38-1.55,7.45-4,8.87l-4.83,2.8c-2.47,1.43-5.9,1.23-9.68-.95-7.56-4.37-13.69-15-13.69-23.73,0-4.36,1.53-7.43,4-8.86"/><path class="f" d="M91.37,210.34c7.56,4.37,13.7,15,13.7,23.72s-6.14,12.27-13.7,7.91-13.7-15-13.69-23.73S83.82,206,91.37,210.34Z"/><path class="d" d="M86.54,206.57l-4.85,2.81c2.48-1.43,5.9-1.23,9.68,1,4.95,2.86,9.29,8.4,11.7,14.34l4.85-2.82c-2.4-5.93-6.74-11.48-11.69-14.34C92.44,205.34,89,205.14,86.54,206.57Z"/><path class="g" d="M101.24,242.82l4.64-2.7c2.49-1.42,4-4.49,4-8.87l-4.85,2.81C105.06,238.32,103.6,241.34,101.24,242.82Z"/><path class="h" d="M107.92,221.86l-4.85,2.82a25.4,25.4,0,0,1,2,9.38h0l4.85-2.81a25.41,25.41,0,0,0-2-9.39Z"/><path class="f" d="M345.79,34c-2.47-1.44-5.9-1.23-9.68.95-7.57,4.37-13.7,15-13.7,23.72,0,4.39,1.55,7.46,4,8.88l4.83,2.8c2.48,1.43,5.9,1.23,9.68-.95,7.56-4.37,13.7-15,13.7-23.73,0-4.36-1.54-7.43-4-8.86"/><path class="f" d="M341,37.8c-7.56,4.37-13.69,15-13.69,23.72S333.4,73.79,341,69.43s13.7-15,13.7-23.73S348.52,33.43,341,37.8Z"/><path class="d" d="M345.79,34l4.86,2.81c-2.48-1.43-5.91-1.23-9.69,1-4.95,2.86-9.29,8.4-11.7,14.34l-4.85-2.82c2.41-5.93,6.74-11.48,11.7-14.34C339.89,32.8,343.32,32.59,345.79,34Z"/><path class="g" d="M331.1,70.28l-4.65-2.7c-2.49-1.42-4-4.49-4-8.87l4.86,2.81C327.27,65.78,328.73,68.8,331.1,70.28Z"/><path class="h" d="M324.41,49.32l4.85,2.82a25.58,25.58,0,0,0-2,9.38h0l-4.86-2.81a25.41,25.41,0,0,1,2.01-9.39Z"/><path class="f" d="M306.39,270.49c-2.47-1.44-5.9-1.23-9.68.95-7.57,4.37-13.7,15-13.7,23.72,0,4.39,1.55,7.46,4,8.88l4.83,2.8c2.48,1.43,5.9,1.23,9.68-1,7.56-4.36,13.7-15,13.7-23.72,0-4.36-1.54-7.43-4-8.86"/><path class="f" d="M301.56,274.26c-7.56,4.36-13.69,15-13.69,23.72s6.13,12.27,13.69,7.9,13.7-15,13.7-23.72S309.12,269.89,301.56,274.26Z"/><path class="d" d="M306.39,270.49l4.86,2.81c-2.48-1.43-5.91-1.23-9.69.95-4.95,2.87-9.29,8.41-11.7,14.35L285,285.78c2.41-5.94,6.74-11.48,11.7-14.34C300.49,269.26,303.92,269.05,306.39,270.49Z"/><path class="g" d="M291.7,306.73,287.05,304c-2.49-1.42-4-4.49-4-8.88l4.86,2.82C287.87,302.24,289.33,305.26,291.7,306.73Z"/><path class="h" d="M285,285.78l4.85,2.82a25.54,25.54,0,0,0-2,9.38h0L283,295.16a25.4,25.4,0,0,1,2-9.38Z"/><path class="f" d="M136.68,143.91l2.26-.18c3-.24,6.53-1.41,6.53-5.67a10,10,0,0,0-4.52-7.83c-1.95-1.12-3.61-.66-4.25,1a10,10,0,0,0-4.24-5.86c-2.5-1.44-4.52-.27-4.52,2.61,0,4.18,3.53,9.46,6.49,13.16Z"/><path class="f" d="M189.32,267.54c2.48-1.43,5.9-1.23,9.69,1,7.56,4.37,13.69,15,13.69,23.72,0,4.38-1.55,7.45-4,8.88l-4.83,2.8c-2.47,1.43-5.9,1.22-9.68-1-7.56-4.37-13.69-15-13.69-23.72,0-4.37,1.53-7.43,4-8.86"/><path class="f" d="M194.15,271.31c7.57,4.37,13.7,15,13.7,23.72s-6.14,12.28-13.7,7.91-13.7-15-13.69-23.72S186.6,267,194.15,271.31Z"/><path class="d" d="M189.32,267.54l-4.85,2.82c2.48-1.44,5.9-1.23,9.68.95,4.95,2.86,9.29,8.41,11.7,14.34l4.85-2.81c-2.4-5.94-6.7-11.48-11.7-14.34C195.22,266.31,191.8,266.11,189.32,267.54Z"/><path class="g" d="M204,303.79l4.64-2.69c2.49-1.43,4-4.5,4-8.88L207.85,295C207.84,299.29,206.38,302.32,204,303.79Z"/><path class="h" d="M210.7,282.84l-4.85,2.81a25.4,25.4,0,0,1,2,9.38h0l4.85-2.82a25.4,25.4,0,0,0-2-9.37Z"/><path class="f" d="M78.34,94.18c2.48-1.44,5.9-1.23,9.69.95,7.56,4.37,13.69,15,13.69,23.72,0,4.39-1.54,7.46-4,8.88l-4.82,2.8c-2.48,1.43-5.9,1.23-9.69-1-7.56-4.36-13.69-15-13.69-23.72,0-4.36,1.53-7.43,4-8.86"/><path class="f" d="M83.18,98c7.56,4.37,13.69,15,13.69,23.72s-6.13,12.27-13.7,7.9-13.7-15-13.69-23.72S75.62,93.58,83.18,98Z"/><path class="d" d="M78.34,94.18,73.49,97c2.48-1.43,5.9-1.23,9.68,1,5,2.86,9.3,8.4,11.7,14.34l4.85-2.82C97.32,103.53,93,98,88,95.13,84.24,93,80.82,92.74,78.34,94.18Z"/><path class="g" d="M93,130.42l4.64-2.69c2.5-1.42,4-4.49,4-8.88l-4.85,2.82C96.87,125.93,95.41,129,93,130.42Z"/><path class="h" d="M99.72,109.47l-4.85,2.82a25.4,25.4,0,0,1,2,9.38h0l4.85-2.82A25.4,25.4,0,0,0,99.72,109.47Z"/><path class="f" d="M416.87,212.34c-2.48-1.43-5.91-1.23-9.69,1-7.56,4.37-13.69,15-13.69,23.72,0,4.38,1.54,7.45,4,8.88l4.82,2.8c2.48,1.43,5.9,1.22,9.68-1,7.57-4.37,13.7-15,13.7-23.72,0-4.37-1.53-7.43-4-8.86"/><path class="f" d="M412,216.11c-7.56,4.37-13.69,15-13.69,23.72s6.13,12.28,13.69,7.91,13.71-15,13.7-23.72S419.59,211.75,412,216.11Z"/><path class="d" d="M416.87,212.34l4.85,2.82c-2.48-1.44-5.9-1.23-9.69,1-4.95,2.86-9.29,8.41-11.69,14.34l-4.86-2.81c2.41-5.94,6.75-11.48,11.7-14.34C411,211.11,414.39,210.91,416.87,212.34Z"/><path class="g" d="M402.17,248.59l-4.64-2.69c-2.5-1.43-4-4.5-4-8.88l4.85,2.82C398.34,244.09,399.8,247.12,402.17,248.59Z"/><path class="h" d="M395.48,227.64l4.86,2.81a25.4,25.4,0,0,0-2,9.38h0L393.49,237a25.58,25.58,0,0,1,1.99-9.36Z"/><path class="f" d="M169.48,74.73l-2.71-5.09L169,63.36V59.51l-6.67,3.85V67.2l2.87,5a.41.41,0,0,0,.2.17h0Z"/><path class="g" d="M169.48,74.73l-2.71-5.09L169,63.36V59.51l-6.67,3.85V67.2l2.87,5a.41.41,0,0,0,.2.17h0Z"/><path class="f" d="M198.14,29.53a4.44,4.44,0,0,0-2-3.46l-1.63-.94a4.41,4.41,0,0,0-4,0L152.82,46.91a4.4,4.4,0,0,0-2,3.46V69.86a4.41,4.41,0,0,0,2,3.47l1.63.94a4.45,4.45,0,0,0,4,0l8-4.64,2.86,5a.42.42,0,0,0,.77-.07l3-8.73,23-13.29a4.44,4.44,0,0,0,2-3.46Z"/><path class="g" d="M150.82,69.86a4.41,4.41,0,0,0,2,3.47l1.63.94a4.5,4.5,0,0,0,3.65.16c-.94.35-1.66-.18-1.66-1.32V53.62a4.08,4.08,0,0,1,.59-2l-5.62-3.25a4,4,0,0,0-.59,2Z"/><path class="i" d="M198.07,29c-.23-.85-1-1.12-1.93-.59L158.44,50.2A3.91,3.91,0,0,0,157,51.65l-5.62-3.25a4.14,4.14,0,0,1,1.41-1.49l37.69-21.78a4.47,4.47,0,0,1,4,0l1.63.94A4.39,4.39,0,0,1,198.07,29Z"/><path class="f" d="M352.62,141.21l17.31-10a1.46,1.46,0,0,0,.59-1.15V114.5c0-.44-.26-.64-.59-.45l-17.31,10a1.43,1.43,0,0,0-.6,1.14v15.58C352,141.2,352.29,141.4,352.62,141.21Z"/><path class="j" d="M352,140.76v-.31l7.16-11.86-7.06-3.91a.5.5,0,0,1,.05-.13l8.8,3.67c.18.08.42-.06.61-.36l8.79-13.8a.12.12,0,0,1,.05,0l-7.05,12.06,7.15,3.6v.3a1.59,1.59,0,0,1-.18.71l-7.33-4-1,1.78c-.42.7-1,1-1.39.8l-1-.58-7.32,12.44a.55.55,0,0,1-.28-.41Z"/><path class="f" d="M156,204.87a11.311,11.311,0,0,1,1.44,1.82,15.572,15.572,0,0,1,1.11,2.09,14.12,14.12,0,0,1,.72,2.1,8.639,8.639,0,0,1,.29,1.86.62.62,0,0,1-.12.42.19.19,0,0,1-.26.06l-2.31-1.34a1.16,1.16,0,0,1-.4-.36,3.708,3.708,0,0,1-.31-.55l-.17-.41a4.282,4.282,0,0,0-.32-.65,4.761,4.761,0,0,0-.54-.71,3,3,0,0,0-.77-.62,3.712,3.712,0,0,0-.65-.3,1.1,1.1,0,0,0-.55-.06.54.54,0,0,0-.39.26,1.28,1.28,0,0,0-.15.7,2.34,2.34,0,0,0,.17.88,3.69,3.69,0,0,0,.57.91,10.189,10.189,0,0,0,1,1.12c.44.42,1,.94,1.63,1.54a16,16,0,0,1,1.69,1.86,10.059,10.059,0,0,1,1.21,2,10.289,10.289,0,0,1,.73,2.3,14.12,14.12,0,0,1,.24,2.7,8.251,8.251,0,0,1-.28,2.26,3.84,3.84,0,0,1-.8,1.49,2.25,2.25,0,0,1-1.24.7,3.38,3.38,0,0,1-1.59-.1v2.23a.8.8,0,0,1-.14.51.23.23,0,0,1-.34.06l-2.31-1.34a.9.9,0,0,1-.34-.44,1.8,1.8,0,0,1-.14-.68v-2.33A10.751,10.751,0,0,1,151.2,223a15.362,15.362,0,0,1-1.17-2.14,13.089,13.089,0,0,1-.75-2.21,10.118,10.118,0,0,1-.28-2.09.68.68,0,0,1,.11-.42.2.2,0,0,1,.26-.06l2.32,1.34a1.42,1.42,0,0,1,.39.33,4.271,4.271,0,0,1,.28.5,3.225,3.225,0,0,0,.21.53,6.239,6.239,0,0,0,.38.8,5.149,5.149,0,0,0,.6.86,3.23,3.23,0,0,0,.89.74,3.36,3.36,0,0,0,1.57.54c.42,0,.63-.31.63-.94a2.05,2.05,0,0,0-.23-.92,6,6,0,0,0-.69-1c-.31-.35-.7-.75-1.18-1.2s-1-1-1.69-1.6a10.9,10.9,0,0,1-2.66-3.85,12.84,12.84,0,0,1-.84-4.8,8.061,8.061,0,0,1,.23-2,4.55,4.55,0,0,1,.67-1.49,2.38,2.38,0,0,1,1.06-.86,2.64,2.64,0,0,1,1.42-.16v-2.32a.83.83,0,0,1,.14-.52.25.25,0,0,1,.34-.06l2.31,1.34a.93.93,0,0,1,.34.45,1.75,1.75,0,0,1,.14.67Z"/><path class="f" d="M262.62,42.81,259.43,41h0c-1.51-1-3.62-1-6,.37-4.63,2.67-8.37,9.45-8.37,15.14V57.8c0,5.69,7.65,11.88,7.65,11.88l3.13,1.77s-1.88-2.14-1.67-2.58c2-4.21,7.63-16.09,7.63-20.73v-1.3a10.189,10.189,0,0,0-.36-2.78l.36.21Zm-9.14,13c-2.31,1.33-4.19.25-4.19-2.42,1.25-.19,4.38-5.53,4.19-7.25,2.31-1.33,4.18-.25,4.18,2.42a9.26,9.26,0,0,1-4.18,7.3Z"/><g class="k"><path d="M262.62,42.81,259.43,41h0c-1.51-1-3.62-1-6,.37-4.63,2.67-8.37,9.45-8.37,15.14V57.8c0,5.69,7.65,11.88,7.65,11.88l3.13,1.77s-1.88-2.14-1.67-2.58c2-4.21,7.63-16.09,7.63-20.73v-1.3a10.189,10.189,0,0,0-.36-2.78l.36.21Zm-9.14,13c-2.31,1.33-4.19.25-4.19-2.42,1.25-.19,4.38-5.53,4.19-7.25,2.31-1.33,4.18-.25,4.18,2.42a9.26,9.26,0,0,1-4.18,7.3Z"/></g><path class="f" d="M265.2,48.76c0-5.69-3.75-8.14-8.37-5.47s-8.38,9.45-8.38,15.14v1.3c0,4.38,5,9.46,7.25,11.57a1.13,1.13,0,0,0,1.78-.33c2-4,7.72-16.2,7.72-20.91Zm-8.37,9c-2.32,1.34-4.19.26-4.19-2.41a9.23,9.23,0,0,1,4.19-7.25c2.31-1.34,4.18-.26,4.18,2.41a9.24,9.24,0,0,1-4.18,7.28Z"/><g class="l"><path class="f" d="M411.21,107.57a.38.38,0,0,1-.24-.09L349.16,57.19a.373.373,0,0,1,.47-.58l61.82,50.3a.37.37,0,0,1-.24.66Z"/><path class="f" d="M410.16,214.37h0a.38.38,0,0,1-.35-.39l3.61-78.28a.375.375,0,1,1,.75.03L410.53,214a.37.37,0,0,1-.37.37Z"/><path class="f" d="M404.6,219.17a.35.35,0,0,1-.33-.2l-40.93-77a.38.38,0,0,1,.16-.5.37.37,0,0,1,.5.15l40.92,77a.36.36,0,0,1-.15.5.37.37,0,0,1-.17.05Z"/><path class="f" d="M373.39,122.35a.36.36,0,0,1-.36-.3.38.38,0,0,1,.29-.44L404,115.53a.36.36,0,0,1,.43.29.38.38,0,0,1-.29.44l-30.64,6.08Z"/><path class="f" d="M357.61,116.78a.37.37,0,0,1-.34-.22L337.19,70.42a.37.37,0,1,1,.68-.29L358,116.26a.36.36,0,0,1-.19.49.4.4,0,0,1-.2.03Z"/><path class="f" d="M265.38,56.21a.38.38,0,0,1-.37-.31.36.36,0,0,1,.31-.43L331,44.72a.375.375,0,0,1,.12.74L265.44,56.2Z"/><path class="f" d="M352.81,119.83a.41.41,0,0,1-.2-.06L264.54,63.26a.372.372,0,0,1,.41-.62L353,119.15a.37.37,0,0,1-.21.68Z"/><path class="f" d="M352.46,202.16h0a.38.38,0,0,1-.33-.42l6.75-60a.37.37,0,0,1,.42-.33.36.36,0,0,1,.32.41l-6.75,60a.37.37,0,0,1-.41.34Z"/><path class="f" d="M312.22,287.89a.377.377,0,0,1-.19-.7l84-48.9a.37.37,0,1,1,.37.64l-84,48.91a.45.45,0,0,1-.18.05Z"/><path class="f" d="M397.83,229.37h-.11L358.31,217.9a.38.38,0,0,1-.25-.46.37.37,0,0,1,.46-.26l39.41,11.47a.366.366,0,0,1-.1.72Z"/><path class="f" d="M311.25,273.67a.39.39,0,0,1-.23-.07.38.38,0,0,1-.07-.52l29.79-40a.37.37,0,0,1,.52-.08.38.38,0,0,1,.08.53l-29.79,40a.38.38,0,0,1-.3.14Z"/><path class="f" d="M195.5,269.82a.35.35,0,0,1-.29-.15L162.36,227.6a.37.37,0,0,1,.58-.46l32.86,42.07a.38.38,0,0,1-.3.61Z"/><path class="f" d="M106.49,228.8a.38.38,0,0,1-.34-.23.37.37,0,0,1,.21-.49L142,213.89a.38.38,0,0,1,.28.7l-35.62,14.19Z"/><path class="f" d="M151.52,194.67a.36.36,0,0,1-.36-.28l-10.89-44.67a.37.37,0,0,1,.27-.45.38.38,0,0,1,.45.28l10.89,44.66a.37.37,0,0,1-.27.45Z"/><path class="f" d="M96.17,211.23a.35.35,0,0,1-.17,0,.37.37,0,0,1-.16-.5l34-67.79a.38.38,0,0,1,.5-.17.39.39,0,0,1,.17.51L96.5,211a.35.35,0,0,1-.33.23Z"/><path class="f" d="M91.37,208.84a.37.37,0,0,1-.37-.34l-7.75-81a.37.37,0,0,1,.34-.41.36.36,0,0,1,.4.34l7.75,81a.37.37,0,0,1-.33.41Z"/><path class="f" d="M186.9,287a.34.34,0,0,1-.19-.05l-81.83-47.24a.374.374,0,1,1,.37-.65l81.84,47.25a.37.37,0,0,1-.19.69Z"/><path class="f" d="M139.73,126.07a.4.4,0,0,1-.15,0,.38.38,0,0,1-.19-.49l21.79-49.79a.37.37,0,0,1,.49-.19.36.36,0,0,1,.19.49l-21.78,49.79a.38.38,0,0,1-.35.19Z"/><path class="f" d="M243.53,55.74h-.09l-41.35-10.2a.38.38,0,0,1-.28-.45.39.39,0,0,1,.46-.28L243.62,55a.375.375,0,0,1-.09.74Z"/><path class="f" d="M92,103.54a.36.36,0,0,1-.3-.15.38.38,0,0,1,.08-.53l55.59-40.15a.39.39,0,0,1,.53.08.38.38,0,0,1-.09.53L92.26,103.47a.36.36,0,0,1-.26.07Z"/><path class="f" d="M125.21,127a.28.28,0,0,1-.15,0L99.18,114.81a.37.37,0,0,1,.31-.67l25.88,12.11a.37.37,0,0,1,.18.5.38.38,0,0,1-.34.25Z"/><path class="f" d="M146.09,131.86a.4.4,0,0,1-.31-.16.37.37,0,0,1,.09-.52l94-67.13a.373.373,0,1,1,.43.61l-94,67.13a.33.33,0,0,1-.21.07Z"/><path class="f" d="M286.44,286.83h0l-77.17-.05a.36.36,0,0,1,0-.72h0l77.17.06a.36.36,0,1,1,0,.71Z"/></g><path class="m" d="M333.48,353.85a2.89,2.89,0,0,0,1.34,2.23l37.68,21.75a3,3,0,0,0,2.68,0l51.55-29.76a2.53,2.53,0,0,0,0-4.47l-37.67-21.75a3,3,0,0,0-2.69,0l-51.55,29.76A2.89,2.89,0,0,0,333.48,353.85Z"/><path class="n" d="M373.84,375.24v2.91a2.771,2.771,0,0,1-1.34-.32l-37.68-21.75a2.52,2.52,0,0,1-.13-4.38c-.61.43-.56,1.07.13,1.47l37.68,21.75a2.77,2.77,0,0,0,1.34.32Z"/><path class="b" d="M332.22,351.66a2.86,2.86,0,0,1-1.26-2.28V304.43a3,3,0,0,1,1.34-2.33l51.55-29.76a2.52,2.52,0,0,1,3.86,2.23v44.95a3,3,0,0,1-1.34,2.33l-51.55,29.76A2.87,2.87,0,0,1,332.22,351.66Z"/><path class="n" d="M334.67,351.69a2.51,2.51,0,0,1-3.71-2.31v-45a2.78,2.78,0,0,1,.39-1.32l2.52,1.45h0a2.75,2.75,0,0,0-.39,1.32v45C333.48,351.63,334,352,334.67,351.69Z"/><path class="m" d="M333.48,305.88v45c0,.85.6,1.2,1.34.77l51.55-29.76a3,3,0,0,0,1.34-2.33V274.57c0-.86-.6-1.2-1.34-.78l-51.55,29.76A3,3,0,0,0,333.48,305.88Z"/><path class="b" d="M334.82,353.17l37.68,21.74a3,3,0,0,0,2.68,0l51.55-29.75a.83.83,0,0,0,0-1.56l-37.67-21.75a3,3,0,0,0-2.69,0l-51.55,29.76a.83.83,0,0,0,0,1.56Z"/><path class="c" d="M335.55,306.05l49.69-28.69a.5.5,0,0,1,.81.47v38.91a1.78,1.78,0,0,1-.81,1.4l-49.69,28.69a.5.5,0,0,1-.81-.47V307.45a1.78,1.78,0,0,1,.81-1.4Z"/><path class="j" d="M367.66,298.57l-.13-.11h0c-1.9-1.43-4.43-1.36-7.12.19a19.5,19.5,0,0,0-6.89,7.62l-.16.29-.08.15a24.771,24.771,0,0,0-2.95,11.22c0,3.59,1,6.37,2.95,7.81s4.44,1.37,7.13-.18a19.88,19.88,0,0,0,7.14-8.06,24.769,24.769,0,0,0,3-11.22C370.48,302.76,369.48,300,367.66,298.57ZM362,324.19a11.837,11.837,0,0,1-1.11.79l-.47.29-.46.25a10.48,10.48,0,0,1-1.11.49c-4.67,1.69-8.25-1.62-8.3-8.07v-.28a24.551,24.551,0,0,1,3-11l.16-.29a21.1,21.1,0,0,1,5.17-6.38,11.827,11.827,0,0,1,1.11-.79l.46-.29.47-.25a10.482,10.482,0,0,1,1.11-.49,5.53,5.53,0,0,1,5.38.56,1.657,1.657,0,0,1,.16.12c1.69,1.36,2.74,3.92,2.76,7.39v.28C370.22,313.05,366.64,320.49,362,324.19Z"/><path class="j" d="M360.39,326.16c-2.81,1.62-5.46,1.69-7.45.18s-3.09-4.4-3.09-8.16a26,26,0,0,1,3.09-11.72l.08-.16.17-.31a20.5,20.5,0,0,1,7.2-8c2.81-1.62,5.45-1.69,7.44-.2h0l.14.1h0c1.9,1.54,2.95,4.4,2.95,8.06a26,26,0,0,1-3.09,11.72,20.73,20.73,0,0,1-7.44,8.49Zm0-26.63-.44.27c-.35.23-.71.48-1.06.76a20.17,20.17,0,0,0-4.93,6.08l-.15.28A23.369,23.369,0,0,0,351,317.4v.27c0,6.1,3.38,9.34,7.92,7.7a9.81,9.81,0,0,0,1.06-.47c.29-.15.6-.33.89-.51s.71-.49,1.06-.76h0c4.54-3.6,7.87-10.68,7.92-16.84v-.27c0-3.2-1-5.7-2.64-7l-.15-.12a5.26,5.26,0,0,0-5.13-.53,9.81,9.81,0,0,0-1.06.47Z"/><path class="j" d="M367.83,298.25l-.13-.1h0l-.16-.12-.16.31-.16.28a25.263,25.263,0,0,1-1.84,2.88,1.878,1.878,0,0,0-.18.24,18.781,18.781,0,0,1-2.92,3l-.21.16a13.873,13.873,0,0,1-1.43,1,9.68,9.68,0,0,1-1.85.83l-.2.06a5.821,5.821,0,0,1-2.85.15h-.18a4.88,4.88,0,0,1-1.72-.82l-.14-.11-.16-.14-.17.31c0,.09-.11.19-.16.3l-.17.31.16.13.14.11h0a5.369,5.369,0,0,0,1.87.89h.19a6.29,6.29,0,0,0,3.05-.19l.21-.06a10.489,10.489,0,0,0,2-.88,15.643,15.643,0,0,0,1.52-1l.22-.17a19.56,19.56,0,0,0,3.12-3.22l.19-.26a23.783,23.783,0,0,0,2-3.12c.06-.09.11-.19.17-.3l.16-.31Z"/><path class="j" d="M367.83,316.91a.911.911,0,0,1-.16-.11,5.09,5.09,0,0,0-2-.8,1.085,1.085,0,0,0-.19,0,6.51,6.51,0,0,0-3.12.38l-.22.08a10,10,0,0,0-1.52.73,13.549,13.549,0,0,0-1.95,1.37l-.22.18a20.181,20.181,0,0,0-3.05,3.34l-.19.26a27.006,27.006,0,0,0-1.87,3.05v.05c-.05.08-.09.17-.14.26l-.2.3.17.12a1.677,1.677,0,0,0,.16.12l.17.11.16-.32.14-.28a25.379,25.379,0,0,1,1.72-2.81l.18-.25a19.292,19.292,0,0,1,2.85-3.13l.2-.17a12.489,12.489,0,0,1,1.85-1.3,9.808,9.808,0,0,1,1.43-.69l.21-.07a6.15,6.15,0,0,1,2.92-.35h.18a4.78,4.78,0,0,1,1.84.75l.16.1.16.12.16-.3v-.05c0-.08.09-.17.13-.26L368,317Z"/><path class="j" d="M364.22,300.24c-1-2.07-2.37-2.75-3.82-1.91s-2.82,3.09-3.83,6.33a36.391,36.391,0,0,0-1.52,10.52,21.19,21.19,0,0,0,1.52,8.77c1,2.07,2.37,2.75,3.83,1.91s2.81-3.09,3.82-6.33A36.39,36.39,0,0,0,365.74,309a21.19,21.19,0,0,0-1.52-8.76ZM360.4,325c-1.26.73-2.44.09-3.35-1.78a20.24,20.24,0,0,1-1.43-8.32,34.66,34.66,0,0,1,1.43-10c.91-2.92,2.09-4.92,3.35-5.64s2.43-.09,3.34,1.78a20.24,20.24,0,0,1,1.43,8.32,34.662,34.662,0,0,1-1.43,10C362.83,322.23,361.65,324.23,360.4,325Z"/><path class="j" d="M370.38,305.87l-20,11.53a.87.87,0,0,0-.34.68c0,.25.15.4.34.29l20-11.53a.87.87,0,0,0,.34-.68C370.72,305.91,370.57,305.76,370.38,305.87Z"/><path class="j" d="M360.75,325.22V298.6c0-.25-.17-.35-.36-.24a.84.84,0,0,0-.37.66v26.62c0,.25.18.36.37.25A.87.87,0,0,0,360.75,325.22Z"/><path class="m" d="M339.2,352,387,324.38a1.46,1.46,0,0,1,1.35,0l2.44,1.41a.41.41,0,0,1,0,.78L343,354.19a1.5,1.5,0,0,1-1.34,0l-2.44-1.41a.41.41,0,0,1-.02-.78Z"/><path class="n" d="M345.5,355.64,393.35,328a1.44,1.44,0,0,1,1.34,0l15.05,8.69c.37.21.37.56,0,.78L362,365.07a1.47,1.47,0,0,1-1.34,0l-15.11-8.65a.41.41,0,0,1-.05-.78Z"/><path class="b" d="M388.39,340.45l1.5-.87c.06,0,.06-.1,0-.14l-1.73-1a.25.25,0,0,0-.24,0l-1.5.86c-.06,0-.06.1,0,.14l1.73,1a.29.29,0,0,0,.24.01Zm-3-3.44-1.49.87c-.07,0-.06.09,0,.13l1.73,1a.29.29,0,0,0,.24,0l1.49-.87c.07,0,.06-.1,0-.13l-1.74-1a.25.25,0,0,0-.19-.01Zm-4.83,2.79-2.54,1.47c-.06,0-.06.1,0,.14l1.73,1a.25.25,0,0,0,.24,0l2.54-1.46c.06,0,.05-.1,0-.14l-1.74-1a.27.27,0,0,0-.19-.01Zm2.65-1.53-1.5.87c-.07,0-.06.1,0,.14l1.73,1a.25.25,0,0,0,.24,0l1.5-.86c.06,0,.06-.1,0-.14l-1.74-1a.27.27,0,0,0-.19-.01Zm-5.88,3.4-1.5.86c-.06,0-.06.1,0,.14l1.73,1a.29.29,0,0,0,.24,0l1.5-.87c.06,0,.06-.1,0-.14l-1.73-1a.25.25,0,0,0-.2.01Zm-2.19,1.26-1.5.87c-.06,0-.06.09,0,.13l1.73,1a.26.26,0,0,0,.24,0l1.5-.87c.06,0,.06-.09,0-.13l-1.73-1a.26.26,0,0,0-.2,0ZM382,347l1.5-.87c.06,0,.06-.1,0-.13l-1.73-1a.26.26,0,0,0-.24,0l-1.5.87c-.06,0-.06.09,0,.13l1.73,1A.29.29,0,0,0,382,347Zm-2.19,1.26,1.5-.86c.07,0,.06-.1,0-.14l-1.73-1a.29.29,0,0,0-.24,0l-1.5.87c-.06,0-.06.1,0,.14l1.73,1a.25.25,0,0,0,.23-.01Zm-2.19,1.27,1.5-.87c.07,0,.06-.1,0-.14l-1.73-1a.26.26,0,0,0-.24,0l-1.5.86c-.06,0-.06.1,0,.14l1.74,1a.27.27,0,0,0,.22.01Zm-2.19,1.26,1.5-.86c.07,0,.06-.1,0-.14l-1.73-1a.29.29,0,0,0-.24,0l-1.49.87c-.07,0-.06.1,0,.14l1.74,1a.27.27,0,0,0,.21-.01Zm10.78-9.08,1.5-.86c.06,0,.06-.1,0-.14l-1.73-1a.29.29,0,0,0-.24,0l-1.5.87c-.06,0-.06.1,0,.14l1.73,1a.25.25,0,0,0,.23-.01Zm-2,4,3.34-1.93c.07,0,.06-.09,0-.13l-4.21-2.43a.29.29,0,0,0-.24,0l-1.73,1c-.06,0-.06.1,0,.14l2.23,1.28c.07,0,.07.11,0,.14l-1.39.8c-.06,0-.06.1,0,.14l1.73,1a.25.25,0,0,0,.24.01ZM373,344.2l-1.5.86c-.06,0-.06.1,0,.14l1.73,1a.25.25,0,0,0,.24,0l1.5-.86c.06,0,.06-.1,0-.14l-1.73-1A.25.25,0,0,0,373,344.2Zm-2.19,1.26-1.5.86c-.06,0-.06.1,0,.14l1.73,1a.29.29,0,0,0,.24,0l1.5-.87c.06,0,.06-.1,0-.14l-1.73-1a.29.29,0,0,0-.25.01Zm-10.94,14.17a.26.26,0,0,0,.24,0l1.5-.87c.06,0,.06-.09,0-.13l-1.73-1a.26.26,0,0,0-.24,0l-1.5.87c-.06,0-.06.09,0,.13Zm-6.57-4.06-1.5.87c-.07,0-.06.1,0,.13l1.73,1a.26.26,0,0,0,.24,0l1.5-.87c.06,0,.06-.09,0-.13l-1.74-1a.24.24,0,0,0-.24,0Zm3.52,3a.25.25,0,0,0,.24,0l1.5-.86c.06,0,.06-.1,0-.14l-1.73-1a.29.29,0,0,0-.24,0l-1.5.87c-.06,0-.06.1,0,.14Zm6.92,1.86,1.49-.86c.07,0,.06-.1,0-.14l-1.74-1a.29.29,0,0,0-.24,0l-1.49.87c-.07,0-.06.1,0,.14l1.74,1a.26.26,0,0,0,.23-.04Zm-2.43,1.26a.29.29,0,0,0,.24,0l1.49-.87c.07,0,.06-.1,0-.14l-1.74-1a.25.25,0,0,0-.24,0l-1.49.86c-.07,0-.06.1,0,.14Zm-5.82-7.35-1.5.86c-.07,0-.06.1,0,.14l1.73,1a.29.29,0,0,0,.24,0l1.49-.87c.07,0,.06-.1,0-.14l-1.74-1a.24.24,0,0,0-.23-.02ZM366.42,348l-1.5.86c-.06,0-.06.1,0,.14l1.73,1a.29.29,0,0,0,.24,0l1.5-.87c.07,0,.06-.1,0-.14l-1.73-1A.25.25,0,0,0,366.42,348Zm-8.76,5-1.49.87c-.07,0-.06.1,0,.14l1.74,1a.25.25,0,0,0,.24,0l1.49-.86c.07,0,.06-.1,0-.14l-1.74-1a.29.29,0,0,0-.24-.01Zm10.95-6.32-1.5.87c-.06,0-.06.1,0,.14l1.73,1a.25.25,0,0,0,.24,0l1.5-.86c.06,0,.06-.1,0-.14l-1.73-1a.29.29,0,0,0-.24.03Zm-4.38,2.53-1.5.87c-.06,0-.06.1,0,.13l1.74,1a.24.24,0,0,0,.23,0l1.5-.87c.07,0,.06-.09,0-.13l-1.73-1a.26.26,0,0,0-.24.04ZM362,350.52l-1.49.86c-.07,0-.06.1,0,.14l1.74,1a.24.24,0,0,0,.23,0l1.5-.86c.07,0,.06-.1,0-.14l-1.73-1A.25.25,0,0,0,362,350.52Zm-2.19,1.26-1.49.86c-.07,0-.06.1,0,.14l1.74,1a.29.29,0,0,0,.24,0l1.49-.87c.07,0,.06-.1,0-.14l-1.73-1a.29.29,0,0,0-.21.01Zm11.2,1.54,1.49-.87c.07,0,.06-.1,0-.13l-1.74-1a.25.25,0,0,0-.24,0l-1.49.87c-.07,0-.06.09,0,.13l1.73,1a.26.26,0,0,0,.29,0Zm19.22-19.1-1.49.86c-.07,0-.06.1,0,.14l1.73,1a.25.25,0,0,0,.24,0l1.49-.86c.07,0,.06-.1,0-.14l-1.74-1a.25.25,0,0,0-.19,0Zm-2.65,1.53-1.49.86c-.07,0-.06.1,0,.14l1.73,1a.26.26,0,0,0,.24,0l1.49-.86c.07,0,.06-.1,0-.14l-1.74-1a.25.25,0,0,0-.19,0Zm4.84-2.8-1.49.87c-.07,0-.06.1,0,.13l1.74,1a.26.26,0,0,0,.24,0l1.49-.86c.07,0,.06-.1,0-.14l-1.74-1a.29.29,0,0,0-.2.05Zm-11.33,11.69,1.5-.87c.06,0,.06-.1,0-.13l-1.73-1a.26.26,0,0,0-.24,0l-1.5.87c-.06,0-.06.09,0,.13l1.73,1a.29.29,0,0,0,.28,0Zm13.76-12.95a.26.26,0,0,0-.24,0l-1.49.86c-.07,0-.06.1,0,.14l1.74,1a.29.29,0,0,0,.24,0l1.49-.87c.07,0,.06-.1,0-.14ZM373.2,352.05l1.49-.86c.07,0,.06-.1,0-.14l-1.73-1a.25.25,0,0,0-.24,0l-1.49.86c-.07,0-.06.1,0,.14l1.74,1a.25.25,0,0,0,.27,0Zm26.84-15.5,1.5-.86c.07,0,.06-.1,0-.14l-1.73-1a.26.26,0,0,0-.24,0l-1.5.86c-.06,0-.06.1,0,.14l1.74,1a.24.24,0,0,0,.27,0Zm-4.66-.16,1.5-.87c.06,0,.06-.09,0-.13l-1.73-1a.26.26,0,0,0-.24,0l-1.5.87c-.06,0-.06.09,0,.13l1.73,1a.26.26,0,0,0,.28,0Zm1.95-3.27a.25.25,0,0,0-.24,0l-1.5.86c-.06,0-.06.1,0,.14l1.73,1a.25.25,0,0,0,.24,0l1.5-.86c.06,0,.06-.1,0-.14Zm.46-.26,4.2,2.42a.26.26,0,0,0,.24,0l1.5-.87c.07,0,.06-.09,0-.13l-4.2-2.43a.29.29,0,0,0-.24,0l-1.5.87a.091.091,0,0,0,.04.14Zm-5.08,2.78-1.5.87c-.06,0-.06.1,0,.14l1.73,1a.25.25,0,0,0,.24,0l1.5-.86c.06,0,.06-.1,0-.14l-1.73-1a.29.29,0,0,0-.2-.01Zm-16.48,9.52-1.5.86c-.06,0-.06.1,0,.14l1.73,1a.29.29,0,0,0,.24,0l1.5-.87c.06,0,.06-.1,0-.14l-1.73-1a.25.25,0,0,0-.2.01Zm21.39-7.35a.27.27,0,0,0,.23,0l1.5-.87c.07,0,.06-.1,0-.14l-1.73-1a.26.26,0,0,0-.24,0l-1.49.86c-.07,0-.06.1,0,.14Zm-19.2,6.08-1.5.87c-.06,0-.06.1,0,.14l1.73,1a.25.25,0,0,0,.24,0l1.5-.86c.06,0,.06-.1,0-.14l-1.73-1a.29.29,0,0,0-.2-.01Zm-16.41,14.48a.25.25,0,0,0,.24,0l1.5-.86c.06,0,.06-.1,0-.14l-1.73-1a.25.25,0,0,0-.24,0l-1.5.86c-.06,0-.06.1,0,.14Zm-3.29-3.1-1.5.87c-.07,0-.06.09,0,.13l1.73,1a.26.26,0,0,0,.24,0l1.5-.87c.06,0,.06-.09,0-.13l-1.73-1a.26.26,0,0,0-.2,0Zm5.72,1.84,1.5-.86c.06,0,.06-.1,0-.14l-1.73-1a.29.29,0,0,0-.24,0l-1.5.87c-.07,0-.06.1,0,.14l1.73,1a.25.25,0,0,0,.28-.01Zm2.19-1.26,1.5-.87c.06,0,.06-.1,0-.14l-1.74-1a.24.24,0,0,0-.23,0l-1.5.86c-.07,0-.06.1,0,.14l1.73,1a.29.29,0,0,0,.28.01Zm2.19-1.27,1.49-.86c.07,0,.06-.1,0-.14l-1.74-1a.27.27,0,0,0-.23,0l-1.5.87c-.07,0-.06.1,0,.14l1.73,1a.26.26,0,0,0,.29-.01ZM361,354l-1.5.86c-.07,0-.06.1,0,.14l1.73,1a.25.25,0,0,0,.24,0l1.5-.86c.06,0,.06-.1,0-.14l-1.74-1a.24.24,0,0,0-.23,0Zm2.19-1.27-1.5.87c-.07,0-.06.1,0,.14l1.73,1a.26.26,0,0,0,.24,0l1.49-.86c.07,0,.06-.1,0-.14l-1.74-1a.27.27,0,0,0-.27,0Zm8.75-5.05-1.5.86c-.06,0-.06.1,0,.14l1.74,1a.24.24,0,0,0,.23,0l1.5-.86c.07,0,.06-.1,0-.14l-1.73-1a.25.25,0,0,0-.29.01ZM369.7,349l-1.49.87c-.07,0-.06.09,0,.13l1.74,1a.27.27,0,0,0,.23,0l1.5-.87c.07,0,.06-.1,0-.13l-1.73-1a.26.26,0,0,0-.25,0Zm4.38-2.53-1.5.87c-.06,0-.06.1,0,.14l1.73,1a.29.29,0,0,0,.24,0l1.5-.86c.07,0,.06-.1,0-.14l-1.73-1a.29.29,0,0,0-.24-.06Zm-8.76,5.06-1.49.86c-.07,0-.06.1,0,.14l1.74,1a.29.29,0,0,0,.24,0l1.49-.87c.07,0,.06-.1,0-.14l-1.74-1a.25.25,0,0,0-.24-.04Zm2.19-1.27-1.49.87c-.07,0-.06.1,0,.14l1.74,1a.25.25,0,0,0,.24,0l1.49-.86c.07,0,.06-.1,0-.14l-1.73-1a.29.29,0,0,0-.25-.06Zm-1.59,8.93,1.49-.87c.07,0,.06-.1,0-.13l-1.73-1a.26.26,0,0,0-.24,0l-1.49.86c-.07,0-.06.1,0,.14l1.74,1a.29.29,0,0,0,.23-.05Zm-12.85-1.3-1.73-1a.25.25,0,0,0-.24,0l-1.5.86c-.07,0-.06.1,0,.14l1.73,1a.26.26,0,0,0,.24,0l1.5-.86c.07-.09.07-.15,0-.19Zm3.28,1-1.73-1a.25.25,0,0,0-.24,0l-2.31,1.33c-.06,0-.06.1,0,.14l1.73,1a.25.25,0,0,0,.24,0l2.31-1.33c.07-.13.07-.19,0-.23ZM350.41,356l-1.73-1a.29.29,0,0,0-.24,0l-1.85,1c-.06,0,0,.1,0,.13l1.74,1a.24.24,0,0,0,.23,0l1.85-1.06c.07-.07.07-.07,0-.16Zm1.41-.82a.29.29,0,0,0,.24,0l1.5-.87c.06,0,.06-.1,0-.14l-1.73-1a.25.25,0,0,0-.24,0l-1.5.86c-.06,0-.06.1,0,.14Zm7.58,4.81-1.73-1a.25.25,0,0,0-.24,0l-2.88,1.66c-.07,0-.06.1,0,.14l1.73,1a.26.26,0,0,0,.24,0l2.88-1.66c.07-.13.07-.19,0-.23Zm1.44,2-1.74-1a.27.27,0,0,0-.23,0L357,362c-.06,0-.06.1,0,.13l1.73,1a.26.26,0,0,0,.24,0l1.85-1.06c.09-.07.08-.07.02-.14Zm7.26-16.24a.29.29,0,0,0,.24,0l1.5-.87c.06,0,.06-.1,0-.13l-1.73-1a.26.26,0,0,0-.24,0l-1.5.86c-.06,0-.06.1,0,.14Zm-4.38,2.53a.29.29,0,0,0,.24,0l1.5-.87c.06,0,.06-.1,0-.14l-1.73-1a.25.25,0,0,0-.24,0l-1.5.86c-.06,0-.06.1,0,.14ZM354,353.83a.25.25,0,0,0,.24,0l1.5-.86c.06,0,.06-.1,0-.14l-1.73-1a.29.29,0,0,0-.24,0l-1.5.87c-.06,0-.06.1,0,.14Zm11.9-6.87a.25.25,0,0,0,.24,0l1.5-.86c.06,0,.06-.1,0-.14l-1.73-1a.29.29,0,0,0-.24,0l-1.5.87c-.06,0-.06.1,0,.14Zm-4.38,2.53a.29.29,0,0,0,.24,0l1.5-.86c.06,0,.06-.1,0-.14l-1.73-1a.29.29,0,0,0-.24,0l-1.5.87c-.06,0-.06.1,0,.14Zm.51,12.6a.29.29,0,0,0-.24,0l-2.3,1.34c-.07,0-.06.09,0,.13l1.74,1a.26.26,0,0,0,.24,0l2.3-1.33c.06,0,.06-.1,0-.14Zm-3.65-10.79a.25.25,0,0,0,.24,0l1.5-.86c.06,0,.06-.1,0-.14l-1.73-1a.25.25,0,0,0-.24,0l-1.5.86c-.06,0-.06.1,0,.14Zm-2.19,1.26a.29.29,0,0,0,.24,0l1.5-.87c.06,0,.06-.1,0-.13l-1.73-1a.26.26,0,0,0-.24,0l-1.5.87c-.06,0-.06.09,0,.13Zm46.4-13.89a.25.25,0,0,0-.24,0l-3.69,2.13c-.06,0-.06.09,0,.13l1.74,1a.24.24,0,0,0,.23,0l3.69-2.13c.07,0,.06-.1,0-.14Zm-4.84,2.8a.26.26,0,0,0-.24,0l-1.5.87c-.06,0-.06.09,0,.13l1.74,1a.24.24,0,0,0,.23,0l1.5-.87c.07,0,.06-.09,0-.13Zm-29.66,16.4,1.5-.86c.07,0,.06-.1,0-.14l-1.73-1a.26.26,0,0,0-.24,0l-1.49.86c-.07,0-.06.1,0,.14l1.74,1a.24.24,0,0,0,.23,0ZM393.38,344a.26.26,0,0,0-.24,0l-1.49.86c-.07,0-.06.1,0,.14l1.74,1a.29.29,0,0,0,.24,0l1.49-.87c.07,0,.06-.1,0-.14Zm11.41-6.58a.29.29,0,0,0-.24,0l-1.5.87c-.06,0-.06.1,0,.14l1.73,1a.25.25,0,0,0,.24,0l1.5-.86c.06,0,.06-.1,0-.14Zm3.92-.27-4.2-2.43a.29.29,0,0,0-.24,0l-1.5.86c-.07,0-.06.1,0,.14l4.2,2.43a.29.29,0,0,0,.24,0l1.5-.87c.07-.04.07-.1,0-.14ZM385.2,348.72a.29.29,0,0,0-.24,0l-1.84,1.07c-.06,0-.06.1,0,.14l1.73,1a.26.26,0,0,0,.24,0l1.84-1.06c.07,0,.06-.1,0-.14Zm5.53-3.2a.26.26,0,0,0-.24,0l-2.3,1.33c-.06,0-.06.1,0,.14l1.73,1a.26.26,0,0,0,.24,0l2.3-1.33c.07,0,.06-.1,0-.14Zm-10.6,6.12a.29.29,0,0,0-.24,0l-12.33,7.12c-.06,0-.06.1,0,.14l1.73,1a.25.25,0,0,0,.24,0l12.33-7.12c.07,0,.06-.1,0-.14Zm-13,7.52a.25.25,0,0,0-.24,0L365,360.22c-.07,0-.06.1,0,.14l1.73,1a.25.25,0,0,0,.24,0l1.84-1.06c.06,0,.06-.1,0-.14Zm15.56-9a.25.25,0,0,0-.24,0l-1.85,1.06c-.06,0-.06.1,0,.14l1.73,1a.25.25,0,0,0,.24,0l1.85-1.06c.06,0,.06-.1,0-.14ZM364.6,360.61a.26.26,0,0,0-.24,0l-1.85,1.07c-.06,0-.06.09,0,.13l1.73,1a.26.26,0,0,0,.24,0l1.85-1.07c.06,0,.06-.09,0-.13Zm23.16-13.38a.25.25,0,0,0-.24,0l-1.85,1.06c-.06,0-.06.1,0,.14l1.73,1a.29.29,0,0,0,.24,0l1.85-1.07c.06,0,.06-.1,0-.14Zm7.83-4.52a.25.25,0,0,0-.24,0l-1.49.86c-.07,0-.06.1,0,.14l1.74,1a.24.24,0,0,0,.23,0l1.5-.86c.07,0,.06-.1,0-.14Zm4.8-3.48,1.5-.87c.06,0,.06-.1,0-.14l-1.73-1a.25.25,0,0,0-.24,0l-1.5.86c-.06,0-.06.1,0,.14l1.73,1a.29.29,0,0,0,.22.03Zm-9.79-.07,1.5-.86c.06,0,.06-.1,0-.14l-1.73-1a.25.25,0,0,0-.24,0l-1.5.86c-.06,0-.06.1,0,.14l1.73,1a.25.25,0,0,0,.22.02Zm-5,8.58,4.38-2.53c.06,0,.06-.09,0-.13l-1.73-1a.26.26,0,0,0-.24,0l-4.38,2.53c-.06,0-.06.1,0,.14l1.73,1a.25.25,0,0,0,.26.01Zm12.32-7.25a.29.29,0,0,0,.24,0l1.5-.86c.06,0,.06-.1,0-.14l-1.73-1a.29.29,0,0,0-.24,0l-1.5.87c-.06,0-.06.1,0,.14Zm-2.23-1.43,1.49-.86c.07,0,.06-.1,0-.14l-1.73-1a.29.29,0,0,0-.24,0l-1.49.87c-.07,0-.06.1,0,.14l1.74,1a.25.25,0,0,0,.25.01ZM383.43,349l1.5-.87c.06,0,.06-.1,0-.14l-1.73-1a.25.25,0,0,0-.24,0l-1.5.86c-.06,0-.06.1,0,.14l1.73,1a.29.29,0,0,0,.24.01Zm9.67-5.73a.25.25,0,0,0,.24,0l1.5-.86c.06,0,.06-.1,0-.14l-1.73-1a.25.25,0,0,0-.24,0l-1.5.86c-.06,0-.06.1,0,.14Zm-20.62,12.05,1.5-.87c.07,0,.06-.1,0-.14l-1.73-1a.26.26,0,0,0-.24,0l-1.5.86c-.06,0-.06.1,0,.14l1.73,1a.29.29,0,0,0,.24.04Zm2.19-1.27,1.5-.86c.06,0,.06-.1,0-.14l-1.73-1a.29.29,0,0,0-.24,0l-1.5.87c-.06,0-.06.1,0,.14l1.73,1a.25.25,0,0,0,.24.02Zm-4.38,2.53,1.5-.87c.07,0,.06-.09,0-.13l-1.73-1a.29.29,0,0,0-.24,0l-1.5.87c-.06,0-.06.1,0,.13l1.74,1a.27.27,0,0,0,.23.03Zm8.76-5.06,1.5-.86c.06,0,.06-.1,0-.14l-1.73-1a.25.25,0,0,0-.24,0l-1.5.86c-.06,0-.06.1,0,.14l1.73,1a.25.25,0,0,0,.24.03Zm-2.19,1.27,1.5-.87c.06,0,.06-.1,0-.14l-1.73-1a.29.29,0,0,0-.24,0l-1.5.86c-.06,0-.06.1,0,.14l1.73,1a.29.29,0,0,0,.24.04Zm4.38-2.53,1.5-.87c.06,0,.06-.09,0-.13l-1.73-1a.26.26,0,0,0-.24,0l-1.5.87c-.06,0-.06.1,0,.13l1.73,1a.26.26,0,0,0,.24.03Zm10-18.7a.29.29,0,0,0,.24,0l1.49-.87c.07,0,.06-.1,0-.14l-.47-.26a.24.24,0,0,0-.23,0l-1.5.87c-.07,0-.06.09,0,.13Zm-10.77,7a.24.24,0,0,0,.23,0l1.5-.87c.07,0,.06-.1,0-.13l-1.73-1a.26.26,0,0,0-.24,0l-1.5.87c-.06,0-.06.09,0,.13Zm4.37-2.52a.29.29,0,0,0,.24,0l1.5-.86c.06,0,.06-.1,0-.14l-1.73-1a.29.29,0,0,0-.24,0l-1.5.87c-.06,0-.06.1,0,.14Zm-7.05,4.07a.25.25,0,0,0,.24,0l1.5-.86c.06,0,.06-.1,0-.14l-1.73-1a.29.29,0,0,0-.24,0l-1.5.87c-.06,0-.06.1,0,.14Zm4.86-2.81a.25.25,0,0,0,.24,0l1.5-.86c.07,0,.06-.1,0-.14l-1.73-1a.26.26,0,0,0-.24,0l-1.5.86c-.06,0-.06.1,0,.14Zm-9.24,5.33a.26.26,0,0,0,.24,0l1.5-.86c.06,0,.06-.1,0-.14l-1.73-1a.29.29,0,0,0-.24,0l-1.5.87c-.06,0-.06.1,0,.13Zm2.19-1.26a.29.29,0,0,0,.24,0l1.5-.87c.06,0,.06-.1,0-.14l-1.73-1a.25.25,0,0,0-.24,0l-1.5.86c-.06,0-.06.1,0,.14Zm11.26-7.23a.25.25,0,0,0,.24,0l1.5-.86c.06,0,.06-.1,0-.14l-.46-.27a.25.25,0,0,0-.24,0l-1.5.86c-.06,0-.06.1,0,.14Zm6.57-3.79a.26.26,0,0,0,.24,0l1.49-.86c.07,0,.06-.1,0-.14l-.47-.27a.24.24,0,0,0-.23,0l-1.5.86c-.07,0-.06.1,0,.14Zm3.64,2.1a.24.24,0,0,0,.23,0l1.5-.86c.07,0,.06-.1,0-.14l-1.73-1a.29.29,0,0,0-.24,0l-1.5.87c-.06,0-.06.1,0,.14Zm5.47,5.55,1.5-.86c.06,0,.06-.1,0-.14l-1.73-1a.29.29,0,0,0-.24,0l-1.5.87c-.06,0-.06.1,0,.14l1.73,1a.25.25,0,0,0,.26-.01Zm-13.49-5.13a.26.26,0,0,0,.24,0l1.5-.87c.06,0,.05-.09,0-.13l-.46-.27a.25.25,0,0,0-.24,0l-1.5.86c-.07,0-.06.1,0,.14Zm-17.83,11a.25.25,0,0,0,.24,0L373,343c.06,0,.06-.1,0-.14l-1.73-1a.25.25,0,0,0-.24,0l-1.5.86c-.06,0-.06.1,0,.14Z"/><path class="n" d="M381,357l14.79-8.53a1.76,1.76,0,0,1,1.61,0l8.48,4.89a.49.49,0,0,1,0,.93L391,362.85a1.82,1.82,0,0,1-1.61,0L381,358a.5.5,0,0,1,0-1Z"/><path class="n" d="M127.11,363.14,116,356.72a2.9,2.9,0,0,1-1.71-2.39v-1.54l11.52-6.5a2.44,2.44,0,0,0,1.11-1.91V330.69l19.39,11.2v13.69a2.44,2.44,0,0,1-1.1,1.92l-9.8,5.64A9.11,9.11,0,0,1,127.11,363.14Z"/><path class="o" d="M141.65,358v1.54l3.55-2.05a2.45,2.45,0,0,0,1.11-1.92V341.89l-3.7-2.13c-.08.94-.16,1.91-.24,2.86l2.6,1.49v10.7a2.43,2.43,0,0,1-1.11,1.91Z"/><path class="b" d="M145,354.81a2.46,2.46,0,0,1-1.11,1.92l-8.46,4.87a9.17,9.17,0,0,1-8.29,0L116,355.18c-2.29-1.32-2.29-3.46,0-4.78l8.47-4.88a2.43,2.43,0,0,0,1.1-1.91v-10.7L145,344.12Z"/><path class="m" d="M122.21,346.82h0l2.26-1.3a2.43,2.43,0,0,0,1.1-1.91v-10.7L145,344.12v10.69a2.46,2.46,0,0,1-1.11,1.92L141.65,358Z"/><path class="m" d="M114.29,352.79v1.54a2.93,2.93,0,0,0,1.71,2.4l11.11,6.41a8.2,8.2,0,0,0,4,1v-1.53a8.2,8.2,0,0,1-4-1L116,355.18a2.9,2.9,0,0,1-1.71-2.39Z"/><path class="b" d="M95.63,262v59.52a3.09,3.09,0,0,0,1.38,2.4l75.89,43.73.13.06h0c.68.3,1.21-.07,1.21-.88V368a2.569,2.569,0,0,0,1.3-.29,3,3,0,0,0,1.29-2.35V305.85a3.06,3.06,0,0,0-1.38-2.39L99.61,259.73a3,3,0,0,0-2.68-.05,2.93,2.93,0,0,0-1.28,2.1A1.938,1.938,0,0,0,95.63,262Z"/><path class="m" d="M95.63,262v59.52a3.09,3.09,0,0,0,1.38,2.4l75.89,43.73.13.06h0c.68.3,1.21-.07,1.21-.88V307.35a3.07,3.07,0,0,0-1.38-2.4L97,261.22c-.69-.4-1.26-.14-1.36.56A1.938,1.938,0,0,0,95.63,262Z"/><path class="n" d="M174.28,366.87v-4.05l2.59-1.5v4.05a3,3,0,0,1-1.29,2.35,2.57,2.57,0,0,1-1.3.29,1.621,1.621,0,0,1-.31,0h-.31l-.24-.06h-.08l-.23-.1C173.75,368.05,174.28,367.68,174.28,366.87Z"/><path class="b" d="M95.63,317.48v4.06a3.09,3.09,0,0,0,1.38,2.4l75.89,43.73.13.06h0c.68.3,1.21-.07,1.21-.88V362.8Z"/><path class="n" d="M173.88,306a2.8,2.8,0,0,1,.4,1.36v55.48l2.6-1.5V305.85a2.8,2.8,0,0,0-.4-1.36Z"/><path class="c" d="M171.69,355.89V308.21a1.83,1.83,0,0,0-.83-1.44L99.05,265.39c-.45-.26-.82-.05-.82.48v47.68a1.83,1.83,0,0,0,.83,1.44l71.81,41.37C171.32,356.63,171.69,356.41,171.69,355.89Z"/><path class="j" d="M122.15,303.49a31.52,31.52,0,0,0,3.75,14.24c2.42,4.62,5.64,8.25,9.06,10.22s6.63,2.06,9,.23,3.75-5.35,3.75-9.91A31.52,31.52,0,0,0,144,304c0-.06-.07-.12-.1-.19l-.2-.37a24.85,24.85,0,0,0-8.7-9.64c-3.41-2-6.62-2.05-9-.24h0l-.17.13C123.42,295.57,122.15,299,122.15,303.49Zm.27.33v-.36c0-4.41,1.37-7.66,3.51-9.38a1.3,1.3,0,0,1,.2-.15,7,7,0,0,1,6.83-.71,12.144,12.144,0,0,1,1.41.62l.59.32.59.36a16.619,16.619,0,0,1,1.41,1,26.8,26.8,0,0,1,6.56,8.09l.2.37a31.09,31.09,0,0,1,3.77,13.95v.36c-.06,8.19-4.61,12.39-10.53,10.24a12.141,12.141,0,0,1-1.41-.62l-.59-.32-.59-.36a13.632,13.632,0,0,1-1.41-1c-5.96-4.69-10.47-14.14-10.54-22.41Z"/><path class="j" d="M125.49,318a32.88,32.88,0,0,1-3.92-14.88c0-4.64,1.33-8.27,3.75-10.22h0l.17-.14h0c2.53-1.89,5.88-1.79,9.44.26a26.223,26.223,0,0,1,9.15,10.11l.21.38.1.2a32.92,32.92,0,0,1,3.92,14.89c0,4.77-1.39,8.44-3.92,10.35s-5.89,1.83-9.46-.23S128,322.87,125.49,318Zm8.9-23.4a11.91,11.91,0,0,0-1.34-.59,6.65,6.65,0,0,0-6.52.67l-.18.14c-2.13,1.72-3.32,4.9-3.35,8.95v.35c.06,7.82,4.29,16.8,10.05,21.37h0a15.131,15.131,0,0,0,1.35,1,11.583,11.583,0,0,0,1.12.65,11.288,11.288,0,0,0,1.35.59c5.76,2.09,10-2,10-9.76a1.086,1.086,0,0,0,0-.18,1,1,0,0,0,0-.17,29.49,29.49,0,0,0-3.6-13.3,3.905,3.905,0,0,0-.19-.35,25.42,25.42,0,0,0-6.25-7.72q-.68-.53-1.35-1l-.56-.35Z"/><path class="j" d="M125.52,293.31l.17-.13h0l.21-.14.21.38c.06.13.13.25.19.36a30.357,30.357,0,0,0,2.34,3.65l.23.31a22.659,22.659,0,0,0,3.71,3.84l.26.21a15.735,15.735,0,0,0,1.82,1.23A11.719,11.719,0,0,0,137,304l.26.08a7.34,7.34,0,0,0,3.61.19l.23-.05a6.18,6.18,0,0,0,2.18-1l.19-.15.2-.16.22.39.2.38.21.39-.2.17-.18.14h0a6.519,6.519,0,0,1-2.38,1.13,2.1,2.1,0,0,1-.24.06,7.94,7.94,0,0,1-3.87-.23l-.27-.09a12.86,12.86,0,0,1-2.48-1.12,17.28,17.28,0,0,1-1.94-1.3l-.27-.22a24.14,24.14,0,0,1-4-4.09l-.25-.32a32.707,32.707,0,0,1-2.54-4c-.07-.12-.13-.25-.2-.38l-.21-.4Z"/><path class="j" d="M125.53,317l.2-.14a6.41,6.41,0,0,1,2.54-1h.25a8.441,8.441,0,0,1,4,.49l.27.1a12.673,12.673,0,0,1,1.94.93,16.861,16.861,0,0,1,2.47,1.74,2.6,2.6,0,0,1,.28.23,25.62,25.62,0,0,1,3.87,4.23l.24.34a35,35,0,0,1,2.38,3.87h0l.18.34.2.4-.21.15-.2.14-.22.15-.2-.41c-.06-.1-.12-.22-.19-.36a31.6,31.6,0,0,0-2.18-3.56l-.23-.31a23.762,23.762,0,0,0-3.62-4l-.25-.22a17,17,0,0,0-2.34-1.65,12.107,12.107,0,0,0-1.83-.87l-.25-.1a8,8,0,0,0-3.71-.43h-.23a6.2,6.2,0,0,0-2.34.94l-.19.14-.21.15-.21-.39v-.06l-.17-.33-.2-.4Z"/><path class="j" d="M128.17,307a46.379,46.379,0,0,0,1.93,13.36c1.29,4.11,3,7,4.86,8s3.57.21,4.85-2.43,1.93-6.51,1.93-11.12a46,46,0,0,0-1.93-13.36c-1.28-4.11-3-7-4.85-8s-3.57-.21-4.86,2.42S128.17,302.35,128.17,307Zm2.55,13a44,44,0,0,1-1.82-12.66c0-4.38.65-8.14,1.82-10.56s2.65-3.18,4.24-2.26,3.09,3.46,4.24,7.16a44,44,0,0,1,1.8,12.7c0,4.38-.64,8.13-1.81,10.56s-2.65,3.18-4.24,2.26S131.86,323.74,130.72,320Z"/><path class="j" d="M122.29,303l25.34,14.63a1.12,1.12,0,0,1,.43.87c0,.31-.19.5-.43.37l-25.34-14.64a1.11,1.11,0,0,1-.44-.86C121.85,303,122.05,302.84,122.29,303Z"/><path class="j" d="M134.5,327.54V293.75c0-.32.23-.45.47-.31a1.13,1.13,0,0,1,.46.84v33.8c0,.31-.23.44-.46.31A1.11,1.11,0,0,1,134.5,327.54Z"/><path class="c" d="M71.42,359.54a.73.73,0,0,1,.44-.62l17.82-10.28a2.33,2.33,0,0,1,2.12,0l54.37,31.44a.73.73,0,0,1,.44.61v1.87a.73.73,0,0,1-.44.62l-17.81,10.28a2.33,2.33,0,0,1-2.12,0L71.86,362.07a.73.73,0,0,1-.44-.61C71.41,361.23,71.42,359.76,71.42,359.54Z"/><path class="p" d="M71.42,359.54a.73.73,0,0,1,.44-.62l17.82-10.28a2.33,2.33,0,0,1,2.12,0l54.37,31.44a.73.73,0,0,1,.44.61v1.87a.73.73,0,0,1-.44.62l-17.81,10.28a2.33,2.33,0,0,1-2.12,0L71.86,362.07a.73.73,0,0,1-.44-.61C71.41,361.23,71.42,359.76,71.42,359.54Z"/><path class="c" d="M128.36,391.55l17.81-10.24a.65.65,0,0,0,0-1.23L91.8,348.64a2.33,2.33,0,0,0-2.12,0L71.86,358.92a.65.65,0,0,0,0,1.23l54.38,31.39a2.36,2.36,0,0,0,2.12.01Z"/><path class="o" d="M128.36,391.55l17.81-10.24a.65.65,0,0,0,0-1.23L91.8,348.64a2.33,2.33,0,0,0-2.12,0L71.86,358.92a.65.65,0,0,0,0,1.23l54.38,31.39a2.36,2.36,0,0,0,2.12.01Z"/><path class="c" d="M127.37,391.8v1.91a2.18,2.18,0,0,0,1-.25l17.8-10.28a.73.73,0,0,0,.44-.61v-1.88a.76.76,0,0,1-.44.62l-17.8,10.24A2.18,2.18,0,0,1,127.37,391.8Z"/><path class="q" d="M127.37,391.8v1.91a2.18,2.18,0,0,0,1-.25l17.8-10.28a.73.73,0,0,0,.44-.61v-1.88a.76.76,0,0,1-.44.62l-17.8,10.24A2.18,2.18,0,0,1,127.37,391.8Z"/><path class="m" d="M123.41,372.76l-2,1.17a.435.435,0,0,0-.06.07l1.81,1.09,2.13-1.27Z"/><path class="m" d="M125.85,374.17l-2,1.18a.07.07,0,0,0,0,.07h0l1.79,1,2.13-1.26Z"/><path class="m" d="M119.29,370.38l-2,1.18s-.05,0-.05.07l3,1.75,2.13-1.26Z"/><path class="m" d="M116.85,369l-2,1.18a.08.08,0,0,0,0,.07l1.8,1.08L118.7,370Z"/><path class="m" d="M84.89,362.53l1.8,1.08,2.13-1.26L87,361.28l-2,1.18a.09.09,0,0,0-.11.07Z"/><path class="m" d="M114.41,367.56l-2,1.17s-.06.06-.06.08l1.81,1.08,2.13-1.26Z"/><path class="m" d="M122.49,375.42l-1.84-1.07-2,1.18v.07l1.81,1.08Z"/><path class="m" d="M105.9,371.48l1.81,1.08,2.12-1.26L108,370.23l-2,1.18S105.9,371.45,105.9,371.48Z"/><path class="m" d="M121,377l1.8,1.08,2.13-1.26-1.85-1.07-2,1.18a.08.08,0,0,0-.08.07Z"/><path class="m" d="M103.46,370.07l1.8,1.08,2.13-1.26-1.85-1.07-2,1.17S103.46,370.05,103.46,370.07Z"/><path class="m" d="M101,368.66l1.8,1.08,2.13-1.26-1.85-1.07-2,1.18A.08.08,0,0,0,101,368.66Z"/><path class="m" d="M110.79,374.3l3.86,2.27,4.89-2.86-2.11-1.21-2.58,1.5a.34.34,0,0,1-.18,0,.29.29,0,0,1-.17,0l-1.63-.94-2,1.17S110.79,374.28,110.79,374.3Z"/><path class="m" d="M109.52,364.74l-2,1.18v.07l1.8,1.08,2.13-1.26Z"/><path class="m" d="M108.35,372.89l1.8,1.08,2.13-1.26-1.85-1.07-2,1.17C108.35,372.84,108.35,372.87,108.35,372.89Z"/><path class="m" d="M86,356.82l1.8,1.08,2.2-1.26-1.85-1.07-2,1.17a.09.09,0,0,0-.15.08Z"/><path class="m" d="M90,353.46l-2,1.18a.08.08,0,0,0,0,.07h0l1.79,1,2.13-1.26Z"/><path class="m" d="M83.92,358.78v.05l1.79,1,2.13-1.27L86,357.54l-2,1.18A.08.08,0,0,0,83.92,358.78Z"/><path class="m" d="M80,359.71l1.81,1.08,2.12-1.26-1.85-1.07-2,1.17a.11.11,0,0,0-.08.08Z"/><path class="m" d="M92.42,354.87l-2,1.18v.07l1.81,1.08,2.12-1.26Z"/><path class="m" d="M82.44,361.12l1.81,1.08,2.12-1.26-1.84-1.07-2,1.18a.1.1,0,0,0-.09.07Z"/><path class="m" d="M99.75,359.1l-2,1.18v.07l1.8,1.08,2.13-1.26Z"/><path class="m" d="M102.2,360.51l-2,1.17a.1.1,0,0,0,0,.08l1.8,1.08,2.13-1.26Z"/><path class="m" d="M104.64,361.92l-2,1.17s-.06.06-.06.08l1.81,1.08,2.12-1.26Z"/><path class="m" d="M97.31,357.69l-2,1.17a.08.08,0,0,0,0,.08L97,360l2.13-1.26Z"/><path class="m" d="M107.08,363.33l-2,1.18a.09.09,0,0,0,0,.07l1.8,1.08,2.13-1.26Z"/><path class="m" d="M94.87,356.28l-2,1.18v.07l1.81,1.08,2.12-1.26Z"/><path class="m" d="M112,366.15l-2,1.18a.1.1,0,0,0,0,.07l1.81,1.08,2.12-1.26Z"/><path class="m" d="M112.55,369.68l-2,1.17a.09.09,0,0,0-.06.07V371l1.8,1,2.12-1.26Z"/><path class="m" d="M131.25,377.29l-2,1.17c-.05,0-.05.06-.05.07l1.8,1.08,2.13-1.26Z"/><path class="m" d="M133.69,378.7l-2,1.17a.1.1,0,0,0,0,.07l1.8,1.08,2.13-1.26Z"/><path class="m" d="M110.1,368.27l-2,1.17a.11.11,0,0,0,0,.07l1.81,1.08,2.12-1.26Z"/><path class="m" d="M136.14,380.11l-2,1.17c-.05,0-.06.06-.06.07l1.81,1.08,2.12-1.26Z"/><path class="m" d="M112.91,372.33v.05l1.79,1,2.13-1.26L115,371.09l-2,1.17A.55.55,0,0,0,112.91,372.33Z"/><path class="m" d="M128.49,378.88l-2,1.17c-.06,0-.06.06-.06.08l1.8,1.08,2.13-1.26Z"/><path class="m" d="M133.38,381.7l-2,1.17s-.06.06-.06.08L133.1,384l2.12-1.26Z"/><path class="m" d="M128.85,381.54l1.8,1.08,2.13-1.26-1.85-1.07-2,1.18S128.85,381.51,128.85,381.54Z"/><path class="m" d="M131,385.88a.13.13,0,0,0,0,.07V386l1.8,1,4.89-2.85-1.85-1.07Z"/><path class="m" d="M107.66,366.86l-2,1.17a.09.09,0,0,0,0,.07h0l1.79,1,2.13-1.26Z"/><path class="m" d="M126.09,383.13h0l1.79,1L130,383l-1.85-1.07-2,1.18a.08.08,0,0,0-.06.02Z"/><path class="m" d="M128.53,384.54l1.81,1.08,2.12-1.26-1.85-1.07-2,1.17C128.54,384.49,128.53,384.52,128.53,384.54Z"/><path class="m" d="M95.45,359.8l-2,1.17s-.06.06-.06.08l1.81,1.08,2.13-1.26Z"/><path class="m" d="M90.56,357l-2,1.17c-.05,0-.06.06-.06.08h0l1.79,1,2.13-1.26Z"/><path class="m" d="M88.8,361.61l1.81,1.08,2.12-1.26-1.84-1.07-2,1.18a.08.08,0,0,0-.09.07Z"/><path class="m" d="M86.36,360.19l1.81,1.09L90.29,360l-1.84-1-2,1.18a.07.07,0,0,0-.09.01Z"/><path class="m" d="M91.25,363h0l1.79,1,2.13-1.26-1.85-1.07-2,1.17Z"/><path class="m" d="M105.22,365.44l-2,1.18v.12l1.8,1,2.13-1.26Z"/><path class="m" d="M96.13,365.84l1.81,1.08,2.12-1.26-1.84-1.07-2,1.17S96.13,365.82,96.13,365.84Z"/><path class="m" d="M93.69,364.43l1.8,1.08,2.13-1.26-1.85-1.07-2,1.18S93.69,364.4,93.69,364.43Z"/><path class="m" d="M100.33,362.62l-2,1.18s-.06.05-.06.07l1.81,1.08,2.12-1.26Z"/><path class="m" d="M93,358.39l-2,1.17s-.06.06-.06.08l1.81,1.08,2.12-1.26Z"/><path class="m" d="M102.78,364l-2,1.18a.09.09,0,0,0-.06.07l1.81,1.08,2.12-1.26Z"/><path class="m" d="M97.89,361.21l-2,1.17a.1.1,0,0,0,0,.08h0l1.79,1,2.13-1.26Z"/><path class="m" d="M98.57,367.25l1.81,1.08,2.13-1.26L100.66,366l-2,1.17a.1.1,0,0,0-.09.08Z"/><path class="m" d="M128.29,375.58l-2,1.18s-.05,0-.05.07l1.8,1.08,2.13-1.26Z"/><path class="m" d="M89.39,353.12l-1.85-1.07-2,1.18a.08.08,0,0,0,0,.07h0l1.8,1Z"/><path class="m" d="M87.53,355.23l-2.75-1.59-2,1.18v.07h0l2.7,1.56Z"/><path class="m" d="M93.12,351.4l-2.23-1.29-2,1.18a.07.07,0,0,0,0,.07l2.19,1.3Z"/><path class="m" d="M81.49,358.12l-2.23-1.29-2,1.17s-.06.06-.06.08l2.19,1.3Z"/><path class="m" d="M85.41,357.19,82,355.24l-2,1.17a.1.1,0,0,0,0,.07h0l3.34,1.93Z"/><path class="m" d="M92.7,353.61l1.8,1.08,2.13-1.26-1.85-1.07-2,1.17A.08.08,0,0,0,92.7,353.61Z"/><path class="m" d="M76.49,358.43l-2,1.17a.062.062,0,0,0-.06.07l2.71,1.6,2.1-1.27Z"/><path class="m" d="M95.14,355l1.8,1.08,2.13-1.26-1.85-1.07-2,1.18a.1.1,0,0,0-.08.07Z"/><path class="m" d="M106,361.27v.05l1.8,1,2.12-1.26L108.06,360l-2,1.17a.1.1,0,0,0-.06.1Z"/><path class="m" d="M108.42,362.68l1.8,1.08,2.13-1.26-1.85-1.06-2,1.17S108.42,362.67,108.42,362.68Z"/><path class="m" d="M103.53,359.86v.05l1.8,1,2.12-1.26-1.85-1.06-2,1.17A.09.09,0,0,0,103.53,359.86Z"/><path class="m" d="M100,357.84h0l1.8,1,2.13-1.26-1.85-1.07-2,1.18a.085.085,0,0,0-.08.15Z"/><path class="m" d="M97.58,356.43l1.81,1.08,2.12-1.26-1.84-1.07-2,1.18S97.58,356.4,97.58,356.43Z"/><path class="m" d="M125.09,386.48l-2,1.18a.09.09,0,0,0,0,.07h0l1.79,1,2.13-1.26Z"/><path class="m" d="M112.37,379.13l-2,1.17s-.06.06-.06.08l1.8,1.08,2.13-1.26Z"/><path class="m" d="M120.21,383.66l-2,1.17a.11.11,0,0,0-.06.08h0l4.24,2.45,2.13-1.26Z"/><path class="m" d="M114.81,380.54l-2,1.17s-.06.06-.06.08l1.81,1.08,2.12-1.26Z"/><path class="m" d="M117.25,382l-2,1.17c-.06,0-.06.06-.06.08l1.8,1.08L119.1,383Z"/><path class="m" d="M110.86,364.09v.05l1.79,1,2.13-1.26-1.85-1.06-2,1.17A.09.09,0,0,0,110.86,364.09Z"/><path class="m" d="M132.14,387.37l-1.84-1.07-4.81,2.77a.13.13,0,0,0,0,.07h0l1.8,1Z"/><path class="m" d="M82.67,362l-2,1.17a.435.435,0,0,0-.06.07l2.19,1.31,2.13-1.26Z"/><path class="m" d="M85.49,363.62l-2,1.17s-.06.06-.06.08h0l13.88,8,2.13-1.27Z"/><path class="m" d="M87.33,363.94l1.8,1.08,2.13-1.26-1.85-1.07-2,1.18a.1.1,0,0,0-.08.07Z"/><path class="m" d="M79.84,360.36l-2,1.17s-.06.05-.06.07l2.19,1.3,2.13-1.26Z"/><path class="m" d="M100,372l-2,1.17a.1.1,0,0,0,0,.08h0l2.18,1.26,2.13-1.26Z"/><path class="m" d="M105.68,375.27l-2,1.18a.08.08,0,0,0,0,.07h0l2.19,1.26,2.12-1.26Z"/><path class="m" d="M102.85,373.64l-2,1.18a.08.08,0,0,0,0,.07l2.19,1.3,2.12-1.26Z"/><path class="m" d="M108.51,376.91l-2,1.17a.435.435,0,0,0-.06.07v.05l2.7,1.55,2.13-1.26Z"/><path class="m" d="M123.45,378.42h0l1.79,1,2.13-1.26-1.85-1.07-2,1.18A.712.712,0,0,0,123.45,378.42Z"/><path class="m" d="M115.48,380.2h0l1.8,1,2.13-1.26-1.84-.94-2,1.17a.1.1,0,0,0-.09.03Z"/><path class="m" d="M106.87,375.22l5,2.94L114,376.9l-5-2.9-2,1.18a.068.068,0,0,0-.13.04Z"/><path class="m" d="M120.88,383.31v.05l1.8,1,2.13-1.27L123,382.07l-2,1.18a.07.07,0,0,0-.12.06Z"/><path class="m" d="M123.33,384.72h0l1.79,1,2.13-1.27-1.85-1.06-2,1.17S123.33,384.71,123.33,384.72Z"/><path class="m" d="M104.43,373.81l1.8,1.08,2.13-1.26-1.85-1.06-2,1.17A.1.1,0,0,0,104.43,373.81Z"/><path class="m" d="M123.65,381.72h0l1.8,1,2.12-1.26-1.84-1.07-2,1.17C123.65,381.67,123.65,381.7,123.65,381.72Z"/><path class="m" d="M92.21,366.76,94,367.84l2.12-1.26-1.84-1.06-2,1.17A.1.1,0,0,0,92.21,366.76Z"/><path class="m" d="M102,372.4l1.81,1.08,2.13-1.26-1.85-1.06-2,1.18S102,372.37,102,372.4Z"/><path class="m" d="M89.77,365.35h0l1.8,1,2.12-1.26-1.84-1.06-2,1.17a.1.1,0,0,0-.08.15Z"/><path class="m" d="M94.66,368.17l1.8,1.08L98.59,368l-1.85-1.06-2,1.18a.07.07,0,0,0-.08.05Z"/><path class="m" d="M97.1,369.58v.05l1.8,1,2.1-1.23-1.85-1.06-2,1.17a.09.09,0,0,0-.05.07Z"/><path class="m" d="M99.54,371h0l1.8,1,2.12-1.26-1.84-1.06-2,1.17a.1.1,0,0,0-.08.15Z"/><path class="m" d="M116.81,367.53l1.8,1.08,2.13-1.26-1.85-1.07-2,1.17A.08.08,0,0,0,116.81,367.53Z"/><path class="m" d="M125.77,386.14h0l1.79,1L129.7,386l-1.85-1.07-2,1.18S125.77,386.11,125.77,386.14Z"/><path class="m" d="M121.69,370.35l1.81,1.08,2.12-1.26-1.84-1.07-2,1.17S121.69,370.33,121.69,370.35Z"/><path class="m" d="M127.12,373.48l1.8,1.08,2.13-1.26-1.85-1.07-2,1.18a.08.08,0,0,0-.08.07Z"/><path class="m" d="M124.68,372.07l1.8,1.08,2.13-1.26-1.85-1.07-2,1.18a.07.07,0,0,0-.08.07Z"/><path class="m" d="M114.36,366.12l1.81,1.08,2.13-1.26-1.85-1.07-2,1.17S114.36,366.1,114.36,366.12Z"/><path class="m" d="M119.25,368.94h0l1.79,1,2.13-1.26-1.85-1.07-2,1.17A1.263,1.263,0,0,0,119.25,368.94Z"/><path class="m" d="M129.56,374.89l1.81,1.08,2.12-1.26-1.85-1.07-2,1.18C129.57,374.84,129.56,374.87,129.56,374.89Z"/><path class="m" d="M140.55,380.42l1.81,1.08,1.11-.69-1.85-1.06-1,.6S140.55,380.39,140.55,380.42Z"/><path class="m" d="M136.49,382.76l1.81,1.08,2.13-1.26-1.85-1.06-2,1.17C136.5,382.72,136.49,382.75,136.49,382.76Z"/><path class="m" d="M133.23,376.19h0l1.79,1,1.11-.69-1.85-1.06-1,.59a.084.084,0,0,0-.05.16Z"/><path class="m" d="M135.67,377.6h0l1.79,1,1.11-.69-1.84-1.06-1,.6a.1.1,0,0,0-.06.15Z"/><path class="m" d="M138.11,379l1.81,1.08,1.11-.69-1.85-1.06-1,.6Z"/></g></svg>