<svg id="lightbulb" xmlns="http://www.w3.org/2000/svg" width="200" height="200" viewBox="0 0 200 200">
  <rect id="Rectangle_411" data-name="Rectangle 411" width="200" height="200" fill="none"/>
  <g id="light-bulb" transform="translate(-5.242 27)">
    <g id="Group_130" data-name="Group 130" transform="translate(52.791 81.45)">
      <g id="Group_129" data-name="Group 129" transform="translate(0)">
        <path id="Path_2172" data-name="Path 2172" d="M84.176,287.28a2.188,2.188,0,0,0-2.989-.8l-8.449,4.878a2.189,2.189,0,1,0,2.188,3.791l8.449-4.878A2.188,2.188,0,0,0,84.176,287.28Z" transform="translate(-71.644 -286.185)" fill="#0e186e"/>
      </g>
    </g>
    <g id="Group_132" data-name="Group 132" transform="translate(144.404 82.25)">
      <g id="Group_131" data-name="Group 131">
        <path id="Path_2173" data-name="Path 2173" d="M405.606,294.169l-8.449-4.878a2.188,2.188,0,0,0-2.188,3.791c8.687,4.9,8.5,5.171,9.541,5.171A2.19,2.19,0,0,0,405.606,294.169Z" transform="translate(-393.874 -288.998)" fill="#0e186e"/>
      </g>
    </g>
    <g id="Group_134" data-name="Group 134" transform="translate(70.178 45.337)">
      <g id="Group_133" data-name="Group 133">
        <path id="Path_2174" data-name="Path 2174" d="M193.248,200.976a2.188,2.188,0,0,0-3.091.151,23.823,23.823,0,0,0-6.112,15.081h-6.838V177.859H181.9a8.552,8.552,0,1,0,0-17.1h-.519a8.561,8.561,0,0,0-8.552,8.552v4.175h-8.09v-4.175a8.561,8.561,0,0,0-8.552-8.552h-.519a8.552,8.552,0,1,0,0,17.1h4.694v17.785a2.189,2.189,0,1,0,4.377,0V177.859h8.09v38.348h-8.09V204.4a2.189,2.189,0,0,0-4.377,0v11.809h-6.833a23.566,23.566,0,0,0-7.69-16.655,34.332,34.332,0,0,1-8.419-11.9,2.188,2.188,0,0,0-4.032,1.7,38.74,38.74,0,0,0,9.5,13.434,19.161,19.161,0,0,1,6.283,14.086v23.488a7.739,7.739,0,0,0,5.977,7.524,13.5,13.5,0,0,0,1.307,5.495,2.188,2.188,0,1,0,3.953-1.88,9.157,9.157,0,0,1-.875-3.413h18.5a9.284,9.284,0,0,1-12.552,8.1,2.189,2.189,0,1,0-1.559,4.09,13.663,13.663,0,0,0,18.5-12.4,7.738,7.738,0,0,0,5.976-7.524V217.222a19.505,19.505,0,0,1,5-13.154A2.188,2.188,0,0,0,193.248,200.976Zm-16.042-31.669a4.179,4.179,0,0,1,4.175-4.175h.519a4.175,4.175,0,1,1,0,8.35h-4.694v-4.175Zm-16.844,4.175h-4.694a4.175,4.175,0,0,1,0-8.35h.519a4.179,4.179,0,0,1,4.175,4.175Zm23.66,66.875a3.353,3.353,0,0,1-3.349,3.349H156.9a3.353,3.353,0,0,1-3.349-3.349V234.38h30.475Zm0-10.355H153.547v-9.418h30.475Z" transform="translate(-133.215 -160.756)" fill="#0e186e"/>
      </g>
    </g>
    <g id="Group_136" data-name="Group 136" transform="translate(67.297 21.226)">
      <g id="Group_135" data-name="Group 135" transform="translate(0)">
        <path id="Path_2175" data-name="Path 2175" d="M200.105,112.115a38.177,38.177,0,0,0-11.258-26.58C164.741,61.4,123.3,78.507,123.3,112.646a38.814,38.814,0,0,0,.469,6.018,2.189,2.189,0,1,0,4.324-.681,34.031,34.031,0,1,1,67.637-5.808q0,.235,0,.47A33.729,33.729,0,0,1,188.9,133.1a2.189,2.189,0,0,0,3.5,2.634,38.072,38.072,0,0,0,7.712-23.085Q200.109,112.38,200.105,112.115Z" transform="translate(-123.299 -74.24)" fill="#0e186e"/>
      </g>
    </g>
    <g id="Group_138" data-name="Group 138" transform="translate(103.516)">
      <g id="Group_137" data-name="Group 137">
        <path id="Path_2176" data-name="Path 2176" d="M252.159,0a2.189,2.189,0,0,0-2.189,2.189v9.755a2.189,2.189,0,0,0,4.377,0V2.189A2.189,2.189,0,0,0,252.159,0Z" transform="translate(-249.97)" fill="#0e186e"/>
      </g>
    </g>
    <g id="Group_140" data-name="Group 140" transform="translate(74.542 7.547)">
      <g id="Group_139" data-name="Group 139" transform="translate(0)">
        <path id="Path_2177" data-name="Path 2177" d="M157.161,35.94l-4.878-8.449a2.188,2.188,0,1,0-3.791,2.188l4.878,8.449a2.188,2.188,0,1,0,3.791-2.188Z" transform="translate(-148.2 -26.397)" fill="#0e186e"/>
      </g>
    </g>
    <g id="Group_142" data-name="Group 142" transform="translate(53.254 28.501)">
      <g id="Group_141" data-name="Group 141" transform="translate(0)">
        <path id="Path_2178" data-name="Path 2178" d="M85,105.313l-8.449-4.878a2.188,2.188,0,1,0-2.188,3.791l8.449,4.878A2.188,2.188,0,0,0,85,105.313Z" transform="translate(-73.264 -100.142)" fill="#0e186e"/>
      </g>
    </g>
    <g id="Group_144" data-name="Group 144" transform="translate(45.242 57.351)">
      <g id="Group_143" data-name="Group 143" transform="translate(0)">
        <path id="Path_2179" data-name="Path 2179" d="M57.186,201.478H47.431a2.189,2.189,0,1,0,0,4.377h9.755a2.189,2.189,0,1,0,0-4.377Z" transform="translate(-45.242 -201.478)" fill="#0e186e"/>
      </g>
    </g>
    <g id="Group_146" data-name="Group 146" transform="translate(151.109 58.276)">
      <g id="Group_145" data-name="Group 145">
        <path id="Path_2180" data-name="Path 2180" d="M429.271,204.728h-9.755a2.189,2.189,0,1,0,0,4.377h9.755a2.189,2.189,0,0,0,0-4.377Z" transform="translate(-417.327 -204.728)" fill="#0e186e"/>
      </g>
    </g>
    <g id="Group_148" data-name="Group 148" transform="translate(144.869 29.302)">
      <g id="Group_147" data-name="Group 147" transform="translate(0)">
        <path id="Path_2181" data-name="Path 2181" d="M408.031,104.052a2.188,2.188,0,0,0-2.989-.8l-8.449,4.878a2.188,2.188,0,1,0,2.188,3.791l8.448-4.878A2.188,2.188,0,0,0,408.031,104.052Z" transform="translate(-395.499 -102.957)" fill="#0e186e"/>
      </g>
    </g>
    <g id="Group_150" data-name="Group 150" transform="translate(127.485 8.012)">
      <g id="Group_149" data-name="Group 149" transform="translate(0)">
        <path id="Path_2182" data-name="Path 2182" d="M342.4,28.315a2.188,2.188,0,0,0-2.989.8l-4.878,8.448a2.189,2.189,0,1,0,3.791,2.189L343.2,31.3A2.189,2.189,0,0,0,342.4,28.315Z" transform="translate(-334.234 -28.022)" fill="#0e186e"/>
      </g>
    </g>
  </g>
</svg>
