<svg xmlns="http://www.w3.org/2000/svg" width="200" height="200" viewBox="0 0 200 200">
  <g id="open-catalog-multi" transform="translate(-5686 -2435)">
    <rect id="Rectangle_411" data-name="Rectangle 411" width="200" height="200" transform="translate(5686 2435)" fill="none"/>
    <g id="Group_416" data-name="Group 416">
      <g id="Group_415" data-name="Group 415">
        <g id="Group_394" data-name="Group 394" transform="translate(5720.001 2481.72)">
          <path id="Path_4138" data-name="Path 4138" d="M5727.846,2748.2v84.341s10.636,1.065,18.72-1.065,17.23-4.686,23.187-3.834,10.21,7.241,15.954,7.028,7.809-7.028,17.018-7.028,21.272,5.111,26.59,4.9,15.1,0,15.1,0V2748.2s-4.892.852-16.8-2.343-16.167-5.112-23.187-3.621-18.72,7.88-18.72,7.88a25.15,25.15,0,0,0-16.8-7.88c-10.423-.426-23.159,5.111-30.632,5.111S5727.846,2748.2,5727.846,2748.2Z" transform="translate(-5719.001 -2741.72)" fill="#fff"/>
          <path id="Subtraction_24" data-name="Subtraction 24" d="M66.79,94.78A8.976,8.976,0,0,1,58.04,87.8H4a4,4,0,0,1-4-4V4A4,4,0,0,1,4,0H8.812V79.14c.013.012,1.5,1.231,6.022,1.231a44.546,44.546,0,0,0,9.513-1.231,56.852,56.852,0,0,0,9.722-2.984c3.009-1.194,4.824-1.915,11.347-1.915A25.677,25.677,0,0,1,54.4,75.884a49.033,49.033,0,0,1,6.758,3.227c2.423,1.325,4.337,2.371,5.966,2.371,1.75,0,3.768-1.235,6.106-2.665,3.332-2.039,7.478-4.576,12.623-4.576,4.785,0,9.943,1.487,14.494,2.8,3.747,1.08,7.286,2.1,9.981,2.1h14.684V0h4.569a4,4,0,0,1,4,4V83.8a4,4,0,0,1-4,4H75.539A8.976,8.976,0,0,1,66.79,94.78Z" transform="translate(0 11.28)" fill="#77ffd6"/>
        </g>
        <path id="Subtraction_26" data-name="Subtraction 26" d="M24.019,23H2a2,2,0,0,1-2-2V2A2,2,0,0,1,2,0H9.609a2,2,0,0,0-.242.955V7.409a2,2,0,0,0,2,2h3.285a2,2,0,0,0,2-2V.955A2,2,0,0,0,16.41,0h7.61a2,2,0,0,1,2,2V21A2,2,0,0,1,24.019,23Z" transform="translate(5745 2502)" fill="#97d1ff"/>
      </g>
      <g id="Group_414" data-name="Group 414">
        <g id="study" transform="translate(5718 2480)">
          <path id="Path_4120" data-name="Path 4120" d="M325.454,107.54a86.3,86.3,0,0,1-18-3.613,32.6,32.6,0,0,0-22.85,1.095,2.013,2.013,0,1,0,1.59,3.7,28.672,28.672,0,0,1,20.1-.939,90.266,90.266,0,0,0,18.854,3.773c.052,0,.1.006.156.006a2.013,2.013,0,0,0,.152-4.02Z" transform="translate(-207.745 -88.497)" fill="#0e186e"/>
          <path id="Path_4121" data-name="Path 4121" d="M325.454,139.415a86.275,86.275,0,0,1-18-3.613A32.594,32.594,0,0,0,284.6,136.9a2.013,2.013,0,0,0,1.59,3.7,28.672,28.672,0,0,1,20.1-.939,90.249,90.249,0,0,0,18.854,3.773c.052,0,.1.006.156.006a2.013,2.013,0,0,0,.152-4.02Z" transform="translate(-207.745 -111.866)" fill="#0e186e"/>
          <path id="Path_4122" data-name="Path 4122" d="M325.454,298.792a86.273,86.273,0,0,1-18-3.613,32.6,32.6,0,0,0-22.85,1.095,2.013,2.013,0,1,0,1.59,3.7,28.677,28.677,0,0,1,20.1-.939,90.264,90.264,0,0,0,18.854,3.773c.052,0,.1.006.156.006a2.013,2.013,0,0,0,.152-4.02Z" transform="translate(-207.745 -228.559)" fill="#0e186e"/>
          <path id="Path_4123" data-name="Path 4123" d="M325.454,330.668a86.3,86.3,0,0,1-18-3.613,32.6,32.6,0,0,0-22.85,1.095,2.013,2.013,0,1,0,1.59,3.7,28.672,28.672,0,0,1,20.1-.939,90.265,90.265,0,0,0,18.854,3.773c.052,0,.1.006.156.006a2.013,2.013,0,0,0,.152-4.02Z" transform="translate(-207.745 -251.898)" fill="#0e186e"/>
          <path id="Path_4124" data-name="Path 4124" d="M325.454,171.291a86.273,86.273,0,0,1-18-3.613,32.6,32.6,0,0,0-22.85,1.095,2.013,2.013,0,1,0,1.59,3.7,28.675,28.675,0,0,1,20.1-.939,90.261,90.261,0,0,0,18.854,3.773c.052,0,.1.006.156.006a2.013,2.013,0,0,0,.152-4.02Z" transform="translate(-207.745 -135.205)" fill="#0e186e"/>
          <path id="Path_4125" data-name="Path 4125" d="M325.454,235.041a86.259,86.259,0,0,1-18-3.613,32.6,32.6,0,0,0-22.85,1.095,2.013,2.013,0,0,0,1.59,3.7,28.675,28.675,0,0,1,20.1-.939,90.269,90.269,0,0,0,18.854,3.773c.052,0,.1.006.156.006a2.013,2.013,0,0,0,.152-4.02Z" transform="translate(-207.745 -181.882)" fill="#0e186e"/>
          <path id="Path_4126" data-name="Path 4126" d="M325.454,203.166a86.3,86.3,0,0,1-18-3.613,32.6,32.6,0,0,0-22.85,1.095,2.013,2.013,0,0,0,1.59,3.7,28.674,28.674,0,0,1,20.1-.939,90.266,90.266,0,0,0,18.854,3.773c.052,0,.1.006.156.006a2.013,2.013,0,0,0,.152-4.02Z" transform="translate(-207.745 -158.544)" fill="#0e186e"/>
          <path id="Path_4127" data-name="Path 4127" d="M325.454,266.916a86.25,86.25,0,0,1-18-3.613A32.6,32.6,0,0,0,284.6,264.4a2.013,2.013,0,1,0,1.59,3.7,28.677,28.677,0,0,1,20.1-.939,90.242,90.242,0,0,0,18.854,3.773c.052,0,.1.006.156.006a2.013,2.013,0,0,0,.152-4.02Z" transform="translate(-207.745 -205.221)" fill="#0e186e"/>
          <path id="Path_4130" data-name="Path 4130" d="M66.959,302.812c.052,0,.1,0,.156-.006a90.239,90.239,0,0,0,18.854-3.773,28.671,28.671,0,0,1,20.1.939,2.013,2.013,0,1,0,1.59-3.7,32.6,32.6,0,0,0-22.85-1.095,86.277,86.277,0,0,1-18,3.613,2.013,2.013,0,0,0,.152,4.02Z" transform="translate(-47.516 -228.56)" fill="#0e186e"/>
          <path id="Path_4161" data-name="Path 4161" d="M66.959,302.812c.052,0,.1,0,.156-.006a90.239,90.239,0,0,0,18.854-3.773,28.671,28.671,0,0,1,20.1.939,2.013,2.013,0,1,0,1.59-3.7,32.6,32.6,0,0,0-22.85-1.095,86.277,86.277,0,0,1-18,3.613,2.013,2.013,0,0,0,.152,4.02Z" transform="translate(-47.516 -237.56)" fill="#0e186e"/>
          <path id="Path_4131" data-name="Path 4131" d="M66.959,334.687c.052,0,.1,0,.156-.006a90.246,90.246,0,0,0,18.854-3.773,28.671,28.671,0,0,1,20.1.939,2.013,2.013,0,1,0,1.59-3.7,32.6,32.6,0,0,0-22.85-1.095,86.3,86.3,0,0,1-18,3.613,2.013,2.013,0,0,0,.152,4.02Z" transform="translate(-47.516 -251.898)" fill="#0e186e"/>
          <path id="Path_4136" data-name="Path 4136" d="M132.1,62.092h-3.142V60.259a4.408,4.408,0,0,0-4.753-4.4c-2.961.237-9.446.252-19.6-2.327a2.009,2.009,0,0,0-.987,3.894c10.182,2.585,16.992,2.753,20.911,2.437a.389.389,0,0,1,.418.392v81.07c-7.6.821-17.757-1.358-25.12-3.579-16.446-4.962-27.077,3.563-29.316,4.777v-80.3a28.691,28.691,0,0,1,23.916-7.152,2.009,2.009,0,0,0,.638-3.967,32.444,32.444,0,0,0-26.566,7.518,32.725,32.725,0,0,0-31.318-6.416C24.391,56.065,16.413,56.152,12.8,55.863a4.407,4.407,0,0,0-4.752,4.4v1.833H4.9A4.909,4.909,0,0,0,0,67v81.468a4.909,4.909,0,0,0,4.9,4.906h52a1.978,1.978,0,0,1,1.8,1.1,10.847,10.847,0,0,0,19.6,0,1.98,1.98,0,0,1,1.8-1.1h52a4.909,4.909,0,0,0,4.9-4.906v-38.1a2.007,2.007,0,1,0-4.014,0v38.1a.889.889,0,0,1-.887.888h-52a6.008,6.008,0,0,0-5.429,3.4,6.83,6.83,0,0,1-12.343,0,6.009,6.009,0,0,0-5.429-3.4H4.9a.889.889,0,0,1-.888-.889V67A.889.889,0,0,1,4.9,66.11H8.043v76.934a2.008,2.008,0,0,0,1.493,1.942c.382.1,9.573,2.412,28.8-3.388a28.771,28.771,0,0,1,25.4,3.943,8.279,8.279,0,0,0,9.524,0,28.761,28.761,0,0,1,25.4-3.943c19.226,5.8,28.417,3.489,28.8,3.388a2.008,2.008,0,0,0,1.493-1.942V66.11H132.1a.889.889,0,0,1,.888.888v33.994a2.007,2.007,0,1,0,4.014,0V67A4.91,4.91,0,0,0,132.1,62.092ZM12.057,60.259a.388.388,0,0,1,.418-.392c3.9.314,12.444.235,25.86-3.813a28.591,28.591,0,0,1,28.158,6.172v80.3a33.079,33.079,0,0,0-29.316-4.777c-1.082.327-2.272.666-3.373.96l-.04.011c-6.462,1.726-15.058,3.326-21.708,2.609,0-5.584,0-79.574,0-81.071Z" transform="translate(0 -50.669)" fill="#0e186e"/>
        </g>
        <path id="Path_4160" data-name="Path 4160" d="M51.333,15H24.667A1.666,1.666,0,0,0,23,16.666V39.984a1.666,1.666,0,0,0,1.667,1.666H51.333A1.666,1.666,0,0,0,53,39.984V16.666A1.666,1.666,0,0,0,51.333,15ZM39.667,18.331v5.633H36.333V18.331Zm10,19.987H26.333V18.331H33l-.047,7.346a1.665,1.665,0,0,0,.79,1.417c.491.3,4.288.267,4.288.267s3.641.037,4.132-.267a1.665,1.665,0,0,0,.79-1.417L43,18.331h6.667Z" transform="translate(5719.923 2485.26)" fill="#0e186e"/>
      </g>
    </g>
  </g>
</svg>
