<svg id="palm-tree-color" xmlns="http://www.w3.org/2000/svg" width="200" height="200" viewBox="0 0 200 200">
  <rect id="frame" width="200" height="200" fill="none"/>
  <g id="palm-tree-color-2" data-name="palm-tree-color">
    <g id="color">
      <path id="blue" d="M6926.513,1347.919s.715-16.316,48.518-15.743,47.23,14.312,47.23,14.312-5.439,6.011-12.166,5.868-4.719-4.269-11.593-4.437-6.413,4.437-12.309,4.437-4.865-4.437-11.164-4.437-6.291,4.437-12.881,4.437-5.008-4.437-11.021-4.437-7.721,4.437-13.6,4.437S6926.513,1347.919,6926.513,1347.919Z" transform="translate(-6886 -1188)" fill="#97d1ff"/>
      <path id="white" d="M-6869.068-1151.871c3.705-13.431,5.746-22.893,6.759-25.724a5.486,5.486,0,0,1-2.492.594,5.5,5.5,0,0,1-5.5-5.5,5.5,5.5,0,0,1,5.5-5.5,5.5,5.5,0,0,1,5.38,4.35,8,8,0,0,1,7.122-4.35,8,8,0,0,1,8,8,8,8,0,0,1-8,8,8.025,8.025,0,0,1-1.878-.222c.034,2.266.143,16.826-2.425,27.608-2.791,11.72-8,26.792-8,26.792l-21.4.745S-6873.534-1135.683-6869.068-1151.871Zm7.756-26.377c.378.233.918.627,1.535,1.1a7.948,7.948,0,0,1-.5-2.225A5.528,5.528,0,0,1-6861.312-1178.248Z" transform="translate(6954.301 1262)" fill="#fff"/>
      <path id="green" d="M6976.621,1223.7a34.991,34.991,0,0,1,7.07,9.117c2.977,5.582,4.651,8.931,4.651,8.931s5.582-13.768,18.792-16.373,18.606.93,26.792,5.954,15.629,8.559,15.629,8.559-30.142-8.187-38.142-3.721-14.141,13.582-14.141,13.582a49.435,49.435,0,0,1,20.094,2.977c10.047,3.907,19.536,12.652,19.536,12.652s-16-4.838-27.165-3.907-17.675,0-17.675,0a13.285,13.285,0,0,0-8.373,1.3c-4.093,2.233-3.217,2.656-3.163,2.6s-2.791-4.279-5.023-3.907-5.768.558-5.768,5.4-1.3.372-12.094,8.931-11.164,8-11.164,8-.558-10.047,8.559-19.164,12.652-9.489,12.652-9.489-3.164-6.326-17.3-8.187-21.583-2.977-21.583-2.977,14.885-5.768,30.328-2.233,15.257,5.21,15.257,5.21a31.768,31.768,0,0,1-.931-12.652A30.042,30.042,0,0,1,6976.621,1223.7Z" transform="translate(-6886 -1188)" fill="#77ffd6"/>
    </g>
    <g id="palm-tree" transform="translate(33.002 32.944)">
      <g id="Group_438" data-name="Group 438" transform="translate(-0.002 0.056)">
        <path id="Path_4179" data-name="Path 4179" d="M132.55,125.512c-4.3-2.128-10.843-1.343-14.282,1.714a6.249,6.249,0,0,1-8.3,0,11.429,11.429,0,0,0-3.872-2.271,10.118,10.118,0,0,0-2.64-4.844c-6.252-6.742-23.305-11.4-43.131-11.932.928-2.545,1.8-5.187,2.607-7.9a159.1,159.1,0,0,0,3.981-16.794c1.008-5.546,1.747-11.184,2.192-16.752.219-2.691.368-5.393.45-8.067l.074,0a10.48,10.48,0,0,0,9.074-15.7H92.279a47.306,47.306,0,0,1,11.46,1.411l14.979,3.745a2.617,2.617,0,0,0,2.485-4.389l-2.065-2.065A52.373,52.373,0,0,0,83.015,26.309C88,19.614,92.854,16.8,99.04,16.8h1.735a26.519,26.519,0,0,1,5.182.512l.03.006,24.92,4.671a2.617,2.617,0,0,0,1.752-4.86L111.854,5.589a31.647,31.647,0,0,0-42.5,9.486A42.934,42.934,0,0,0,61.869,4.291L58.4.822a2.617,2.617,0,0,0-4.333,1.023,48.545,48.545,0,0,0-2.055,19.5A59.479,59.479,0,0,0,13.4,18.859L1.923,22.137a2.617,2.617,0,0,0,.719,5.133H19.021A49.824,49.824,0,0,1,43.384,33.6C30.4,40.908,25.457,54.5,22.608,65.888A2.617,2.617,0,0,0,27,68.373c8.911-8.911,16.589-14.8,23.389-17.917a7.806,7.806,0,0,0,6.163,2.983c.091,0,.181-.005.272-.009L54.1,62.956c-.248.868-.517,1.781-.8,2.714-.02.057-.037.115-.053.174-1.692,5.593-3.6,10.988-5.67,16.041a2.638,2.638,0,0,0-.111.272,127.979,127.979,0,0,1-7.85,16.033c-.155.269-.315.536-.474.8-.012.02-.024.041-.036.062l-6.239,11.115c-7.766,1.41-14.348,3.466-19.089,5.973-5.267,2.785-7.453,5.721-8.2,8.225a11.417,11.417,0,0,0-4.135,1.163,2.617,2.617,0,1,0,2.335,4.683,6.249,6.249,0,0,1,6.934.925c4.324,3.841,12.5,3.841,16.823,0a6.244,6.244,0,0,1,8.3,0,11.485,11.485,0,0,0,15.253,0,6.244,6.244,0,0,1,8.3,0,11.485,11.485,0,0,0,15.253,0,6.244,6.244,0,0,1,8.3,0,11.486,11.486,0,0,0,15.254,0,6.243,6.243,0,0,1,8.3,0,11.486,11.486,0,0,0,15.253,0c1.837-1.633,6.119-2.1,8.484-.934a2.617,2.617,0,0,0,2.321-4.692ZM64.067,63.905h-4.8l2.511-8.785a10.449,10.449,0,0,0,2.577,2.125C64.309,59.449,64.214,61.674,64.067,63.905Zm5.566-10.467A5.228,5.228,0,0,1,64.4,48.2a5.042,5.042,0,0,1,.1-1.015,5.242,5.242,0,0,1,6.354-4.076h0a5.235,5.235,0,0,1-1.224,10.324Zm40.057-12.964-4.681-1.17a52.534,52.534,0,0,0-12.729-1.567H76.484L79.553,31.6A47.131,47.131,0,0,1,109.689,40.475Zm-43.4-7.885,5.589-11.435A26.415,26.415,0,0,1,109.2,10.1l.076.044L116,13.872l-9.03-1.693a31.759,31.759,0,0,0-6.191-.61H99.041c-11.651,0-18.3,8.132-23.269,16.107l-.037.06c-.161.261-.322.522-.484.786-.039.063-.075.129-.108.2l-4.535,9.07c-.324-.03-.648-.049-.975-.049a10.469,10.469,0,0,0-7.1,2.781l-.078-.091,3.816-7.807ZM57.9,7.726l.267.267a42.3,42.3,0,0,1,8.08,12.761l-3.3,6.745a51.815,51.815,0,0,0-5.284-3.4A43.866,43.866,0,0,1,57.9,7.726Zm-34.282,14.5A54.359,54.359,0,0,1,54.075,28.1a46.686,46.686,0,0,1,6.137,3.885l.4.3-2.725,5.576c-.058-.01-.116-.021-.175-.03a55.291,55.291,0,0,0-7.328-6.034l-.042-.03-.036-.025A55.032,55.032,0,0,0,23.619,22.225ZM48.7,45.477c-5.611,2.481-11.529,6.5-18.16,12.355,4.043-10.769,9.7-17.286,17.962-20.959q1.652,1.2,3.206,2.541A7.84,7.84,0,0,0,48.7,45.477ZM56.549,48.2a2.6,2.6,0,0,1-2.5-1.845,2.62,2.62,0,0,1,2.5-3.388,2.55,2.55,0,0,1,1.328.364l.01.006a2.614,2.614,0,0,1,1.225,2.781,2.525,2.525,0,0,1-.344.852A2.593,2.593,0,0,1,56.549,48.2Zm1.159,20.935h5.93c-.367,3.749-.865,7.516-1.493,11.252H53.8C55.191,76.769,56.5,73,57.708,69.139ZM51.689,85.625h9.486c-.776,3.85-1.679,7.618-2.7,11.252H46.348C48.2,93.4,49.991,89.636,51.689,85.625Zm-8.3,16.486H56.885c-.672,2.068-1.384,4.085-2.129,6.031a140.019,140.019,0,0,0-15.325,1.026Zm51.323,25.115a6.25,6.25,0,0,1-8.3,0,11.478,11.478,0,0,0-15.253,0,6.25,6.25,0,0,1-8.3,0,11.478,11.478,0,0,0-15.253,0,6.25,6.25,0,0,1-8.3,0,11.478,11.478,0,0,0-15.253,0c-2.352,2.09-7.517,2.09-9.868,0a11.446,11.446,0,0,0-3.3-2.051c1.811-3.394,9.895-7.6,23.7-10a2.618,2.618,0,0,0,.727-.125,131.132,131.132,0,0,1,21.22-1.69h.02c23.023,0,38.462,5.344,43.065,10.307a7.361,7.361,0,0,1,.676.839A11.442,11.442,0,0,0,94.717,127.226Z" transform="translate(0.002 -0.056)" fill="#0e186e"/>
      </g>
    </g>
  </g>
</svg>
