<svg xmlns="http://www.w3.org/2000/svg" width="101.551" height="101.551" viewBox="0 0 101.551 101.551"><defs><style>.a{fill:#0e186e;}</style></defs><g transform="translate(0 0)"><g transform="translate(10.711 0)"><g transform="translate(0 0)"><path class="a" d="M143.839.26a1.983,1.983,0,0,0-1.992.015L105.5,21.769a1.983,1.983,0,1,0,2.019,3.414L133.6,9.763l-48.575,50.4-24.16-7.391L92.392,34.128a1.983,1.983,0,0,0-2.019-3.415l-35.4,20.933a1.984,1.984,0,0,0,.429,3.6l28.853,8.827L96.984,87.246a.47.47,0,0,0,.041.062,1.978,1.978,0,0,0,3.084.4l14.636-14.3,27.531,8.423a1.983,1.983,0,0,0,2.564-1.9V1.983A1.983,1.983,0,0,0,143.839.26ZM97.092,65.3a1.984,1.984,0,0,0-.353,1.129V78.562L88.047,62.741,126.51,22.833Zm3.614,16.28V69.11l9.717,2.973Zm40.167-4.329L101.9,65.327,140.873,9.065Z" transform="translate(-53.999 0)"/></g></g><g transform="translate(10.71 68.358)"><path class="a" d="M75.9,345.229a1.984,1.984,0,0,0-2.805,0L54.58,363.745a1.983,1.983,0,0,0,2.805,2.8L75.9,348.034A1.983,1.983,0,0,0,75.9,345.229Z" transform="translate(-53.999 -344.648)"/></g><g transform="translate(0 93.022)"><g transform="translate(0)"><path class="a" d="M7.948,469.581a1.984,1.984,0,0,0-2.8,0L.581,474.143a1.983,1.983,0,1,0,2.8,2.8l4.562-4.562A1.984,1.984,0,0,0,7.948,469.581Z" transform="translate(0 -469.001)"/></g></g><g transform="translate(24.908 97.467)"><path class="a" d="M128.965,491.991a1.982,1.982,0,1,0,.581,1.4A2,2,0,0,0,128.965,491.991Z" transform="translate(-125.58 -491.41)"/></g><g transform="translate(29.857 82.709)"><path class="a" d="M163.727,417.587a1.983,1.983,0,0,0-2.8,0l-9.807,9.807a1.983,1.983,0,1,0,2.8,2.8l9.807-9.807A1.983,1.983,0,0,0,163.727,417.587Z" transform="translate(-150.534 -417.006)"/></g><g transform="translate(63.678 81.957)"><path class="a" d="M334.273,413.792a1.984,1.984,0,0,0-2.8,0l-9.834,9.834a1.983,1.983,0,1,0,2.8,2.805l9.834-9.834A1.984,1.984,0,0,0,334.273,413.792Z" transform="translate(-321.053 -413.211)"/></g><g transform="translate(52.844 26.455)"><path class="a" d="M269.816,133.961a1.982,1.982,0,1,0,.581,1.4A2,2,0,0,0,269.816,133.961Z" transform="translate(-266.43 -133.38)"/></g></g></svg>