<svg id="phone-rotary-color" xmlns="http://www.w3.org/2000/svg" width="200" height="200" viewBox="0 0 200 200">
  <rect id="Rectangle_411" data-name="Rectangle 411" width="200" height="200" fill="none"/>
  <g id="Group_104" data-name="Group 104">
    <ellipse id="Ellipse_73" data-name="Ellipse 73" cx="24" cy="23.5" rx="24" ry="23.5" transform="translate(76 83)" fill="#77ffd6"/>
    <g id="telephone" transform="translate(25 -3.137)">
      <path id="Path_2130" data-name="Path 2130" d="M144.723,58.807C136.763,49.231,101.347,42.075,75,42.075S13.238,49.231,5.277,58.807C-.588,65.863,0,81.673.029,82.342a2.419,2.419,0,0,0,2.129,2.3,162.014,162.014,0,0,0,17.146,1,162.014,162.014,0,0,0,17.146-1,2.419,2.419,0,0,0,2.131-2.4V71.213h9.155v4.82l-35.7,65.242h0a2.372,2.372,0,0,0-.121.258c-.007.019-.014.038-.021.057-.025.068-.048.138-.068.209-.007.025-.014.05-.019.076-.016.068-.029.137-.039.208,0,.024-.008.048-.011.073a2.448,2.448,0,0,0-.018.281v17.656H11.07a2.419,2.419,0,1,0,0,4.839H138.932a2.419,2.419,0,1,0,0-4.839h-.669V142.437a2.459,2.459,0,0,0-.018-.281c0-.025-.007-.049-.011-.073-.01-.07-.023-.139-.039-.208-.006-.025-.013-.051-.019-.076q-.029-.107-.068-.209c-.007-.019-.013-.038-.021-.057a2.431,2.431,0,0,0-.121-.258h0l-35.7-65.241v-4.82h9.155V82.241a2.419,2.419,0,0,0,2.131,2.4,162.014,162.014,0,0,0,17.146,1,162.014,162.014,0,0,0,17.146-1,2.419,2.419,0,0,0,2.129-2.3C150,81.673,150.588,65.863,144.723,58.807Zm-12.963,81.21H46.814a2.419,2.419,0,1,0,0,4.839h86.609v15.236H16.577V144.856H37.549a2.419,2.419,0,0,0,0-4.839H18.24l34.039-62.2a2.419,2.419,0,0,0,.3-1.161V63.7h4.882v12.95a2.419,2.419,0,0,0,2.419,2.419H90.124a2.419,2.419,0,0,0,2.419-2.419V63.7h4.882v12.95a2.418,2.418,0,0,0,.3,1.161ZM62.3,71.214H87.7v3.02H62.3Zm68.4,9.6c-5.79,0-11.467-.461-14.439-.747V68.794a2.419,2.419,0,0,0-2.419-2.419H102.264V62.964a4.105,4.105,0,0,0-4.1-4.1H91.806a4.105,4.105,0,0,0-4.1,4.1v3.411H62.3V62.964a4.105,4.105,0,0,0-4.1-4.1H51.837a4.105,4.105,0,0,0-4.1,4.1v3.411H36.163a2.419,2.419,0,0,0-2.419,2.419V80.063c-2.972.286-8.649.747-14.439.747-5.81,0-11.506-.464-14.47-.75C4.877,75.027,5.65,65.929,9,61.9c2.939-3.536,12.463-7.4,25.475-10.339A195.436,195.436,0,0,1,75,46.914a195.46,195.46,0,0,1,40.527,4.648C128.54,54.5,138.063,58.365,141,61.9c3.34,4.019,4.116,13.123,4.162,18.159C142.2,80.346,136.505,80.81,130.7,80.81Z" transform="translate(0 0)" fill="#0e186e"/>
      <path id="Path_2131" data-name="Path 2131" d="M177.829,170.463a26.1,26.1,0,1,0,26.1,26.1A26.125,26.125,0,0,0,177.829,170.463Zm0,47.345a21.249,21.249,0,1,1,21.249-21.249A21.273,21.273,0,0,1,177.829,217.808Z" transform="translate(-102.829 -87.021)" fill="#0e186e"/>
      <path id="Path_2132" data-name="Path 2132" d="M227.092,206.848a2.585,2.585,0,1,0,2.585,2.585A2.588,2.588,0,0,0,227.092,206.848Z" transform="translate(-152.091 -111.626)" fill="#0e186e"/>
      <path id="Path_2133" data-name="Path 2133" d="M196.87,225.388a2.585,2.585,0,1,0,1.2,1.569A2.589,2.589,0,0,0,196.87,225.388Z" transform="translate(-130.744 -123.951)" fill="#0e186e"/>
      <path id="Path_2134" data-name="Path 2134" d="M195.579,261.431a2.585,2.585,0,1,0,1.293,4.823,2.585,2.585,0,0,0-1.293-4.823Z" transform="translate(-130.743 -148.603)" fill="#0e186e"/>
      <path id="Path_2135" data-name="Path 2135" d="M227.092,279.625a2.585,2.585,0,1,0,2.585,2.585A2.588,2.588,0,0,0,227.092,279.625Z" transform="translate(-152.091 -160.928)" fill="#0e186e"/>
      <path id="Path_2136" data-name="Path 2136" d="M259.892,261.775a2.585,2.585,0,1,0,.949,3.533A2.587,2.587,0,0,0,259.892,261.775Z" transform="translate(-173.438 -148.603)" fill="#0e186e"/>
      <path id="Path_2137" data-name="Path 2137" d="M258.6,225.042a2.585,2.585,0,1,0,2.24,1.295A2.589,2.589,0,0,0,258.6,225.042Z" transform="translate(-173.438 -123.951)" fill="#0e186e"/>
    </g>
  </g>
</svg>
