<svg id="pricetag-color" xmlns="http://www.w3.org/2000/svg" width="200" height="200" viewBox="0 0 200 200">
  <rect id="Rectangle_411" data-name="Rectangle 411" width="200" height="200" fill="none"/>
  <g id="Group_102" data-name="Group 102">
    <path id="Subtraction_19" data-name="Subtraction 19" d="M-2654.038-1070.963-2700-1116.924l13.435-13.435,2.657,2.657a50.869,50.869,0,0,0,39.662,39.662l3.643,3.643-13.435,13.434Z" transform="translate(2744.948 1227)" fill="#77ffd6"/>
    <g id="price" transform="translate(43.863 34.026)">
      <g id="Group_94" data-name="Group 94" transform="translate(37.082 52.336)">
        <g id="Group_93" data-name="Group 93">
          <path id="Path_2128" data-name="Path 2128" d="M185.551,223.16l.995-.995a1.271,1.271,0,0,0-.178-1.669,1.2,1.2,0,0,0-1.67-.178l-1.065,1.065c-3.481-2.912-8.418-4.724-12.893-.248-4.547,4.546-2.309,9.129-.249,13.391l-9.448,9.448c-3.872-4.227-2.06-7.743-3.055-8.738-.675-.675-2.238-.391-2.948.319-1.491,1.492-1.172,6.714,3.2,11.225l-1.172,1.172a1.2,1.2,0,0,0,.178,1.67,1.272,1.272,0,0,0,1.669.178l1.279-1.279c4.191,3.2,9.058,3.446,13.391-.888,4.866-4.866,3.126-9.59,1.208-13.711l8.1-8.1c2.451,2.735,2.274,4.9,3.019,5.647.817.817,2.344.213,2.913-.355C190.24,229.7,187.966,225.788,185.551,223.16Zm-15.1,21.916c-2.344,2.344-5.044,2.415-7.637.533l8.7-8.7C172.657,239.677,173.155,242.376,170.455,245.076Zm3.232-13.462c-1.314-2.877-2.273-5.47.178-7.921,2.273-2.274,4.937-1.456,7.281.462Z" transform="translate(-154.234 -218.437)" fill="#0e186e"/>
        </g>
      </g>
      <g id="Group_96" data-name="Group 96" transform="translate(0.169 0)">
        <g id="Group_95" data-name="Group 95" transform="translate(0 0)">
          <path id="Path_2129" data-name="Path 2129" d="M120.048,2.669a9.119,9.119,0,0,0-13.878,1.167L92.495,23.088a34.119,34.119,0,0,0-44.273,3.356L1.413,73.254a4.257,4.257,0,0,0,0,6.013l42.163,42.163a4.257,4.257,0,0,0,6.013,0L96.4,74.62a34.1,34.1,0,0,0,9.834-20.973,1.8,1.8,0,1,0-3.577-.326,30.506,30.506,0,0,1-8.8,18.76L60.41,105.527a49.771,49.771,0,0,1-25.658-11.3,1.8,1.8,0,0,0-2.313,2.747,53.325,53.325,0,0,0,24.828,11.7l-10.22,10.22a.66.66,0,0,1-.933,0L3.953,76.726a.666.666,0,0,1,0-.933L14.172,65.574a53.286,53.286,0,0,0,12.105,25.3A1.8,1.8,0,1,0,29,88.533a49.738,49.738,0,0,1-11.683-26.1L50.762,28.984a30.5,30.5,0,0,1,43.75.68l-4.776,3.393a10.553,10.553,0,1,0,2.079,2.929l5.01-3.558A30.215,30.215,0,0,1,102.351,45.4a1.8,1.8,0,1,0,3.541-.6,33.791,33.791,0,0,0-6.137-14.455l19.107-13.571A9.268,9.268,0,0,0,120.048,2.669ZM87.221,45.459a6.954,6.954,0,1,1-2.493-11.437l-2.385,3.359A2.236,2.236,0,0,0,85.461,40.5l3.358-2.385A6.963,6.963,0,0,1,87.221,45.459Zm29.561-31.613L97.466,27.566c-.725-.792-1.341-1.416-2.19-2.191L109.1,5.917a5.525,5.525,0,0,1,8.41-.707A5.674,5.674,0,0,1,116.781,13.846Z" transform="translate(-0.169 0)" fill="#0e186e"/>
        </g>
      </g>
    </g>
  </g>
</svg>
