<svg id="question-mark-white" xmlns="http://www.w3.org/2000/svg" width="200" height="200" viewBox="0 0 200 200">
  <rect id="Rectangle_411" data-name="Rectangle 411" width="200" height="200" fill="none"/>
  <g id="Group_156" data-name="Group 156">
    <g id="Group_155" data-name="Group 155">
      <path id="Path_2186" data-name="Path 2186" d="M3964.313,1251.5s.162-3.238,11.009-6.638,25.58,1.619,28.333,5.5,7.2,13.982,3.643,22.239-12.074,12.79-14.178,16.19-2.74,9.332-4.035,12.408-6.476,5.019-11.819,1.781.324-21.533,6.314-24.609,12.3-9.228,11.009-15.7-13.924-7.124-17.323-4.048-5.019,8.743-9.552,8.257-7.771-5.343-7.448-8.257S3964.313,1251.5,3964.313,1251.5Z" transform="translate(-3886 -1188)" fill="#fff"/>
      <circle id="Ellipse_75" data-name="Ellipse 75" cx="8.5" cy="8.5" r="8.5" transform="translate(88 125)" fill="#fff"/>
    </g>
    <g id="question" transform="translate(34.062 34.062)">
      <path id="Path_2183" data-name="Path 2183" d="M110.962,19.038A65,65,0,0,0,22.47,15.844,1.931,1.931,0,1,0,25,18.763,61.166,61.166,0,1,1,19.65,24a1.931,1.931,0,1,0-2.863-2.591,65,65,0,1,0,94.175-2.369Zm0,0" fill="#0e186e"/>
      <path id="Path_2184" data-name="Path 2184" d="M214.65,347.125a11.022,11.022,0,1,0,7.826,18.736,11.118,11.118,0,0,0,3.2-7.714,11.1,11.1,0,0,0-11.022-11.022Zm0,18.15a7.129,7.129,0,0,1,0-14.257,7.128,7.128,0,0,1,0,14.257Zm0,0" transform="translate(-152.102 -259.138)" fill="#0e186e"/>
      <path id="Path_2185" data-name="Path 2185" d="M196.429,117.089a1.946,1.946,0,0,0,2.748-.186c4.692-5.375,7.071-11,7.071-16.724a19.384,19.384,0,0,0-7.631-15.4c-4.947-3.918-11.66-5.988-19.416-5.988-9.594,0-15.528,3.239-18.816,5.955-3.976,3.285-6.35,7.689-6.35,11.782a8.29,8.29,0,0,0,3.068,6.6,9.625,9.625,0,0,0,5.951,2.066c3.712,0,5.339-2.4,6.646-4.328,1.656-2.441,3.22-4.748,9.146-4.748,2.031,0,8.66.438,8.66,6.067,0,4.249-3.928,7.264-7.393,9.925-.856.656-1.664,1.277-2.418,1.917-3.991,3.44-8.573,8.753-8.573,19.39,0,5.908,1.433,9.844,8.43,9.844,3.1,0,5.438-.7,6.953-2.086a6.16,6.16,0,0,0,1.945-4.695c0-5.739,0-8.62,5.853-13.2l.1-.078c.258-.2.556-.434.884-.7a1.947,1.947,0,1,0-2.444-3.031c-.311.251-.592.47-.835.66l-.1.08c-7.007,5.481-7.348,9.549-7.348,16.266,0,.863,0,2.887-5,2.887-2.444,0-3.189-.511-3.564-.957-.654-.777-.972-2.41-.972-4.993,0-9,3.651-13.362,7.209-16.43.671-.569,1.442-1.161,2.259-1.788,3.972-3.05,8.917-6.845,8.917-13.013,0-6.051-4.928-9.961-12.554-9.961-7.989,0-10.52,3.732-12.368,6.456-1.263,1.863-1.839,2.619-3.424,2.619-2.059,0-5.124-1.271-5.124-4.772,0-2.273,1.3-5.774,4.936-8.781,2.8-2.309,7.9-5.064,16.336-5.064,13.633,0,23.152,7.2,23.152,17.5,0,4.753-2.055,9.518-6.11,14.164a1.946,1.946,0,0,0,.185,2.747Zm0,0" transform="translate(-115.143 -58.947)" fill="#0e186e"/>
    </g>
  </g>
</svg>
