<svg id="rocket-ship-multi" xmlns="http://www.w3.org/2000/svg" width="200" height="200" viewBox="0 0 200 200">
  <rect id="Rectangle_411" data-name="Rectangle 411" width="200" height="200" fill="none"/>
  <g id="Group_437" data-name="Group 437">
    <g id="Group_436" data-name="Group 436">
      <path id="white" d="M-6591.846-1084.594h0l-20.616-20.619a94.676,94.676,0,0,1,11.321-31.03,95.653,95.653,0,0,1,20.931-25.06,95.106,95.106,0,0,1,28.3-16.643c.552-.207,1.115-.412,1.674-.609a103.253,103.253,0,0,0,12.458,16.811c5.747,6.078,14.02,12.029,18.439,15.035-.2.561-.378,1.057-.55,1.517a95.105,95.105,0,0,1-16.449,28.185,95.655,95.655,0,0,1-24.792,20.931,94.675,94.675,0,0,1-30.721,11.482Z" transform="translate(6677.424 1220.48)" fill="#fff"/>
      <g id="blue">
        <path id="Subtraction_29" data-name="Subtraction 29" d="M6.474,0V0A29.519,29.519,0,0,0,18.018,45.622,29.558,29.558,0,0,0,44.9,43.609,68.066,68.066,0,0,1,27.688,7.176,13.383,13.383,0,0,1,19.5,9.941,13.527,13.527,0,0,1,6.474,0Z" transform="matrix(0.017, -1, 1, 0.017, 78.089, 163.997)" fill="#97d1ff"/>
        <path id="Subtraction_28" data-name="Subtraction 28" d="M-6606.527-1122.059v0a29.379,29.379,0,0,1-4.754-8.5A29.431,29.431,0,0,1-6613-1140.5a29.3,29.3,0,0,1,2.318-11.482,29.4,29.4,0,0,1,6.322-9.377,29.393,29.393,0,0,1,9.377-6.322A29.317,29.317,0,0,1-6583.5-1170a29.442,29.442,0,0,1,15.4,4.331,68.066,68.066,0,0,0-17.208,36.433A13.383,13.383,0,0,0-6593.5-1132a13.527,13.527,0,0,0-13.025,9.939Z" transform="translate(6649 1244)" fill="#97d1ff"/>
        <path id="Path_4174" data-name="Path 4174" d="M6776.859,1224.12s1.521,10.833-.855,19.956-4.942,17.39-4.942,17.39-11.289-7.185-18.245-14.539a93.225,93.225,0,0,1-12.164-16.915,70.678,70.678,0,0,1,19.956-4.941A135.719,135.719,0,0,1,6776.859,1224.12Z" transform="translate(-6613 -1188)" fill="#97d1ff"/>
      </g>
      <g id="green">
        <path id="Path_4173" data-name="Path 4173" d="M6677.334,1303.734l19.961,20.074a23.015,23.015,0,0,1-8.884,9.9c-6.354,3.767-10.627,4.217-10.627,4.217l2.362-7.029a77.837,77.837,0,0,1-7.535,4.33c-2.474,1.068-9.953,2.7-9.953,2.7s1.125-6.073,3.261-9.615,4.724-7.816,4.724-7.816l-7.985,2.249s2.305-7.085,5.792-11.358A41.986,41.986,0,0,1,6677.334,1303.734Z" transform="translate(-6613 -1188)" fill="#77ffd6"/>
        <path id="Subtraction_27" data-name="Subtraction 27" d="M-6594.5-1151a18.378,18.378,0,0,1-13.081-5.419A18.378,18.378,0,0,1-6613-1169.5a18.378,18.378,0,0,1,5.419-13.081A18.378,18.378,0,0,1-6594.5-1188a18.381,18.381,0,0,1,13.082,5.419A18.378,18.378,0,0,1-6576-1169.5a18.378,18.378,0,0,1-5.419,13.081A18.381,18.381,0,0,1-6594.5-1151Zm0-31a12.514,12.514,0,0,0-12.5,12.5,12.514,12.514,0,0,0,12.5,12.5,12.515,12.515,0,0,0,12.5-12.5A12.515,12.515,0,0,0-6594.5-1182Z" transform="translate(6714 1250)" fill="#77ffd6"/>
      </g>
    </g>
    <g id="rocket" transform="translate(34 33.999)">
      <g id="Group_431" data-name="Group 431" transform="translate(0 0.001)">
        <g id="Group_430" data-name="Group 430">
          <path id="Path_4170" data-name="Path 4170" d="M132.022,1.945A1.961,1.961,0,0,0,130.116.039,103.211,103.211,0,0,0,82.13,10.423a1.962,1.962,0,0,0-.882,2.659h0a1.957,1.957,0,0,0,2.6.865q4.067-1.986,8.3-3.588a93.693,93.693,0,0,0,13.15,16.4,93.551,93.551,0,0,0,16.4,13.15c-.1.264-.195.528-.3.791A98.184,98.184,0,0,1,99.173,74.694a98.638,98.638,0,0,1-46.645,26.2L31.17,79.533a99.2,99.2,0,0,1,44.512-61.1,1.961,1.961,0,0,0-2.048-3.344A103.491,103.491,0,0,0,44.856,41.373,31,31,0,0,0,7.974,89.846a1.962,1.962,0,0,0,2.369.422,2.017,2.017,0,0,0,1.041-1.575,9.429,9.429,0,0,1,4.534-6.924c3.053-1.8,7.018-1.848,11.508-.145C22.119,85.369,16.2,91.4,14.059,100.443a2.006,2.006,0,0,0,.268,1.583,1.962,1.962,0,0,0,2.2.785l2.779-.844a51.233,51.233,0,0,0-5.265,13.723A2,2,0,0,0,14.21,117a1.964,1.964,0,0,0,2.122,1.032A51.388,51.388,0,0,0,30.1,112.749l-.828,2.724a2.032,2.032,0,0,0,.178,1.644,1.96,1.96,0,0,0,2.129.9c9.07-2.135,15.112-8.061,18.862-13.377,1.7,4.49,1.658,8.455-.144,11.508a9.428,9.428,0,0,1-6.934,4.535,2,2,0,0,0-1.488.905,1.963,1.963,0,0,0,.345,2.5,30.968,30.968,0,0,0,42.659-1.116,31.348,31.348,0,0,0,2.118-2.343,1.965,1.965,0,0,0-.378-2.849h0a1.965,1.965,0,0,0-2.66.371A27.392,27.392,0,0,1,82.1,120.2a27.058,27.058,0,0,1-34.341,3.271,13.347,13.347,0,0,0,5.907-5.334c1.617-2.739,2.965-7.254.856-13.7A102.321,102.321,0,0,0,87.458,89.52a27.045,27.045,0,0,1,.63,21.633,1.963,1.963,0,0,0,.961,2.505h0a1.956,1.956,0,0,0,2.665-1.016A30.962,30.962,0,0,0,90.692,87.2a103.321,103.321,0,0,0,11.255-9.737A102.08,102.08,0,0,0,125.06,42.123,102.5,102.5,0,0,0,132.022,1.945ZM13.924,78.393A13.344,13.344,0,0,0,8.59,84.3,27.083,27.083,0,0,1,42.541,44.6,102.315,102.315,0,0,0,27.627,77.537C21.178,75.427,16.663,76.776,13.924,78.393Zm20.151,34.745,1.234-4.062a1.961,1.961,0,0,0-2.962-2.2,60.49,60.49,0,0,1-13.695,6.533,60.234,60.234,0,0,1,6.533-13.691,1.961,1.961,0,0,0-2.2-2.965l-4.062,1.234a29.939,29.939,0,0,1,11.494-13.66l17.318,17.318A29.939,29.939,0,0,1,34.075,113.137Zm88.982-77.011a90.009,90.009,0,0,1-14.985-12.139A90.1,90.1,0,0,1,95.937,9.011a99.632,99.632,0,0,1,32.2-5.086A98.49,98.49,0,0,1,123.057,36.126Z" transform="translate(0 -0.001)" fill="#0e186e"/>
        </g>
      </g>
      <g id="Group_433" data-name="Group 433" transform="translate(64.483 26)">
        <g id="Group_432" data-name="Group 432">
          <path id="Path_4171" data-name="Path 4171" d="M285.488,106.887a20.794,20.794,0,1,0,0,29.407A20.657,20.657,0,0,0,285.488,106.887Zm-2.773,26.635a16.873,16.873,0,1,1,0-23.862A16.762,16.762,0,0,1,282.715,133.522Z" transform="translate(-250 -100.797)" fill="#0e186e"/>
        </g>
      </g>
      <g id="Group_435" data-name="Group 435" transform="translate(70.632 32.157)">
        <g id="Group_434" data-name="Group 434">
          <path id="Path_4172" data-name="Path 4172" d="M298.827,128.953a14.635,14.635,0,1,0,0,20.708A14.659,14.659,0,0,0,298.827,128.953Zm-2.773,17.935a10.716,10.716,0,1,1,0-15.163A10.733,10.733,0,0,1,296.055,146.888Z" transform="translate(-273.838 -124.671)" fill="#0e186e"/>
        </g>
      </g>
    </g>
  </g>
</svg>
