<svg xmlns="http://www.w3.org/2000/svg" width="464.728" height="433.221" viewBox="0 0 464.728 433.221"><defs><style>.a{fill:#cbffef;}.ab,.b,.h,.j,.l,.m,.o,.q,.r,.z{fill:#fff;}.c{fill:#e0e0e0;}.d,.k,.p,.u{fill:#97d1ff;}.e,.f{fill:#89e4c8;}.e,.j{opacity:0.3;}.aa,.g,.u{opacity:0.15;}.h,.v{opacity:0.9;}.i,.n,.t,.v{fill:#77ffd6;}.i,.m{opacity:0.8;}.k,.z{opacity:0.1;}.l{opacity:0.5;}.n,.o{opacity:0.7;}.p,.r{opacity:0.2;}.q,.t{opacity:0.6;}.s,.x{fill:#455a64;}.s{opacity:0.05;}.w{fill:#0e186e;}.y{fill:#263238;}.ab{opacity:0.35;}</style></defs><g transform="translate(-19.62 -47.469)"><ellipse class="a" cx="230.53" cy="105.2" rx="230.53" ry="105.2" transform="translate(19.62 270.29)"/><path class="b" d="M186.18,92,178,96.77a10,10,0,0,0,.07-1.08V93.31c0-4.24-3-6-6.64-3.84a12.88,12.88,0,0,0-4,3.81c-.6-5.33-4.78-7.31-9.85-4.38-5.49,3.17-9.94,10.87-9.94,17.21v3.56a9.46,9.46,0,0,0,.84,4.12l-6.82,3.94a8.16,8.16,0,0,0-3.68,6.38c0,2.35,1.65,3.3,3.68,2.13l44.52-25.7a8.16,8.16,0,0,0,3.68-6.38C189.86,91.81,188.21,90.86,186.18,92Z"/><path class="b" d="M74.45,93l5.12-4V77.76c0-8.94,7.13-19.31,14.86-23.78h0c7.74-4.47,14-.85,14,8.09v1.64A19.91,19.91,0,0,1,115,57.2h0c5.52-3.2,10-.61,10,5.8v.75l7.14-4.12c3.67-2.12,6.64-.41,6.64,3.83A14.68,14.68,0,0,1,132.17,75L74.45,108.31c-3.67,2.11-6.64.4-6.64-3.84A14.68,14.68,0,0,1,74.45,93Z"/><path class="c" d="M467.65,386.41a3.335,3.335,0,0,0-.06-.77v-.2a5.168,5.168,0,0,0-.1-.55l-.06-.2a5.083,5.083,0,0,0-.15-.52c0-.06-.05-.11-.07-.17s-.14-.36-.22-.54l-.06-.12c-.1-.18-.19-.37-.3-.55v-.07c-.12-.19-.24-.38-.38-.56h0c-.14-.19-.3-.37-.46-.55h0a7.55,7.55,0,0,0-2.2-1.63h0q-.36-.17-.72-.3h-.06c-.22-.08-.45-.14-.68-.2H462c-.21-.05-.43-.08-.64-.11h-.17a7.26,7.26,0,0,0-4.37.86,1.252,1.252,0,0,0-.1-.29,2.178,2.178,0,0,0-.11-.27c-.11-.3-.23-.6-.37-.89l-.1-.2c-.15-.31-.32-.61-.49-.91a.83.83,0,0,1-.08-.12c-.2-.32-.41-.62-.63-.92l-.05-.06a9.5,9.5,0,0,0-.76-.9h0a12.379,12.379,0,0,0-3.66-2.7h0a11.409,11.409,0,0,0-1.19-.49h-.1a10.328,10.328,0,0,0-1.12-.33l-.21-.05c-.35-.08-.71-.14-1.07-.19h-.28a11.951,11.951,0,0,0-1.35-.08,12.26,12.26,0,0,0-12,9.69,17.052,17.052,0,0,0-3.68-2.41h0a14.574,14.574,0,0,0-1.56-.65l-.27-.1c-.34-.12-.68-.22-1-.32l-.82-.21-.56-.11c-.42-.08-.85-.14-1.28-.19h-.31c-.5,0-1-.07-1.51-.07a16.87,16.87,0,0,0-16.55,13.64c-.22-.33-.46-.65-.69-1l-.19-.24a16.8,16.8,0,0,0-1.2-1.43l-.07-.07a19.987,19.987,0,0,0-1.48-1.43h0a20.89,20.89,0,0,0-6.68-4l-.33-.12c-.42-.14-.84-.27-1.27-.39l-1-.26-.69-.14c-.52-.1-1-.18-1.58-.24h-.39c-.61-.06-1.24-.09-1.87-.09a20.94,20.94,0,0,0-20.9,19.8h-.05a19.12,19.12,0,0,0-5.7-4.2h0a17.4,17.4,0,0,0-1.77-.75l-.3-.11q-.57-.19-1.17-.36l-.92-.23-.64-.13c-.47-.09-.95-.16-1.44-.22h-.35c-.57-.05-1.13-.08-1.71-.08a19.139,19.139,0,0,0-19.13,18.607c0,.183,0,.353,0,.533v.53a2.411,2.411,0,0,0,.07.43h-.28c-.21-.05-.43-.09-.64-.12h-.17a7.364,7.364,0,0,0-.82-.05,7.26,7.26,0,0,0-3.41.84,18.2,18.2,0,0,0-18.2-17.69,10.794,10.794,0,0,0-1.61.08h-.35c-.46.05-.91.12-1.37.2l-.6.13c-.3.06-.59.14-.88.22s-.75.22-1.11.34l-.28.1c-.58.21-1.14.45-1.69.71h0l-.8.4v-.46a21,21,0,0,0-21-20.39,11.48,11.48,0,0,0-1.86.1h-.39c-.54.06-1.06.14-1.58.24l-.7.14c-.34.08-.68.16-1,.26h-.14A17.78,17.78,0,0,0,257.63,365a11.859,11.859,0,0,0-1.58.07h-.33c-.46.05-.9.12-1.34.2l-.59.12-.87.22c-.36.1-.72.22-1.08.34l-.28.1a15.774,15.774,0,0,0-1.64.69h0a18.14,18.14,0,0,0-4,2.67h0a16.538,16.538,0,0,0-1.27,1.24h0c-.39.41-.75.85-1.1,1.3l-.07.09c-.32.43-.62.88-.91,1.34l-.11.18q-.39.65-.72,1.32c-.05.09-.1.19-.14.28-.17.36-.32.72-.47,1.09h0a14.773,14.773,0,0,0-1.5.08h-.32a6.611,6.611,0,0,0-1.25.18,12.21,12.21,0,0,0-13.54-10.83h-.27a4.8,4.8,0,0,0-1.07.19l-.21.05a10.5,10.5,0,0,0-1.13.33h-.09c-.41.15-.81.32-1.19.5h0a12.46,12.46,0,0,0-3.65,2.7h0a9.406,9.406,0,0,0-.75.9v.06a10.007,10.007,0,0,0-.63.92l-.08.12c-.18.3-.34.6-.49.91a1.864,1.864,0,0,0-.1.2c-.14.29-.26.59-.38.89l-.1.27a1,1,0,0,1-.1.29,7.26,7.26,0,0,0-4.37-.86h-.17a4.5,4.5,0,0,0-.64.11h-.13c-.23.06-.46.12-.68.2h-.06a7.759,7.759,0,0,0-.72.3h0a7.569,7.569,0,0,0-1.68,1.12h0c-.18.16-.36.33-.53.51h0c-.16.18-.31.36-.46.55h0c-.13.18-.25.37-.37.56l-.05.07c-.11.18-.21.37-.3.55l-.06.12c-.08.18-.16.36-.23.54l-.06.16c-.06.18-.11.36-.16.53a1.935,1.935,0,0,0-.05.2,5.351,5.351,0,0,0-.11.55v.2a6.476,6.476,0,0,0-.06.77,1.481,1.481,0,0,0,0,.21,1.341,1.341,0,0,0,0,.2,3.77,3.77,0,0,0,2.16,2.82,11.32,11.32,0,0,0,6.79,1.16h0a10.658,10.658,0,0,0,1.13-.19l.37-.1c.29-.07.56-.16.83-.25l.35-.13a7,7,0,0,0,1-.49c.18-.1.34-.2.49-.3h.05c.13-.1.26-.19.37-.29h0a2.28,2.28,0,0,0,.22-.22l.16.11a18.049,18.049,0,0,0,9.16,2.06c-.13.23-.24.48-.36.72-.05.09-.1.18-.14.27a13.259,13.259,0,0,0-.51,1.23l-.15.37c-.14.4-.25.8-.36,1.21a1.91,1.91,0,0,1-.13.45c-.09.41-.17.83-.23,1.25a3.691,3.691,0,0,1-.08.46,14.412,14.412,0,0,0-.14,1.75,5.532,5.532,0,0,0,0,.94c.19,2.34,1.84,4.63,4.93,6.43,4.19,2.41,10,3.29,15.42,2.64h0c.72-.09,1.43-.21,2.13-.35l.28-.06c.71-.15,1.41-.32,2.08-.53h0c.62-.19,1.22-.42,1.8-.66l.43-.18a18.135,18.135,0,0,0,1.71-.85c.39-.23.76-.46,1.1-.7l.16-.13c.29-.2.56-.41.81-.62h0a10.49,10.49,0,0,0,1.46-1.55h0a6.59,6.59,0,0,0,1.35-3.39,3.7,3.7,0,0,0,0-.47v-.15a28.358,28.358,0,0,0,3.33-.22h.27c-.14.34-.28.69-.4,1l-.16.48c-.16.52-.31,1-.44,1.57a.614.614,0,0,1-.07.34c-.12.58-.23,1.16-.31,1.76v.18c-.08.65-.13,1.31-.15,2a5.622,5.622,0,0,0,0,.58,5.826,5.826,0,0,0,0,.59c.24,2.9,2.28,5.75,6.12,8,5.2,3,12.44,4.09,19.14,3.28h.12c.75-.1,1.5-.22,2.23-.36l.76-.15.86-.2.95-.25.64-.19c.51-.15,1-.32,1.48-.5l.52-.21c.22-.09.45-.17.67-.27a.247.247,0,0,1-.05.15c-.15.43-.27.86-.39,1.3a2.256,2.256,0,0,1-.14.49c-.1.44-.18.89-.25,1.34l-.09.5q-.12.93-.15,1.89v1.01c.21,2.52,2,5,5.31,6.93,5.12,3,12.52,3.76,18.92,2.47l.3-.06c.76-.17,1.51-.35,2.24-.58h0c.67-.21,1.32-.45,1.95-.71l.46-.2a19.672,19.672,0,0,0,1.84-.91c.42-.25.82-.5,1.19-.76l.15-.12h0a3,3,0,0,0,.55,1.22h0a4,4,0,0,0,.64.67h0l.36.27a.18.18,0,0,0,.07.05,5.644,5.644,0,0,0,.48.31,7.088,7.088,0,0,0,1,.49l.34.13c.27.09.55.18.83.25l.37.09a10.43,10.43,0,0,0,1.14.2h0a11.28,11.28,0,0,0,6.8-1.15,3.81,3.81,0,0,0,2.16-2.82,1.411,1.411,0,0,0,0-.21,1.339,1.339,0,0,0,0-.2s0-.08,0-.12h0a14.552,14.552,0,0,0,1.3.68l.41.19q.49.23,1,.42l.47.19c.44.16.89.32,1.35.46l.59.17.86.23.79.18.69.14c.65.12,1.31.23,2,.32h.18c6.11.74,12.73-.26,17.48-3,3.5-2,5.36-4.63,5.58-7.28v-1.06a18.841,18.841,0,0,0-.16-2,3.032,3.032,0,0,0-.09-.51c-.06-.39-.12-.78-.2-1.16a1.265,1.265,0,0,0,.12.1c.42.29.88.58,1.37.87s.93.5,1.41.74l.46.21,1.08.46.51.2c.49.18,1,.35,1.48.5l.66.19.93.25.87.2.75.15c7.3,1.41,15.68.45,21.5-2.9,3.83-2.23,5.88-5.08,6.12-8v-1.17a15.258,15.258,0,0,0-.12-1.66h0l.11.09c.35.24.71.47,1.1.7a18.156,18.156,0,0,0,1.71.85l.43.18a18.575,18.575,0,0,0,1.81.66h0c.67.21,1.37.39,2.08.54l.28.06c5.93,1.2,12.8.44,17.55-2.3,3.09-1.79,4.74-4.09,4.93-6.43v-.94a14.569,14.569,0,0,0-.14-1.75,4.043,4.043,0,0,0-.08-.46c-.07-.42-.14-.84-.24-1.25l-.09-.34.85.29h0c.49.15,1,.27,1.51.38h.21c4.31.88,9.3.33,12.74-1.66l.17-.1a4.153,4.153,0,0,0,.63.52h0a5.611,5.611,0,0,0,.48.3,7.089,7.089,0,0,0,1,.49l.34.13c.27.09.55.18.83.25l.37.1a10.836,10.836,0,0,0,1.14.19h0a11.35,11.35,0,0,0,6.8-1.16,3.8,3.8,0,0,0,2.16-2.82,1.343,1.343,0,0,0,0-.2,1.48,1.48,0,0,0-.04-.23Z"/><path class="d" d="M453.46,345.5l-9.6-5.08a214.278,214.278,0,0,1,.41-26.3c1.61-16.35,13.76-35.32,26.35-30.7s-5.77,21.26-9.86,35.12S453.46,345.5,453.46,345.5Z"/><path class="e" d="M453.46,345.5l-9.6-5.08a214.278,214.278,0,0,1,.41-26.3c1.61-16.35,13.76-35.32,26.35-30.7s-5.77,21.26-9.86,35.12S453.46,345.5,453.46,345.5Z"/><path class="b" d="M448.77,343.8h0a.42.42,0,0,0,.41-.44c-1.23-36.31,16.85-54.58,17-54.76a.424.424,0,1,0-.6-.6c-.18.18-18.52,18.71-17.28,55.39a.43.43,0,0,0,.47.41Z"/><path class="d" d="M458.39,348.4l-5-2.88a55.889,55.889,0,0,1,3.09-24.23c4.63-12.55,16.58-19.39,22.08-17.52,6.71,2.28,6.75,8.71,4.31,12.94C480,321.69,462,334.29,458.39,348.4Z"/><path class="f" d="M458.39,348.4l-5-2.88a55.889,55.889,0,0,1,3.09-24.23c4.63-12.55,16.58-19.39,22.08-17.52,6.71,2.28,6.75,8.71,4.31,12.94C480,321.69,462,334.29,458.39,348.4Z"/><path class="b" d="M455.75,347.3h0a.42.42,0,0,0,.42-.42c-.1-23,21.46-38.48,21.68-38.63a.43.43,0,0,0-.5-.7c-.22.16-22.13,15.93-22,39.33a.42.42,0,0,0,.4.42Z"/><path class="d" d="M52.27,345.13l6.24-3.56s3-16.49.75-30.67c-3.14-19.9-16.71-26.8-21.64-24.82s-6.09,7.88,2.81,19.4C45.68,312.27,52.44,326.64,52.27,345.13Z"/><g class="g"><path d="M52.27,345.13l6.24-3.56s3-16.49.75-30.67c-3.14-19.9-16.71-26.8-21.64-24.82s-6.09,7.88,2.81,19.4C45.68,312.27,52.44,326.64,52.27,345.13Z"/></g><path class="b" d="M54.53,337.22h-.06a.45.45,0,0,1-.38-.5c2.58-18.66-4.93-39.1-13.36-47.34a.44.44,0,0,1,0-.63.45.45,0,0,1,.63,0c8.58,8.39,16.23,29.17,13.61,48.1A.44.44,0,0,1,54.53,337.22Z"/><path class="f" d="M35,355.13c-1,.57-3-.67-3.8-1.19a9.51,9.51,0,0,1-3.2-3.59,8.87,8.87,0,0,1-.78-5.3,20.879,20.879,0,0,1,.67-2.81c.26-.91.52-1.83.79-2.74a7,7,0,0,0,.4-2.75c-.24-1.87-1.9-3.18-3.41-4.31-1.67-1.25-3.4-2.9-3.4-5.15a7.9,7.9,0,0,1,2-4.71c1.07-1.36,2.35-2.57,3.32-4a5.54,5.54,0,0,0,1.14-3.49,5.91,5.91,0,0,0-.77-2.19,31,31,0,0,1-2.39-4.38,4.41,4.41,0,0,1,.76-4.66,5.18,5.18,0,0,1,3.87-1,8.69,8.69,0,0,1,3.6,1.27c3.58,2,5.62,6.21,9.41,7.74A37.007,37.007,0,0,0,47.82,313a5.71,5.71,0,0,1,3.78,2.6c1.39,2.78-1.19,6.2-.21,9.15.86,2.61,3.4,3.61,4.82,6a5.54,5.54,0,0,1,.67,3.42,16.5,16.5,0,0,1-1.44,5.78,42,42,0,0,1-3.17,5.2C52.21,345.19,35.11,355.05,35,355.13Z"/><path class="b" d="M45.09,349.74h0a.45.45,0,0,1-.43-.47c.74-17.66-7.58-37.16-13.64-42.82a.46.46,0,0,1,0-.63.44.44,0,0,1,.63,0c6.18,5.78,14.67,25.6,13.92,43.51A.45.45,0,0,1,45.09,349.74Z"/><path class="b" d="M42.44,328.87h-.13a60.659,60.659,0,0,0-12.82-2.07.44.44,0,0,1-.42-.46.42.42,0,0,1,.46-.42,60.222,60.222,0,0,1,13,2.1.44.44,0,0,1-.13.87Z"/><path class="d" d="M390.71,388c0,13.43-26.57,24.32-59.34,24.32S272,401.44,272,388s26.57-24.33,59.34-24.33S390.71,374.57,390.71,388Z"/><path class="d" d="M390.71,388c0,13.43-26.57,24.32-59.34,24.32S272,401.44,272,388s26.57-24.33,59.34-24.33S390.71,374.57,390.71,388Z"/><ellipse class="h" cx="64.2" cy="26.32" rx="64.2" ry="26.32" transform="translate(267.17 361.69)"/><path class="d" d="M270.93,366.44a26.37,26.37,0,0,1,52.72,0c0,.25,0,.48,0,.73v.74c-.3,3.65-2.87,7.23-7.72,10-10.28,5.95-27,5.95-37.31,0-4.82-2.8-7.39-6.38-7.69-10v-.74C270.93,366.91,270.91,366.69,270.93,366.44Z"/><path class="i" d="M270.93,366.44a26.37,26.37,0,0,1,52.72,0c0,.25,0,.48,0,.73v.74c-.3,3.65-2.87,7.23-7.72,10-10.28,5.95-27,5.95-37.31,0-4.82-2.8-7.39-6.38-7.69-10v-.74C270.93,366.91,270.91,366.69,270.93,366.44Z"/><path class="j" d="M285.85,343.43h0a26.32,26.32,0,0,1,37.8,23c0,.25,0,.48,0,.73v.74c-.3,3.65-2.87,7.23-7.72,10a35.24,35.24,0,0,1-13.23,4.13c6.84-1.18,11.27-8.82,9.17-17.25C309.43,355,299.54,340.9,285.85,343.43Z"/><path class="k" d="M270.93,367.91v-1.47a26.23,26.23,0,0,1,8.95-19.05c-2.86,2.94-9.23,14-2.31,22.5,4.55,5.57,26.17,13.51,44,3.3a18.309,18.309,0,0,1-5.6,4.75c-10.28,5.95-27,5.95-37.31,0C273.8,375.14,271.23,371.56,270.93,367.91Z"/><path class="l" d="M297.56,346.74c-1.18,2.69,1.08,6.28,5.06,8s8.16,1,9.34-1.71-1.09-6.28-5.06-8S298.74,344.05,297.56,346.74Z"/><path class="l" d="M312.83,357.68c-.61,1.4.28,3.14,2,3.9s3.61.23,4.22-1.17-.27-3.15-2-3.9S313.45,356.28,312.83,357.68Z"/><path class="d" d="M381.15,366a22.387,22.387,0,1,0-44.775,0c.005.22.005.41.005.63v.62c.25,3.1,2.44,6.14,6.55,8.52,8.74,5.05,22.93,5.05,31.69,0,4.09-2.38,6.27-5.42,6.53-8.52v-.62C381.15,366.42,381.17,366.25,381.15,366Z"/><path class="m" d="M381.15,366a22.387,22.387,0,1,0-44.775,0c.005.22.005.41.005.63v.62c.25,3.1,2.44,6.14,6.55,8.52,8.74,5.05,22.93,5.05,31.69,0,4.09-2.38,6.27-5.42,6.53-8.52v-.62C381.15,366.42,381.17,366.25,381.15,366Z"/><path class="j" d="M368.48,346.49h0A22.35,22.35,0,0,0,336.38,366c0,.22,0,.41,0,.63v.62c.25,3.1,2.44,6.14,6.55,8.52a29.779,29.779,0,0,0,11.24,3.51c-5.81-1-9.57-7.49-7.79-14.65C348.46,356.35,356.86,344.34,368.48,346.49Z"/><path class="k" d="M381.15,367.28v-1.25a22.29,22.29,0,0,0-7.6-16.18c2.43,2.5,7.84,11.93,2,19.12-3.87,4.72-22.22,11.47-37.33,2.8a15.5,15.5,0,0,0,4.75,4c8.74,5.05,22.93,5.05,31.69,0C378.71,373.42,380.89,370.38,381.15,367.28Z"/><path class="l" d="M358.54,349.3c1,2.28-.93,5.34-4.3,6.82s-6.93.84-7.94-1.45.93-5.33,4.31-6.82S357.53,347,358.54,349.3Z"/><path class="l" d="M345.57,358.59a2.94,2.94,0,1,1-3.59-1,2.66,2.66,0,0,1,3.59,1Z"/><path class="d" d="M403,368.61a14.81,14.81,0,0,0-29.6,0,2.824,2.824,0,0,0,0,.41,2.879,2.879,0,0,0,0,.42c.17,2.05,1.61,4.06,4.33,5.63,5.78,3.34,15.16,3.34,20.95,0,2.71-1.57,4.15-3.58,4.32-5.63v-.83Z"/><path class="h" d="M403,368.61a14.81,14.81,0,0,0-29.6,0,2.824,2.824,0,0,0,0,.41,2.879,2.879,0,0,0,0,.42c.17,2.05,1.61,4.06,4.33,5.63,5.78,3.34,15.16,3.34,20.95,0,2.71-1.57,4.15-3.58,4.32-5.63v-.83Z"/><path class="l" d="M394.63,355.69h0a14.78,14.78,0,0,0-21.22,12.92,2.825,2.825,0,0,0,0,.41,2.879,2.879,0,0,0,0,.42c.17,2.05,1.61,4.06,4.33,5.63a19.759,19.759,0,0,0,7.43,2.32c-3.84-.66-6.33-4.95-5.15-9.69C381.39,362.21,387,354.27,394.63,355.69Z"/><path class="k" d="M403,369.44v-.83a14.76,14.76,0,0,0-5-10.7c1.6,1.66,5.18,7.89,1.29,12.64-2.55,3.13-14.69,7.59-24.68,1.86a10.319,10.319,0,0,0,3.14,2.66c5.78,3.34,15.16,3.34,20.95,0C401.4,373.5,402.84,371.49,403,369.44Z"/><path class="l" d="M388.06,357.55c.66,1.51-.61,3.53-2.85,4.51s-4.58.55-5.24-1,.61-3.53,2.84-4.51S387.4,356,388.06,357.55Z"/><path class="l" d="M379.48,363.69a1.94,1.94,0,1,1-2.377-.677A1.94,1.94,0,0,1,379.48,363.69Z"/><path class="d" d="M434.55,375.05a20.12,20.12,0,0,0-40.23,0v1.12c.23,2.79,2.19,5.52,5.89,7.66,7.85,4.54,20.61,4.54,28.47,0,3.68-2.14,5.65-4.87,5.87-7.66a5.155,5.155,0,0,0,0-.56A5.331,5.331,0,0,0,434.55,375.05Z"/><path class="n" d="M434.55,375.05a20.12,20.12,0,0,0-40.23,0v1.12c.23,2.79,2.19,5.52,5.89,7.66,7.85,4.54,20.61,4.54,28.47,0,3.68-2.14,5.65-4.87,5.87-7.66a5.155,5.155,0,0,0,0-.56A5.331,5.331,0,0,0,434.55,375.05Z"/><path class="j" d="M423.17,357.49h0a20.1,20.1,0,0,0-28.85,17.56v1.12c.23,2.79,2.19,5.52,5.89,7.66a26.85,26.85,0,0,0,10.1,3.15c-5.22-.9-8.6-6.73-7-13.16C405.18,366.35,412.72,355.56,423.17,357.49Z"/><path class="k" d="M434.55,376.17a5.155,5.155,0,0,0,0-.56,5.331,5.331,0,0,0,0-.56,20,20,0,0,0-6.83-14.54c2.19,2.25,7,10.72,1.77,17.18-3.48,4.25-20,10.31-33.55,2.52a14,14,0,0,0,4.27,3.62c7.85,4.54,20.61,4.54,28.47,0C432.36,381.69,434.33,379,434.55,376.17Z"/><path class="l" d="M414.23,360c.91,2.05-.83,4.79-3.86,6.12s-6.23.76-7.13-1.3.83-4.79,3.87-6.12S413.33,358,414.23,360Z"/><path class="l" d="M402.58,368.37a2.64,2.64,0,1,1-3.22-.9,2.38,2.38,0,0,1,3.22.9Z"/><path class="d" d="M355.45,298.44A24,24,0,0,1,347,316.76a15.66,15.66,0,0,0-5.69,11.92v57.61c0,1.46-1,2.93-2.9,4a12.26,12.26,0,0,1-3.63,1.33,16.89,16.89,0,0,1-6.72,0,12.66,12.66,0,0,1-3.62-1.33c-1.93-1.11-2.89-2.58-2.89-4V328.57a15.52,15.52,0,0,0-5.67-11.79,24.088,24.088,0,1,1,39.615-18.34Z"/><path class="l" d="M355.45,298.44A24,24,0,0,1,347,316.76a15.66,15.66,0,0,0-5.69,11.92v57.61c0,1.46-1,2.93-2.9,4a12.26,12.26,0,0,1-3.63,1.33,16.89,16.89,0,0,1-6.72,0,12.66,12.66,0,0,1-3.62-1.33c-1.93-1.11-2.89-2.58-2.89-4V328.57a15.52,15.52,0,0,0-5.67-11.79,24.088,24.088,0,1,1,39.615-18.34Z"/><path class="d" d="M344.81,298.44a13.381,13.381,0,0,1-5.661,10.931,10.91,10.91,0,0,0-4.409,8.929v69.42a3.4,3.4,0,0,1-3.33,3.44h-.06a3.4,3.4,0,0,1-3.33-3.44V318.13a10.71,10.71,0,0,0-4.41-8.76A13.42,13.42,0,0,1,318,298.06a13.57,13.57,0,0,1,12.89-13,13.43,13.43,0,0,1,13.92,13.38Z"/><path class="o" d="M344.81,298.44a13.381,13.381,0,0,1-5.661,10.931,10.91,10.91,0,0,0-4.409,8.929v69.42a3.4,3.4,0,0,1-3.33,3.44h-.06a3.4,3.4,0,0,1-3.33-3.44V318.13a10.71,10.71,0,0,0-4.41-8.76A13.42,13.42,0,0,1,318,298.06a13.57,13.57,0,0,1,12.89-13,13.43,13.43,0,0,1,13.92,13.38Z"/><circle class="m" cx="5.09" cy="5.09" r="5.09" transform="translate(338.49 304.85)"/><path class="o" d="M337.59,294.84a3.84,3.84,0,1,1,3.83,3.84,3.84,3.84,0,0,1-3.83-3.84Z"/><path class="m" d="M330.27,288.73a1.9,1.9,0,1,1,1.9,1.9A1.9,1.9,0,0,1,330.27,288.73Z"/><path class="o" d="M315.1,291a5.14,5.14,0,1,1,1.505,3.645A5.15,5.15,0,0,1,315.1,291Z"/><path class="m" d="M314.24,300.32a2.42,2.42,0,1,0,2.41-2.41,2.42,2.42,0,0,0-2.41,2.41Z"/><path class="o" d="M314.5,309.56a4.7,4.7,0,1,1,4.69,4.69,4.7,4.7,0,0,1-4.69-4.69Z"/><path class="o" d="M326.16,316.41a3.24,3.24,0,1,1,3.23,3.23A3.24,3.24,0,0,1,326.16,316.41Z"/><path class="o" d="M309.65,294.84a1.64,1.64,0,1,1,.48,1.17,1.65,1.65,0,0,1-.48-1.17Z"/><path class="m" d="M345.5,288a2.17,2.17,0,1,1,2.17,2.17A2.17,2.17,0,0,1,345.5,288Z"/><path class="o" d="M347.66,298.68a2.18,2.18,0,1,1,2.18,2.18,2.18,2.18,0,0,1-2.18-2.18Z"/><path class="m" d="M327.21,300.86a2.19,2.19,0,1,1,2.18,2.18,2.19,2.19,0,0,1-2.18-2.18Z"/><path class="d" d="M457.27,378.54a12.26,12.26,0,0,0-24.52,0c0,.12,0,.22,0,.34v.34c.14,1.7,1.34,3.37,3.59,4.67,4.79,2.76,12.56,2.76,17.35,0,2.25-1.3,3.44-3,3.58-4.67v-.34C457.27,378.76,457.28,378.66,457.27,378.54Z"/><path class="l" d="M457.27,378.54a12.26,12.26,0,0,0-24.52,0c0,.12,0,.22,0,.34v.34c.14,1.7,1.34,3.37,3.59,4.67,4.79,2.76,12.56,2.76,17.35,0,2.25-1.3,3.44-3,3.58-4.67v-.34C457.27,378.76,457.28,378.66,457.27,378.54Z"/><path class="l" d="M450.33,367.83h0a12.25,12.25,0,0,0-17.58,10.71v.68c.14,1.7,1.34,3.37,3.59,4.67a16.32,16.32,0,0,0,6.15,1.92c-3.18-.55-5.24-4.1-4.26-8C439.37,373.23,444,366.66,450.33,367.83Z"/><path class="p" d="M457.27,379.22v-.68a12.18,12.18,0,0,0-4.16-8.86c1.33,1.37,4.3,6.53,1.07,10.46-2.11,2.59-12.17,6.29-20.44,1.54a8.549,8.549,0,0,0,2.6,2.21c4.79,2.76,12.56,2.76,17.35,0C455.94,382.59,457.13,380.92,457.27,379.22Z"/><path class="l" d="M444.89,369.37c.55,1.25-.51,2.93-2.36,3.74s-3.79.46-4.34-.79.5-2.93,2.35-3.74S444.34,368.12,444.89,369.37Z"/><path class="l" d="M437.78,374.46a1.61,1.61,0,1,1-2-.54,1.46,1.46,0,0,1,2,.54Z"/><path class="d" d="M438.91,388.63a16.89,16.89,0,0,0-33.77,0v.94c.19,2.34,1.84,4.64,4.94,6.43,6.59,3.81,17.3,3.81,23.9,0,3.09-1.79,4.74-4.09,4.93-6.43v-.47C438.91,388.94,438.92,388.79,438.91,388.63Z"/><path class="q" d="M438.91,388.63a16.89,16.89,0,0,0-33.77,0v.94c.19,2.34,1.84,4.64,4.94,6.43,6.59,3.81,17.3,3.81,23.9,0,3.09-1.79,4.74-4.09,4.93-6.43v-.47C438.91,388.94,438.92,388.79,438.91,388.63Z"/><path class="l" d="M429.35,373.89h0a16.88,16.88,0,0,0-24.21,14.74v.94c.19,2.34,1.84,4.64,4.94,6.43a22.451,22.451,0,0,0,8.48,2.64c-4.38-.75-7.22-5.64-5.87-11.05C414.25,381.33,420.59,372.27,429.35,373.89Z"/><path class="k" d="M438.91,389.57v-.94a16.82,16.82,0,0,0-5.74-12.2c1.84,1.89,5.92,9,1.49,14.41-2.92,3.57-16.77,8.66-28.16,2.12a12,12,0,0,0,3.58,3c6.59,3.81,17.3,3.81,23.9,0C437.07,394.21,438.72,391.91,438.91,389.57Z"/><path class="j" d="M421.85,376c.76,1.73-.69,4-3.24,5.15s-5.23.63-6-1.09.69-4,3.24-5.15S421.1,374.29,421.85,376Z"/><path class="j" d="M412.07,383a2.22,2.22,0,1,1-2.7-.75A2,2,0,0,1,412.07,383Z"/><path class="d" d="M409,396.85a21,21,0,0,0-41.91,0,5.73,5.73,0,0,0,0,.59,5.613,5.613,0,0,0,0,.58c.24,2.9,2.28,5.75,6.13,8,8.18,4.72,21.47,4.72,29.66,0,3.83-2.23,5.88-5.08,6.12-8v-1.17Z"/><path class="m" d="M409,396.85a21,21,0,0,0-41.91,0,5.73,5.73,0,0,0,0,.59,5.613,5.613,0,0,0,0,.58c.24,2.9,2.28,5.75,6.13,8,8.18,4.72,21.47,4.72,29.66,0,3.83-2.23,5.88-5.08,6.12-8v-1.17Z"/><path class="j" d="M397.1,378.56h0a20.94,20.94,0,0,0-30.05,18.29,5.73,5.73,0,0,0,0,.59,5.621,5.621,0,0,0,0,.58c.24,2.9,2.28,5.75,6.13,8a28.17,28.17,0,0,0,10.52,3.28c-5.44-.94-9-7-7.28-13.72C378.36,387.79,386.22,376.55,397.1,378.56Z"/><path class="k" d="M409,398v-1.17a20.85,20.85,0,0,0-7.12-15.14c2.28,2.34,7.34,11.16,1.84,17.89-3.62,4.42-20.8,10.73-34.94,2.62a14.621,14.621,0,0,0,4.44,3.78c8.18,4.72,21.47,4.72,29.66,0C406.67,403.77,408.72,400.92,409,398Z"/><path class="j" d="M387.79,381.19c.94,2.14-.86,5-4,6.38s-6.49.79-7.43-1.35.87-5,4-6.38S386.85,379.06,387.79,381.19Z"/><path class="j" d="M375.65,389.89a2.75,2.75,0,1,1-3.35-.93,2.49,2.49,0,0,1,3.35.93Z"/><path class="d" d="M334,392.74a17.54,17.54,0,0,0-35.06,0,6,6,0,0,0,0,1c.2,2.43,1.91,4.81,5.13,6.67,6.84,4,18,4,24.81,0,3.21-1.86,4.92-4.24,5.12-6.67v-1Z"/><path class="m" d="M334,392.74a17.54,17.54,0,0,0-35.06,0,6,6,0,0,0,0,1c.2,2.43,1.91,4.81,5.13,6.67,6.84,4,18,4,24.81,0,3.21-1.86,4.92-4.24,5.12-6.67v-1Z"/><path class="j" d="M324,377.44h0a17.51,17.51,0,0,0-25.14,15.3,6,6,0,0,0,0,1c.2,2.43,1.91,4.81,5.13,6.67a23.25,23.25,0,0,0,8.8,2.75c-4.55-.79-7.49-5.87-6.1-11.47C308.35,385.16,314.92,375.76,324,377.44Z"/><path class="k" d="M334,393.72v-.98a17.45,17.45,0,0,0-6-12.67c1.9,2,6.14,9.34,1.53,15-3,3.7-17.4,9-29.23,2.2a12.24,12.24,0,0,0,3.72,3.15c6.84,4,18,4,24.81,0C332,398.53,333.75,396.15,334,393.72Z"/><path class="j" d="M316.24,379.64c.79,1.79-.72,4.18-3.37,5.34s-5.42.65-6.21-1.13.72-4.18,3.37-5.34S315.46,377.85,316.24,379.64Z"/><path class="j" d="M306.08,386.92a2.3,2.3,0,1,1-2.8-.78,2.07,2.07,0,0,1,2.8.78Z"/><path class="d" d="M363.09,396.37a15.4,15.4,0,0,0-30.78,0c0,.15,0,.29,0,.43v.43c.18,2.13,1.68,4.22,4.51,5.86,6,3.47,15.76,3.47,21.78,0,2.81-1.64,4.31-3.73,4.49-5.86v-.43C363.09,396.65,363.1,396.52,363.09,396.37Z"/><path class="m" d="M363.09,396.37a15.4,15.4,0,0,0-30.78,0c0,.15,0,.29,0,.43v.43c.18,2.13,1.68,4.22,4.51,5.86,6,3.47,15.76,3.47,21.78,0,2.81-1.64,4.31-3.73,4.49-5.86v-.43C363.09,396.65,363.1,396.52,363.09,396.37Z"/><path class="j" d="M354.38,382.94h0a15.37,15.37,0,0,0-22.07,13.43v.86c.18,2.13,1.68,4.22,4.51,5.86a20.4,20.4,0,0,0,7.72,2.41c-4-.69-6.58-5.15-5.35-10.07C340.61,389.72,346.39,381.46,354.38,382.94Z"/><path class="k" d="M363.09,397.23v-.86a15.32,15.32,0,0,0-5.23-11.12c1.67,1.72,5.39,8.2,1.35,13.14-2.66,3.25-15.28,7.89-25.66,1.93a10.811,10.811,0,0,0,3.27,2.77c6,3.47,15.76,3.47,21.78,0C361.41,401.45,362.91,399.36,363.09,397.23Z"/><path class="j" d="M347.54,384.87c.69,1.57-.63,3.67-3,4.69s-4.77.57-5.46-1,.64-3.67,3-4.69S346.85,383.3,347.54,384.87Z"/><path class="j" d="M338.63,391.26a1.84,1.84,0,0,1-1.17,2.28,1.65,1.65,0,1,1,1.17-2.28Z"/><path class="d" d="M467.65,381.41a7.41,7.41,0,0,0-14.82,0v.41a3.81,3.81,0,0,0,2.17,2.82,11.55,11.55,0,0,0,10.49,0,3.8,3.8,0,0,0,2.16-2.82,1.338,1.338,0,0,0,0-.2,1.479,1.479,0,0,0,0-.21Z"/><path class="r" d="M467.65,381.41a7.41,7.41,0,0,0-14.82,0v.41a3.81,3.81,0,0,0,2.17,2.82,11.55,11.55,0,0,0,10.49,0,3.8,3.8,0,0,0,2.16-2.82,1.338,1.338,0,0,0,0-.2,1.479,1.479,0,0,0,0-.21Z"/><path class="l" d="M463.46,374.94h0a7.41,7.41,0,0,0-10.63,6.47v.41a3.81,3.81,0,0,0,2.17,2.82,9.84,9.84,0,0,0,3.72,1.16c-1.92-.33-3.17-2.47-2.58-4.84C456.83,378.21,459.61,374.23,463.46,374.94Z"/><path class="s" d="M467.65,381.82a1.342,1.342,0,0,0,0-.2,1.475,1.475,0,0,0,0-.21,7.36,7.36,0,0,0-2.52-5.35c.81.82,2.6,3.94.65,6.32-1.28,1.57-7.35,3.8-12.35.93a5,5,0,0,0,1.57,1.33,11.55,11.55,0,0,0,10.49,0,3.8,3.8,0,0,0,2.16-2.82Z"/><path class="j" d="M460.17,375.87c.33.76-.31,1.77-1.43,2.26s-2.29.28-2.62-.48.3-1.76,1.42-2.25S459.83,375.12,460.17,375.87Z"/><path class="j" d="M455.87,379a1,1,0,1,1-1.15-.248A1,1,0,0,1,455.87,379Z"/><path class="d" d="M213.37,372.29a12.26,12.26,0,1,1,24.52,0c0,.11,0,.22,0,.34v.34c-.13,1.7-1.33,3.36-3.58,4.67-4.79,2.76-12.56,2.76-17.36,0-2.24-1.31-3.44-3-3.58-4.67v-.34C213.37,372.51,213.36,372.4,213.37,372.29Z"/><path class="l" d="M213.37,372.29a12.26,12.26,0,1,1,24.52,0c0,.11,0,.22,0,.34v.34c-.13,1.7-1.33,3.36-3.58,4.67-4.79,2.76-12.56,2.76-17.36,0-2.24-1.31-3.44-3-3.58-4.67v-.34C213.37,372.51,213.36,372.4,213.37,372.29Z"/><path class="l" d="M220.31,361.58h0a12.25,12.25,0,0,1,17.58,10.71c0,.11,0,.22,0,.34v.34c-.13,1.7-1.33,3.36-3.58,4.67a16.32,16.32,0,0,1-6.16,1.92c3.18-.55,5.24-4.1,4.26-8C231.28,367,226.68,360.41,220.31,361.58Z"/><path class="p" d="M213.37,373v-.68a12.23,12.23,0,0,1,4.17-8.87c-1.33,1.37-4.3,6.54-1.08,10.47,2.12,2.59,12.17,6.29,20.45,1.54a8.669,8.669,0,0,1-2.6,2.21c-4.79,2.76-12.56,2.76-17.36,0C214.71,376.33,213.51,374.67,213.37,373Z"/><path class="j" d="M225.76,363.12c-.55,1.25.5,2.93,2.35,3.74s3.8.46,4.35-.79-.51-2.93-2.36-3.74S226.31,361.87,225.76,363.12Z"/><path class="j" d="M232.86,368.21a1.47,1.47,0,0,0,.93,1.82,1.32,1.32,0,1,0-.93-1.82Z"/><path class="d" d="M239.67,377a17.79,17.79,0,0,1,35.57,0v.99c-.21,2.46-1.94,4.88-5.21,6.77-6.94,4-18.22,4-25.17,0-3.25-1.89-5-4.31-5.19-6.77a4.179,4.179,0,0,1,0-.5A4,4,0,0,1,239.67,377Z"/><path class="o" d="M239.67,377a17.79,17.79,0,0,1,35.57,0v.99c-.21,2.46-1.94,4.88-5.21,6.77-6.94,4-18.22,4-25.17,0-3.25-1.89-5-4.31-5.19-6.77a4.179,4.179,0,0,1,0-.5A4,4,0,0,1,239.67,377Z"/><path class="j" d="M249.73,361.44h0A17.78,17.78,0,0,1,275.24,377v.99c-.21,2.46-1.94,4.88-5.21,6.77a23.469,23.469,0,0,1-8.92,2.78c4.61-.79,7.6-5.94,6.18-11.63C265.64,369.28,259,359.74,249.73,361.44Z"/><path class="k" d="M239.67,378a4.179,4.179,0,0,1,0-.5,4,4,0,0,1,0-.49,17.69,17.69,0,0,1,6-12.86c-1.93,2-6.23,9.48-1.56,15.19,3.07,3.75,17.65,9.11,29.66,2.23a12.37,12.37,0,0,1-3.78,3.2c-6.94,4-18.22,4-25.17,0C241.61,382.84,239.87,380.42,239.67,378Z"/><path class="l" d="M257.63,363.68c-.79,1.81.74,4.23,3.42,5.41s5.51.67,6.3-1.15-.73-4.23-3.42-5.41S258.43,361.86,257.63,363.68Z"/><path class="l" d="M267.94,371.06a2.34,2.34,0,1,0,2.85-.79,2.11,2.11,0,0,0-2.85.79Z"/><path class="d" d="M224,387.41a16.89,16.89,0,0,1,33.76,0,5.531,5.531,0,0,1,0,.94c-.19,2.34-1.84,4.63-4.94,6.43-6.59,3.81-17.29,3.81-23.89,0-3.09-1.8-4.74-4.09-4.93-6.43a5.528,5.528,0,0,1,0-.94Z"/><path class="t" d="M224,387.41a16.89,16.89,0,0,1,33.76,0,5.531,5.531,0,0,1,0,.94c-.19,2.34-1.84,4.63-4.94,6.43-6.59,3.81-17.29,3.81-23.89,0-3.09-1.8-4.74-4.09-4.93-6.43a5.528,5.528,0,0,1,0-.94Z"/><path class="l" d="M233.56,372.67h0a16.86,16.86,0,0,1,24.21,14.74,5.528,5.528,0,0,1,0,.94c-.19,2.34-1.84,4.63-4.94,6.43a22.45,22.45,0,0,1-8.47,2.64c4.38-.76,7.21-5.65,5.87-11.05C248.67,380.11,242.33,371.05,233.56,372.67Z"/><path class="u" d="M224,388.35a5.53,5.53,0,0,1,0-.94,16.75,16.75,0,0,1,5.73-12.2c-1.83,1.88-5.91,9-1.48,14.41,2.92,3.57,16.76,8.65,28.16,2.12a11.9,11.9,0,0,1-3.59,3c-6.59,3.81-17.29,3.81-23.89,0C225.85,393,224.2,390.69,224,388.35Z"/><path class="j" d="M241.06,374.79c-.75,1.72.7,4,3.25,5.14s5.22.63,6-1.09-.7-4-3.25-5.14S241.82,373.07,241.06,374.79Z"/><path class="j" d="M250.85,381.8a2.21,2.21,0,1,0,2.7-.75A2,2,0,0,0,250.85,381.8Z"/><path class="d" d="M259.83,394.82a21,21,0,0,1,41.91,0v1.17c-.24,2.9-2.29,5.75-6.14,8-8.17,4.73-21.46,4.73-29.65,0-3.84-2.22-5.88-5.07-6.12-8a5.826,5.826,0,0,1,0-.59,5.622,5.622,0,0,1,0-.58Z"/><path class="m" d="M259.83,394.82a21,21,0,0,1,41.91,0v1.17c-.24,2.9-2.29,5.75-6.14,8-8.17,4.73-21.46,4.73-29.65,0-3.84-2.22-5.88-5.07-6.12-8a5.826,5.826,0,0,1,0-.59,5.622,5.622,0,0,1,0-.58Z"/><path class="j" d="M271.69,376.53h0a20.92,20.92,0,0,1,30.05,18.29v1.17c-.24,2.9-2.29,5.75-6.14,8a27.769,27.769,0,0,1-10.51,3.28c5.43-.93,9-7,7.28-13.71C290.43,385.76,282.57,374.52,271.69,376.53Z"/><path class="k" d="M259.83,396a5.827,5.827,0,0,1,0-.59,5.622,5.622,0,0,1,0-.58A20.89,20.89,0,0,1,267,379.67c-2.28,2.35-7.35,11.17-1.84,17.9,3.62,4.42,20.8,10.73,34.94,2.62a14.4,14.4,0,0,1-4.5,3.81c-8.17,4.73-21.46,4.73-29.65,0C262.11,401.74,260.07,398.89,259.83,396Z"/><path class="j" d="M281,379.16c-.94,2.14.86,5,4,6.38s6.49.78,7.43-1.35-.87-5-4-6.38S281.93,377,281,379.16Z"/><path class="j" d="M293.14,387.86a2.75,2.75,0,1,0,3.35-.93A2.47,2.47,0,0,0,293.14,387.86Z"/><path class="d" d="M372.15,408.69a19.14,19.14,0,0,0-38.26,0v1.06c.22,2.65,2.09,5.25,5.6,7.28,7.47,4.32,19.6,4.32,27.08,0,3.5-2,5.36-4.63,5.58-7.28v-.53C372.15,409.04,372.16,408.87,372.15,408.69Z"/><path class="v" d="M372.15,408.69a19.14,19.14,0,0,0-38.26,0v1.06c.22,2.65,2.09,5.25,5.6,7.28,7.47,4.32,19.6,4.32,27.08,0,3.5-2,5.36-4.63,5.58-7.28v-.53C372.15,409.04,372.16,408.87,372.15,408.69Z"/><path class="l" d="M361.32,392h0a19.11,19.11,0,0,0-27.43,16.7c0,.18,0,.35,0,.53v.53c.22,2.65,2.09,5.25,5.6,7.28a25.34,25.34,0,0,0,9.6,3c-5-.86-8.17-6.4-6.65-12.52C344.21,400.41,351.39,390.15,361.32,392Z"/><path class="k" d="M372.15,409.75v-1.06a19,19,0,0,0-6.5-13.83c2.08,2.14,6.71,10.19,1.68,16.33-3.3,4-19,9.81-31.9,2.4a13.33,13.33,0,0,0,4.06,3.44c7.47,4.32,19.6,4.32,27.08,0C370.07,415,371.93,412.4,372.15,409.75Z"/><path class="l" d="M352.83,394.39c.85,1.95-.79,4.56-3.68,5.83s-5.92.71-6.78-1.24.79-4.56,3.68-5.83S352,392.44,352.83,394.39Z"/><path class="l" d="M341.74,402.33a2.51,2.51,0,1,1-3.06-.85,2.27,2.27,0,0,1,3.06.85Z"/><path class="d" d="M292.25,410.77a18.2,18.2,0,0,1,36.39,0v1.01c-.21,2.52-2,5-5.33,6.93-7.1,4.1-18.63,4.1-25.75,0-3.33-1.94-5.1-4.41-5.31-6.93v-.51C292.25,411.09,292.24,410.94,292.25,410.77Z"/><path class="h" d="M292.25,410.77a18.2,18.2,0,0,1,36.39,0v1.01c-.21,2.52-2,5-5.33,6.93-7.1,4.1-18.63,4.1-25.75,0-3.33-1.94-5.1-4.41-5.31-6.93v-.51C292.25,411.09,292.24,410.94,292.25,410.77Z"/><path class="l" d="M302.55,394.88h0a18.19,18.19,0,0,1,26.09,15.89v1.01c-.21,2.52-2,5-5.33,6.93a24.28,24.28,0,0,1-9.13,2.85c4.72-.82,7.78-6.09,6.33-11.91C318.82,402.9,312,393.14,302.55,394.88Z"/><path class="k" d="M292.25,411.78v-1.01a18.11,18.11,0,0,1,6.18-13.15c-2,2-6.37,9.69-1.6,15.53,3.15,3.84,18.07,9.32,30.34,2.28a12.56,12.56,0,0,1-3.86,3.28c-7.1,4.1-18.63,4.1-25.75,0C294.23,416.77,292.46,414.3,292.25,411.78Z"/><path class="l" d="M310.63,397.17c-.81,1.85.75,4.34,3.5,5.54s5.63.68,6.44-1.17-.75-4.34-3.49-5.55S311.44,395.31,310.63,397.17Z"/><path class="l" d="M321.17,404.72a2.39,2.39,0,1,0,2.91-.81,2.16,2.16,0,0,0-2.91.81Z"/><path class="d" d="M339.46,417.13a7.41,7.41,0,1,0-14.82,0v.41a3.83,3.83,0,0,0,2.17,2.82,11.61,11.61,0,0,0,10.49,0,3.81,3.81,0,0,0,2.16-2.82,1.411,1.411,0,0,0,0-.21,1.341,1.341,0,0,0,0-.2Z"/><path class="h" d="M339.46,417.13a7.41,7.41,0,1,0-14.82,0v.41a3.83,3.83,0,0,0,2.17,2.82,11.61,11.61,0,0,0,10.49,0,3.81,3.81,0,0,0,2.16-2.82,1.411,1.411,0,0,0,0-.21,1.341,1.341,0,0,0,0-.2Z"/><path class="q" d="M335.27,410.66h0a7.41,7.41,0,0,0-10.63,6.47v.41a3.83,3.83,0,0,0,2.17,2.82,9.84,9.84,0,0,0,3.72,1.16c-1.92-.33-3.17-2.48-2.58-4.85C328.64,413.92,331.42,410,335.27,410.66Z"/><path class="k" d="M339.46,417.54a1.411,1.411,0,0,0,0-.21,1.341,1.341,0,0,0,0-.2,7.39,7.39,0,0,0-2.52-5.36c.81.83,2.6,4,.65,6.33-1.28,1.56-7.35,3.8-12.35.93a5.17,5.17,0,0,0,1.57,1.33,11.61,11.61,0,0,0,10.49,0,3.81,3.81,0,0,0,2.16-2.82Z"/><path class="l" d="M332,411.59c.33.76-.31,1.77-1.43,2.26s-2.29.27-2.62-.48.3-1.77,1.42-2.26S331.64,410.84,332,411.59Z"/><path class="l" d="M327.68,414.67a1,1,0,1,1-1.18-.33.87.87,0,0,1,1.18.33Z"/><path class="d" d="M203,375.16a7.41,7.41,0,0,1,14.81,0,1.48,1.48,0,0,1,0,.21,1.338,1.338,0,0,1,0,.2,3.76,3.76,0,0,1-2.17,2.82,11.59,11.59,0,0,1-10.48,0,3.77,3.77,0,0,1-2.16-2.82,1.338,1.338,0,0,1,0-.2,1.482,1.482,0,0,1,0-.21Z"/><path class="r" d="M203,375.16a7.41,7.41,0,0,1,14.81,0,1.48,1.48,0,0,1,0,.21,1.338,1.338,0,0,1,0,.2,3.76,3.76,0,0,1-2.17,2.82,11.59,11.59,0,0,1-10.48,0,3.77,3.77,0,0,1-2.16-2.82,1.338,1.338,0,0,1,0-.2,1.482,1.482,0,0,1,0-.21Z"/><path class="l" d="M207.19,368.69h0a7.4,7.4,0,0,1,10.62,6.47,1.48,1.48,0,0,1,0,.21,1.338,1.338,0,0,1,0,.2,3.76,3.76,0,0,1-2.17,2.82,9.74,9.74,0,0,1-3.71,1.16c1.92-.33,3.16-2.47,2.57-4.84C213.82,372,211,368,207.19,368.69Z"/><path class="s" d="M203,375.57a1.338,1.338,0,0,1,0-.2,1.482,1.482,0,0,1,0-.21,7.35,7.35,0,0,1,2.51-5.35c-.8.82-2.59,3.94-.65,6.32,1.28,1.57,7.36,3.8,12.36.93a5.08,5.08,0,0,1-1.58,1.33,11.59,11.59,0,0,1-10.48,0A3.77,3.77,0,0,1,203,375.57Z"/><path class="j" d="M210.48,369.62c-.33.76.31,1.77,1.42,2.26s2.3.28,2.63-.48-.31-1.76-1.42-2.26S210.81,368.87,210.48,369.62Z"/><path class="j" d="M214.77,372.7a1,1,0,1,0,1.19-.33A.88.88,0,0,0,214.77,372.7Z"/><path class="w" d="M355.74,245.33l4.06-49.25,16.37,9.45c7.86,4.54,11.38,16.16,10.08,33.32l-2.07,27.59-4.41-15.29c-2.41-8.32-8.53-11.19-17.36-8.13Z"/><path class="w" d="M307,245.33l-4.06-49.25-16.37,9.45c-7.86,4.54-11.38,16.16-10.08,33.32l2.07,27.59L283,251.15c2.4-8.32,8.52-11.19,17.35-8.13Z"/><path class="w" d="M355.57,269.15h0l-3.08-13.57H310.26l-3.08,13.57h0c-.81,4.11,1.51,8.38,7,11.53,9.51,5.49,24.94,5.49,34.45,0C354.06,277.53,356.37,273.26,355.57,269.15Z"/><ellipse class="x" cx="21.32" cy="12.31" rx="21.32" ry="12.31" transform="translate(310.06 244.94)"/><path class="y" d="M307.2,269.15c-.81,4.11,1.51,8.38,7,11.53,9.51,5.49,24.94,5.49,34.45,0,5.45-3.15,7.76-7.42,7-11.53l-.86-3.88c.85,3.72-1.26,7.71-6.34,10.64-9.38,5.42-24.59,5.42-34,0-5.06-2.92-7.18-6.89-6.35-10.6Z"/><path class="y" d="M309.12,260.62c-.84,3.65,1.2,7.53,6.12,10.37,8.92,5.15,23.37,5.15,32.29,0,4.9-2.83,6.94-6.68,6.14-10.32l-1.16-5.09c.87,3.68-1.15,7.55-6.05,10.38-8.32,4.8-21.83,4.8-30.15,0-4.9-2.83-6.92-6.7-6.05-10.38Z"/><path class="z" d="M347.17,255.58H344c1,4.59,3.85,16.85,4.22,19.65.45,3.45-7.2,9.27-27.32,8.18,9.06,2.5,20.23,1.6,27.73-2.73a17,17,0,0,0,4.91-4.08Z"/><ellipse class="x" cx="21.32" cy="12.31" rx="21.32" ry="12.31" transform="translate(310.06 244.94)"/><path class="d" d="M373.86,157.27c0-52.6-22.22-98.07-38.75-108.6l-.44-.29-.08-.05h0a6.36,6.36,0,0,0-6.39,0h0l-.08.05-.44.29c-16.53,10.53-38.75,56-38.75,108.6,0,50.63,14.19,95.5,15.54,99.66l.11.32h0c1,2.94,3.51,5.75,7.46,8,10.7,6.17,28,6.17,38.73,0,4.09-2.36,6.61-5.29,7.57-8.35C359.67,252.76,373.86,207.89,373.86,157.27Z"/><path class="w" d="M347.2,61.32c-4.1-5.87-8.25-10.21-12.09-12.65l-.44-.29-.08-.05h0a6.36,6.36,0,0,0-6.39,0h0l-.08.05-.44.29c-3.84,2.45-8,6.78-12.1,12.66a106.907,106.907,0,0,0-7.08,11.8c.72,2.72,2.89,5.33,6.52,7.42,9.05,5.23,23.72,5.23,32.77,0,3.62-2.09,5.8-4.7,6.52-7.42a106.162,106.162,0,0,0-7.11-11.81Z"/><path class="aa" d="M288.91,157.27c0,50.63,14.19,95.5,15.54,99.66l.11.32h0c1,2.94,3.51,5.75,7.46,8a31.1,31.1,0,0,0,6,2.59c-6.92-24.89-15-67.15-15-109.31,0-58.29,14.35-99.6,24.72-109.89C311.13,59.2,288.91,104.67,288.91,157.27Z"/><path class="ab" d="M373.86,157.27c0,50.63-14.19,95.5-15.54,99.66l-.11.32h0c-1,2.94-3.51,5.75-7.47,8,8-29.33,17.19-64.56,17.19-106.72,0-58.29-22.45-99.6-32.82-109.89C351.64,59.2,373.86,104.67,373.86,157.27Z"/><path class="x" d="M379.23,231.46l-15.36-28.34-4.07,2.34L352.74,250l6.67,5.39a49.83,49.83,0,0,1,17.36,28.17L381.18,304s1.94-12.95,4.06-28.63C387.14,261.28,387.09,245.07,379.23,231.46Z"/><path class="w" d="M352.74,250l7.06-44.56,15.37,28.34c7.86,13.62,9.38,29.3,8.08,45L381.18,304l-4.41-20.38a49.83,49.83,0,0,0-17.36-28.17Z"/><path class="x" d="M283.51,231.46l15.36-28.34,4.07,2.34L310,250l-6.67,5.39A49.83,49.83,0,0,0,286,283.58L281.56,304s-1.94-12.95-4.06-28.63C275.6,261.28,275.65,245.07,283.51,231.46Z"/><path class="w" d="M310,250l-7.06-44.56L287.57,233.8c-7.86,13.62-9.38,29.3-8.08,45l2.07,25.2L286,283.58a49.83,49.83,0,0,1,17.36-28.17Z"/><circle class="w" cx="18.61" cy="18.61" r="18.61" transform="translate(311.304 146.249) rotate(-85.27)"/><circle class="d" cx="14.79" cy="14.79" r="14.79" transform="translate(316.59 114.45)"/><circle class="o" cx="14.79" cy="14.79" r="14.79" transform="translate(316.59 114.45)"/><path class="w" d="M344.65,173.83a13.27,13.27,0,1,1-13.27-13.27,13.27,13.27,0,0,1,13.27,13.27Z"/><circle class="d" cx="9.65" cy="9.65" r="9.65" transform="translate(319.764 180.997) rotate(-76.72)"/><circle class="o" cx="9.65" cy="9.65" r="9.65" transform="translate(319.764 180.997) rotate(-76.72)"/><path class="a" d="M273.42,109.28a.61.61,0,0,1-.64.54h-.59a3.1,3.1,0,0,0-3.2,2.52l-.12.58a.61.61,0,0,1-1.21-.14v-.6h0a3.1,3.1,0,0,0-2.52-3.2l-.58-.12a.6.6,0,0,1-.49-.67h0a.6.6,0,0,1,.63-.54h.6a3.1,3.1,0,0,0,3.2-2.52l.11-.58a.62.62,0,0,1,.68-.49.6.6,0,0,1,.54.63v.6a3.11,3.11,0,0,0,2.51,3.2l.59.12a.61.61,0,0,1,.49.67Zm-4.85,1a4.28,4.28,0,0,1,1.76-1.39,4.25,4.25,0,0,1-1.39-1.77,4.2,4.2,0,0,1-1.77,1.4,4.23,4.23,0,0,1,1.4,1.78Z"/><path class="a" d="M258.59,76.18a3.94,3.94,0,1,1-3.45-4.37,3.94,3.94,0,0,1,3.45,4.37ZM252,75.4a2.71,2.71,0,1,0,3-2.4,2.71,2.71,0,0,0-3,2.4Z"/><path class="a" d="M288.24,62.07a.62.62,0,0,1-.68.54l-2-.24a.615.615,0,1,1,.15-1.22l2,.24a.61.61,0,0,1,.53.68Z"/><path class="a" d="M289.31,63.43l-.24,2a.614.614,0,1,1-1.22-.14l.24-2a.614.614,0,1,1,1.22.14Z"/><path class="a" d="M292.83,62.62a.61.61,0,0,1-.68.54l-2-.25a.61.61,0,0,1-.54-.68.62.62,0,0,1,.69-.54l2,.25a.61.61,0,0,1,.53.68Z"/><path class="a" d="M289.86,58.84l-.24,2a.615.615,0,1,1-1.22-.15l.24-2a.614.614,0,1,1,1.22.14Z"/><path class="a" d="M394.56,108.77h0a.61.61,0,0,1,.34.77l-.19.56h0a3.1,3.1,0,0,0,1.5,3.79l.53.28a.62.62,0,0,1,.28.78.61.61,0,0,1-.77.34l-.56-.19a3.11,3.11,0,0,0-3.79,1.5l-.28.53a.63.63,0,0,1-.78.28.62.62,0,0,1-.34-.77l.19-.56a3.1,3.1,0,0,0-1.5-3.79l-.53-.28a.611.611,0,0,1,.49-1.12l.56.19a3.1,3.1,0,0,0,3.79-1.5l.28-.53a.6.6,0,0,1,.78-.28Zm-.38,5a4.3,4.3,0,0,1-.83-2.09,4.3,4.3,0,0,1-2.09.83,4.3,4.3,0,0,1,.83,2.09,4.3,4.3,0,0,1,2.09-.88Z"/><path class="a" d="M380.61,70.82a3.86,3.86,0,0,1,1.88,1.52A3.94,3.94,0,1,1,377,71.19a3.89,3.89,0,0,1,3.61-.37ZM378.2,77a3,3,0,0,0,.43.12A2.679,2.679,0,1,0,376.91,76a2.81,2.81,0,0,0,1.29,1Z"/><path class="a" d="M412.55,82.13h0l1.9.77a.64.64,0,0,1,.34.81A.62.62,0,0,1,414,84l-1.89-.77a.613.613,0,0,1,.45-1.14Z"/><path class="a" d="M412.65,78.63h0a.61.61,0,0,1,.34.8l-.77,1.9a.64.64,0,0,1-.81.34.61.61,0,0,1-.33-.8l.77-1.9a.62.62,0,0,1,.8-.34Z"/><path class="a" d="M408.27,80.38h0l1.9.78a.63.63,0,0,1,.34.8.65.65,0,0,1-.81.34l-1.89-.78a.613.613,0,0,1,.45-1.14Z"/><path class="a" d="M410.91,82.91h0a.62.62,0,0,1,.33.81l-.77,1.89a.6.6,0,0,1-.8.34.61.61,0,0,1-.34-.8l.78-1.9a.61.61,0,0,1,.8-.34Z"/></g></svg>