<svg id="flag-w-steps-color" xmlns="http://www.w3.org/2000/svg" width="200" height="200" viewBox="0 0 200 200">
  <rect id="Rectangle_411" data-name="Rectangle 411" width="200" height="200" fill="none"/>
  <g id="Group_66" data-name="Group 66">
    <path id="Subtraction_17" data-name="Subtraction 17" d="M-856.948-895.66H-900l7.2-15.941L-900-928h43.052v32.339Zm-17.992-23.486-8,14h16l-8-14Z" transform="translate(991.94 969.146)" fill="#77ffd6"/>
    <g id="success" transform="translate(34 34)">
      <path id="Path_18" data-name="Path 18" d="M126.509,54.9H110.786V4A3.954,3.954,0,0,0,106.837.052h-4.366A3.954,3.954,0,0,0,98.521,4v.245H58.9a4.022,4.022,0,0,0-3.6,5.82l6.443,12.886a.2.2,0,0,1,0,.178L55.3,36.018a4.022,4.022,0,0,0,3.6,5.82H98.521V54.9H82.746A3.954,3.954,0,0,0,78.8,58.851v4.366a3.954,3.954,0,0,0,3.949,3.949h.272v8.842H59.331a1.911,1.911,0,1,0,0,3.822H83.017V84.45H43.347a.128.128,0,0,1-.127-.127V79.957a.128.128,0,0,1,.127-.127h8.339a1.911,1.911,0,1,0,0-3.822H43.347A3.954,3.954,0,0,0,39.4,79.957v4.366a3.954,3.954,0,0,0,3.949,3.949h.272v8.841H3.949A3.954,3.954,0,0,0,0,101.063v4.366a3.954,3.954,0,0,0,3.949,3.949h.272v17.084a4.026,4.026,0,0,0,4.022,4.022h6.529a1.911,1.911,0,0,0,0-3.822H8.243a.2.2,0,0,1-.2-.2v-4.421H122.415v4.421a.2.2,0,0,1-.2.2H22.422a1.911,1.911,0,0,0,0,3.822h99.793a4.026,4.026,0,0,0,4.022-4.022v-59.3h.272a3.954,3.954,0,0,0,3.949-3.949V58.851A3.954,3.954,0,0,0,126.509,54.9ZM58.9,38.017a.2.2,0,0,1-.179-.289l6.443-12.886a4.041,4.041,0,0,0,0-3.6L58.722,8.358a.2.2,0,0,1,.179-.289H98.521V38.016H58.9ZM102.343,4a.128.128,0,0,1,.127-.127h4.366a.128.128,0,0,1,.127.127V54.9h-4.621ZM3.822,105.429v-4.366a.128.128,0,0,1,.127-.127h39.67v4.621H3.949A.127.127,0,0,1,3.822,105.429ZM122.415,118.22H8.043v-8.842H45.53a1.911,1.911,0,0,0,1.911-1.911V88.272H84.928a1.911,1.911,0,0,0,1.911-1.911v-19.2h35.576Zm4.221-55a.128.128,0,0,1-.127.127H82.746a.128.128,0,0,1-.127-.127V58.851a.128.128,0,0,1,.127-.127h43.763a.128.128,0,0,1,.127.127Z" transform="translate(0 -0.052)" fill="#0e186e"/>
      <path id="Path_19" data-name="Path 19" d="M299.389,56.99a4.021,4.021,0,0,0-7.194,0l-5.027,10.055a4.022,4.022,0,0,0,3.6,5.82h10.055a4.022,4.022,0,0,0,3.6-5.82Zm1.6,11.958a.184.184,0,0,1-.17.095H290.764a.2.2,0,0,1-.179-.289L295.613,58.7a.2.2,0,0,1,.357,0L301,68.754A.184.184,0,0,1,300.989,68.949Z" transform="translate(-213.678 -40.826)" fill="#0e186e"/>
      <path id="Path_20" data-name="Path 20" d="M134.444,103.171h8.442a1.911,1.911,0,1,0,0-3.822h-8.442a1.911,1.911,0,0,0,0,3.822Z" transform="translate(-98.763 -74.048)" fill="#0e186e"/>
      <path id="Path_21" data-name="Path 21" d="M165.214,174.154l-7.311,4.221a1.911,1.911,0,1,0,1.911,3.31l7.311-4.221a1.911,1.911,0,1,0-1.911-3.31Z" transform="translate(-116.957 -129.601)" fill="#0e186e"/>
      <path id="Path_22" data-name="Path 22" d="M446.757,174.153a1.911,1.911,0,1,0-1.911,3.31l7.311,4.221a1.911,1.911,0,0,0,1.911-3.31Z" transform="translate(-330.786 -129.601)" fill="#0e186e"/>
      <path id="Path_23" data-name="Path 23" d="M463.867,101.26a1.911,1.911,0,0,0,1.911,1.911h8.442a1.911,1.911,0,0,0,0-3.822h-8.442A1.911,1.911,0,0,0,463.867,101.26Z" transform="translate(-345.673 -74.048)" fill="#0e186e"/>
      <path id="Path_24" data-name="Path 24" d="M445.8,16.275a1.9,1.9,0,0,0,.954-.256l7.311-4.221a1.911,1.911,0,0,0-1.911-3.31l-7.311,4.221a1.911,1.911,0,0,0,.957,3.566Z" transform="translate(-330.786 -6.147)" fill="#0e186e"/>
      <path id="Path_25" data-name="Path 25" d="M157.9,11.8l7.311,4.221a1.911,1.911,0,0,0,1.911-3.31l-7.311-4.222A1.911,1.911,0,0,0,157.9,11.8Z" transform="translate(-116.957 -6.146)" fill="#0e186e"/>
    </g>
  </g>
</svg>
