<svg xmlns="http://www.w3.org/2000/svg" width="200" height="200" viewBox="0 0 200 200">
  <g id="world-pins-multi" transform="translate(-5386 -2895)">
    <circle id="Ellipse_87" data-name="Ellipse 87" cx="71" cy="71" r="71" transform="translate(5415 2924)" fill="#97d1ff"/>
    <circle id="Ellipse_88" data-name="Ellipse 88" cx="6.5" cy="6.5" r="6.5" transform="translate(5441 2936)" fill="#fff"/>
    <g id="world-pins-color-white" transform="translate(9690 -435)">
      <g id="Group_388" data-name="Group 388">
        <path id="Path_4119" data-name="Path 4119" d="M-4164.473,3374.052l-5.614,5.421s-14.519-1.742-16.648,6.582,1.742,17.81,6.195,19.939,18.778,2.71,18.778,2.71,12.777-2.516,19.94,4.84,7.937,9.292,7.937,9.292-2.323-19.166-12.97-33.491S-4164.473,3374.052-4164.473,3374.052Z" fill="#fff"/>
        <path id="Path_4118" data-name="Path 4118" d="M-4239.549,3360.231l-5.788,14.6,3.523,14.6,7.3,8.557a11.412,11.412,0,0,1-2.265,11.073c-4.53,5.285-11.828,12.08-18.372,14.6s-15.6,1.761-12.835,11.828,9.06,7.55,20.888,6.292,15.6,5.788,15.6,5.788l1.51,16.862,5.033,9.815,8.809-11.325,12.583,17.113,15.6-22.65,12.332,5.537a68.784,68.784,0,0,1-26.173,27.18c-18.372,10.57-43.538,9.563-43.538,9.563s-5.285-7.55-1.762-12.835,17.113-9.815,11.577-22.4-14.848-10.318-14.848-10.318-23.909,16.358-35.233,3.272-14.6-36.743-14.6-36.743v-17.616l6.795-13.59,18.12,25.418,18.12-28.941v-11.465l-4.885-9.229Z" transform="translate(33)" fill="#fff"/>
      </g>
      <g id="world-pins-color" transform="translate(-4304 3330)">
        <g id="Group_216" data-name="Group 216">
          <rect id="Rectangle_411" data-name="Rectangle 411" width="200" height="200" fill="none"/>
        </g>
        <g id="Group_215" data-name="Group 215">
          <g id="Group_213" data-name="Group 213">
            <path id="Subtraction_23" data-name="Subtraction 23" d="M-5365.928-1132.932h0c-.05-.069-5.06-7-10.035-15.123a132.224,132.224,0,0,1-6.9-12.514c-2.081-4.437-3.136-7.847-3.136-10.136a15.5,15.5,0,0,1,1.568-6.882,16.4,16.4,0,0,1,4.287-5.383,23.445,23.445,0,0,1,14.216-5.02c.211-.007.423-.011.63-.011a17.622,17.622,0,0,1,7.39,1.606,19.17,19.17,0,0,1,5.777,4.118,19.829,19.829,0,0,1,5.579,11.571c.159,1.812-.76,4.925-2.733,9.253-1.578,3.461-3.83,7.7-6.693,12.612-4.789,8.207-9.739,15.595-9.948,15.906Zm-.015-45.035a6.508,6.508,0,0,0-6.5,6.5,6.508,6.508,0,0,0,6.5,6.5,6.507,6.507,0,0,0,6.5-6.5A6.507,6.507,0,0,0-5365.942-1177.968Z" transform="translate(5427.943 1218.467)" fill="#77ffd6"/>
            <path id="Subtraction_22" data-name="Subtraction 22" d="M-5365.928-1132.932h0c-.05-.069-5.06-7-10.035-15.123a132.224,132.224,0,0,1-6.9-12.514c-2.081-4.437-3.136-7.847-3.136-10.136a15.5,15.5,0,0,1,1.568-6.882,16.4,16.4,0,0,1,4.287-5.383,23.445,23.445,0,0,1,14.216-5.02c.211-.007.423-.011.63-.011a17.622,17.622,0,0,1,7.39,1.606,19.17,19.17,0,0,1,5.777,4.118,19.829,19.829,0,0,1,5.579,11.571c.159,1.812-.76,4.925-2.733,9.253-1.578,3.461-3.83,7.7-6.693,12.612-4.789,8.207-9.739,15.595-9.948,15.906Zm-.015-45.035a6.508,6.508,0,0,0-6.5,6.5,6.508,6.508,0,0,0,6.5,6.5,6.507,6.507,0,0,0,6.5-6.5A6.507,6.507,0,0,0-5365.942-1177.968Z" transform="translate(5499.943 1283.467)" fill="#77ffd6"/>
          </g>
          <g id="world" transform="translate(28.048 27.78)">
            <path id="Path_2216" data-name="Path 2216" d="M143.711,66.814a2.315,2.315,0,0,0,.142-.7,2.409,2.409,0,0,0-.12-.747l-.185-.525a71.94,71.94,0,0,0-26.164-48.42c-1.057-.862-2.162-1.64-3.267-2.439-.055-.046-.084-.11-.144-.154s-.108-.039-.158-.07A72.171,72.171,0,0,0,71.875.223c-.619,0-1.242,0-1.706.048A70.347,70.347,0,0,0,46.691,4.792,21.6,21.6,0,0,0,11.81,21.865,22.857,22.857,0,0,0,13.7,29.837,72.306,72.306,0,0,0,7.246,40.476c-.036.058-.057.12-.089.18A72.09,72.09,0,0,0,135.327,106.6a71.067,71.067,0,0,0,8.524-30.708c.075-1.16.1-2.342.1-3.526,0-1.863-.1-3.71-.241-5.55ZM136.73,54.473c-.305-.271-.587-.585-.906-.835a31.652,31.652,0,0,0-10.49-5.244,22.563,22.563,0,0,0-10.535-.11,20.752,20.752,0,0,1-8.974.045c-5.744-1.255-10.282-2.245-12.69-6.093C89.687,36.7,91.3,28.93,94.942,26.194a5.478,5.478,0,0,1,4.111-.878,15.346,15.346,0,0,0,7.448-1.255,19.307,19.307,0,0,0,6.487-4.944c.454.351.934.667,1.378,1.03A67.244,67.244,0,0,1,136.73,54.473ZM33.433,5.033A16.852,16.852,0,0,1,50.251,21.865c0,7.193-10.794,23.661-16.818,32.009a151.151,151.151,0,0,1-14.821-24.65,20.057,20.057,0,0,1-2-7.359A16.844,16.844,0,0,1,33.433,5.032ZM4.6,72.364A68.146,68.146,0,0,1,5.951,59.021c.257,3.343.692,6.317,1.082,8.9,1.489,9.86,2.9,19.154,10.156,27.654,3.036,3.581,8.12,9.568,15.982,10.454s17.7-3.641,20.549-5.05l1.091-.551a10.561,10.561,0,0,1,5.02-1.609,11.847,11.847,0,0,1,7.861,4.018c4.1,4.543,5.141,12.128,2.227,16.232a7.379,7.379,0,0,1-3.691,2.567,11.226,11.226,0,0,0-6.025,4.809,14.862,14.862,0,0,0-1.038,12.023A67.42,67.42,0,0,1,4.6,72.364ZM71.875,139.7a67.707,67.707,0,0,1-6.951-.358,8.513,8.513,0,0,1-.548-.789,10.24,10.24,0,0,1-.046-9.647,6.629,6.629,0,0,1,3.773-2.84,11.972,11.972,0,0,0,5.73-4.211c4.179-5.881,3-16.071-2.57-22.234a16.494,16.494,0,0,0-11.381-5.61h-.107a14.552,14.552,0,0,0-7.157,2.133l-1.025.519c-5.25,2.59-12.719,5.151-17.889,4.569-5.967-.668-10.11-5.555-12.859-8.791-6.372-7.455-7.619-15.7-9.06-25.249A69.2,69.2,0,0,1,11.6,42.454,67.46,67.46,0,0,1,15.955,34.9c.08.16.168.323.24.481.154.305.312.608.48.914.24.454.481.909.721,1.367q.248.461.5.925.382.685.771,1.37c.174.3.346.607.522.91q.4.685.8,1.366c.177.3.353.594.533.89.284.48.57.93.856,1.394.163.263.324.53.48.789.355.571.709,1.124,1.062,1.684.094.144.188.3.279.438q.66,1.023,1.3,2c.163.241.321.481.481.722.264.4.528.794.785,1.173l.57.835c.206.305.415.611.617.9l.576.829c.178.258.357.511.527.753s.362.518.541.766.3.42.44.62l.48.663.392.544.382.527.312.423.293.4.175.241c.215.291.378.51.424.569a2.4,2.4,0,0,0,3.843,0c2.017-2.676,19.706-26.413,19.706-37.528,0-.7-.043-1.4-.11-2.092-.021-.214-.055-.427-.082-.641-.062-.481-.136-.963-.239-1.443-.046-.241-.1-.466-.149-.7q-.167-.722-.387-1.443c-.06-.193-.11-.387-.174-.577-.216-.645-.459-1.282-.734-1.9-.053-.119-.116-.241-.171-.349-.24-.5-.48-1-.757-1.479-.12-.216-.252-.425-.381-.638q-.347-.569-.721-1.12c-.149-.214-.3-.427-.456-.638-.082-.106-.151-.218-.24-.322a65.56,65.56,0,0,1,15.44-3.2C62.147,12.4,60.923,18.944,62.322,24.8A25.079,25.079,0,0,0,68.089,35.32c2.261,2.8,3.887,4.821,3.786,8.118C71.668,50.412,63.8,56.217,60.823,58.41a41.357,41.357,0,0,1-12.9,6.237c-4.364,1.427-8.129,2.657-9.568,6.957a13.714,13.714,0,0,0,5.818,14.827,12.127,12.127,0,0,0,9.574.847,29.527,29.527,0,0,1,10.6-.507c4.565.647,8.5,1.2,10.367,3.818,1.107,1.563,1.05,3.178.834,6.142a29.158,29.158,0,0,0,1.246,12.463c1.1,3.29,2.751,8.258,6.728,8.831a4.969,4.969,0,0,0,.78.062c2.814,0,4.536-2.487,6.348-5.1.8-1.157,1.682-2.4,2.739-3.658,4.945,8,9.968,14.669,10.2,14.986a2.4,2.4,0,0,0,3.844,0A199.931,199.931,0,0,0,121.656,102.4,31.557,31.557,0,0,1,130,106.2,67.152,67.152,0,0,1,71.875,139.7Zm44.844-65.439a16.8,16.8,0,0,1,5.61,12.535c0,1.73-.7,5.158-4.033,11.67a179.258,179.258,0,0,1-12.785,20.33c-2.261-3.153-6.151-8.749-9.631-14.63a88.943,88.943,0,0,1-5.19-10.011,20.057,20.057,0,0,1-2-7.359A16.844,16.844,0,0,1,105.51,69.959q.78,0,1.547.07a16.662,16.662,0,0,1,9.661,4.227Zm22.343,1.386a66.294,66.294,0,0,1-6.765,26.319,36.526,36.526,0,0,0-8.437-3.935,28.508,28.508,0,0,0,3.274-11.234,21.735,21.735,0,0,0-12.1-19.435l-.151-.067c-.537-.259-1.083-.5-1.64-.721-.382-.149-.779-.265-1.171-.39-.24-.073-.456-.163-.69-.241-.619-.176-1.249-.319-1.883-.438h-.032c-.384-.072-.773-.11-1.163-.161A21.479,21.479,0,0,0,83.887,86.792a24.774,24.774,0,0,0,2.379,9.242,88.745,88.745,0,0,0,4.551,8.957,44.319,44.319,0,0,0-4.114,5.252,12.515,12.515,0,0,1-2.472,3.028c-.481-.073-1.371-1.1-2.884-5.6a24.691,24.691,0,0,1-1.011-10.595A12.872,12.872,0,0,0,78.621,87.8c-3.068-4.294-8.423-5.05-13.634-5.79a33.822,33.822,0,0,0-12.152.546c-3.074.588-4.5.808-6.132-.21a9.117,9.117,0,0,1-3.8-9.217c.642-1.923,2.564-2.618,6.487-3.908a46.1,46.1,0,0,0,14.273-6.942c3.5-2.57,12.734-9.391,13.012-18.7.154-5.091-2.391-8.232-4.851-11.269A20.8,20.8,0,0,1,67,23.715c-1.276-5.358.305-11.641,4.594-18.682h.276a67.39,67.39,0,0,1,37.18,11.25,14.434,14.434,0,0,1-4.534,3.393,10.747,10.747,0,0,1-5.324.834,10.07,10.07,0,0,0-7.141,1.838c-5.448,4.1-7.889,14.573-2.993,22.434,3.485,5.571,9.439,6.87,15.94,8.288a25.133,25.133,0,0,0,10.61-.046,18.108,18.108,0,0,1,8.526.027,26.76,26.76,0,0,1,8.722,4.369,19.691,19.691,0,0,1,5.965,8.527c.2,2.124.319,4.254.319,6.418,0,1.076-.021,2.164-.094,3.278Zm0,0" transform="translate(0 0)" fill="#0e186e"/>
            <path id="Path_2217" data-name="Path 2217" d="M89.085,51.524a9.647,9.647,0,1,0-9.647-9.647A9.646,9.646,0,0,0,89.085,51.524Zm0-14.47a4.823,4.823,0,1,1-4.823,4.823A4.824,4.824,0,0,1,89.085,37.054Zm0,0" transform="translate(-55.629 -22.361)" fill="#0e186e"/>
            <path id="Path_2218" data-name="Path 2218" d="M319.438,257.877a9.647,9.647,0,1,0,9.647-9.647A9.646,9.646,0,0,0,319.438,257.877Zm14.47,0a4.823,4.823,0,1,1-4.823-4.823A4.824,4.824,0,0,1,333.908,257.877Zm0,0" transform="translate(-223.594 -173.495)" fill="#0e186e"/>
          </g>
        </g>
      </g>
    </g>
  </g>
</svg>
