<svg xmlns="http://www.w3.org/2000/svg" xmlns:xlink="http://www.w3.org/1999/xlink" width="200" height="200" viewBox="0 0 200 200">
  <defs>
    <clipPath id="clip-icon_-_magnifying_glass_with_stats_2">
      <rect width="200" height="200"/>
    </clipPath>
  </defs>
  <g id="icon_-_magnifying_glass_with_stats_2" data-name="icon - magnifying glass with stats – 2" clip-path="url(#clip-icon_-_magnifying_glass_with_stats_2)">
    <rect width="200" height="200" fill="#fff"/>
    <g id="Group_72" data-name="Group 72">
      <rect id="Rectangle_411" data-name="Rectangle 411" width="200" height="200" fill="none"/>
      <g id="Group_16" data-name="Group 16" transform="translate(-320.598 -1686.359)">
        <path id="Subtraction_15" data-name="Subtraction 15" d="M23.23,22.52H2.116L0,20.271V.068C.572.023,1.15,0,1.719,0A21.464,21.464,0,0,1,16.945,6.307a21.458,21.458,0,0,1,4.615,6.844,21.4,21.4,0,0,1,1.692,8.382c0,.327-.007.659-.022.985Z" transform="translate(407.689 1734.815)" fill="#77ffd6"/>
        <path id="Subtraction_14" data-name="Subtraction 14" d="M22.167,44.333A22.172,22.172,0,0,1,13.539,1.742,22.02,22.02,0,0,1,22.167,0V21.5l2.965,1.851H44.3A22.169,22.169,0,0,1,22.167,44.333Z" transform="translate(376.474 1743.099)" fill="#77ffd6"/>
        <g id="business-report" transform="translate(364.34 1718.086)">
          <path id="Path_2106" data-name="Path 2106" d="M98.912,82.462a5.137,5.137,0,0,0-4.137-1.176,25.494,25.494,0,0,0-21.458,25,25.406,25.406,0,0,0,25.3,25.3,25.494,25.494,0,0,0,25-21.458,5.124,5.124,0,0,0-5.054-5.92H101.648a.953.953,0,0,1-.952-.952V86.34a5.1,5.1,0,0,0-1.784-3.878Zm2.736,25.908h16.913a.934.934,0,0,1,.717.33.968.968,0,0,1,.222.789A21.131,21.131,0,1,1,95.413,85.4a1.037,1.037,0,0,1,.159-.012.968.968,0,0,1,.63.235.933.933,0,0,1,.33.717v16.913A5.122,5.122,0,0,0,101.648,108.37Z" transform="translate(-64.002 -58.629)" fill="#0e186e"/>
          <path id="Path_2107" data-name="Path 2107" d="M155.412,114.426a2.083,2.083,0,0,0,2.082-2.085V16.418A10.489,10.489,0,0,0,147.026,5.932h-4.172A10.486,10.486,0,0,0,133.42,0H50.231A10.49,10.49,0,0,0,39.76,10.485v39.17a2.082,2.082,0,1,0,4.164,0V10.485A6.319,6.319,0,0,1,50.231,4.17H133.42a6.32,6.32,0,0,1,6.31,6.316v93.082H123.521a5.871,5.871,0,0,0-5.86,5.868v16.848H50.231a6.317,6.317,0,0,1-6.307-6.313V59.107a2.082,2.082,0,1,0-4.164,0v60.864a10.489,10.489,0,0,0,10.471,10.483H53.4A10.49,10.49,0,0,0,63.831,140h83.195a10.489,10.489,0,0,0,10.468-10.485V122.07a2.082,2.082,0,1,0-4.164,0v7.444a6.317,6.317,0,0,1-6.3,6.316H63.831a6.32,6.32,0,0,1-6.237-5.376h62.15a2.073,2.073,0,0,0,1.492-.631L143.3,107.107a2.112,2.112,0,0,0,.59-1.455V10.1h3.131a6.317,6.317,0,0,1,6.3,6.316v95.923a2.083,2.083,0,0,0,2.082,2.085Zm-31.891-6.688h13.362l-15.059,15.5v-13.8A1.7,1.7,0,0,1,123.521,107.737Z" transform="translate(-39.76 0)" fill="#0e186e"/>
          <path id="Path_2108" data-name="Path 2108" d="M159.506,344.068a2.082,2.082,0,0,0-2.082-2.082h-64.3a2.082,2.082,0,0,0,0,4.164h64.3A2.082,2.082,0,0,0,159.506,344.068Z" transform="translate(-76.805 -246.916)" fill="#0e186e"/>
          <path id="Path_2109" data-name="Path 2109" d="M90.836,379.718a2.082,2.082,0,0,0,0,4.164H136.5a2.082,2.082,0,0,0,0-4.164Z" transform="translate(-75.153 -274.159)" fill="#0e186e"/>
          <path id="Path_2110" data-name="Path 2110" d="M91.041,306.336a2.082,2.082,0,0,0,2.082,2.082h64.3a2.082,2.082,0,0,0,0-4.164h-64.3A2.082,2.082,0,0,0,91.041,306.336Z" transform="translate(-76.805 -219.673)" fill="#0e186e"/>
          <path id="Path_2111" data-name="Path 2111" d="M192.91,51.683a5.123,5.123,0,0,0-5.9,5.058v17.23a5.122,5.122,0,0,0,5.116,5.116h20.492a2.082,2.082,0,0,0,2.082-2.082A25.607,25.607,0,0,0,192.91,51.683Zm-.78,23.24a.952.952,0,0,1-.952-.952V56.741a.932.932,0,0,1,1.111-.941,21.435,21.435,0,0,1,18.089,18.608.462.462,0,0,1-.46.515H192.13Z" transform="translate(-146.136 -37.294)" fill="#0e186e"/>
          <path id="Path_2112" data-name="Path 2112" d="M307.76,95.3c0,.006,0,.012,0,.019V101.4a5.717,5.717,0,0,0,4.384,5.55v3.9a2.082,2.082,0,1,0,4.164,0v-3.9a5.717,5.717,0,0,0,4.387-5.55V59.3a4.418,4.418,0,0,1,4.7,4.411v11.61a2.082,2.082,0,0,0,4.164,0V63.707a8.584,8.584,0,0,0-8.583-8.586c-.095,0-.19,0-.285.006V51.9a5.718,5.718,0,0,0-5.712-5.712h-1.512a5.718,5.718,0,0,0-5.712,5.712v21.46c0,.006,0,.012,0,.019s0,.012,0,.019V95.286C307.761,95.292,307.76,95.3,307.76,95.3Zm8.773-2.082h-4.608V75.456h4.608Zm-1.548,9.726h-1.512a1.549,1.549,0,0,1-1.548-1.548V97.387h4.608V101.4a1.549,1.549,0,0,1-1.548,1.548Zm-1.512-52.6h1.512a1.549,1.549,0,0,1,1.548,1.548v19.4h-4.608V51.9a1.549,1.549,0,0,1,1.548-1.548Z" transform="translate(-233.362 -33.363)" fill="#0e186e"/>
        </g>
      </g>
    </g>
  </g>
</svg>
