<svg xmlns="http://www.w3.org/2000/svg" xmlns:xlink="http://www.w3.org/1999/xlink" width="200" height="200" viewBox="0 0 200 200">
  <defs>
    <clipPath id="clip-icon_-_computer_with_cart_-_color">
      <rect width="200" height="200"/>
    </clipPath>
  </defs>
  <g id="icon_-_computer_with_cart_-_color" data-name="icon - computer with cart - color" clip-path="url(#clip-icon_-_computer_with_cart_-_color)">
    <rect width="200" height="200" fill="#fff"/>
    <g id="Group_77" data-name="Group 77">
      <rect id="Rectangle_411" data-name="Rectangle 411" width="200" height="200" fill="none"/>
      <g id="Group_59" data-name="Group 59">
        <path id="Subtraction_13" data-name="Subtraction 13" d="M1012,107H876a8.009,8.009,0,0,1-8-8V8a8.009,8.009,0,0,1,8-8h136a8.009,8.009,0,0,1,8,8V99A8.009,8.009,0,0,1,1012,107ZM878.574,11.092V95.909h130.852V11.092Z" transform="translate(-844 37)" fill="#77ffd6"/>
        <g id="online-shop" transform="translate(22 34)">
          <g id="Group_24" data-name="Group 24" transform="translate(0 0)">
            <g id="Group_23" data-name="Group 23">
              <path id="Path_35" data-name="Path 35" d="M146.387,40.081H9.613A9.623,9.623,0,0,0,0,49.693v92.812a9.623,9.623,0,0,0,9.613,9.612H55.872L54,167.086H46.249a2.285,2.285,0,0,0,0,4.57h63.5a2.285,2.285,0,0,0,0-4.57H102l-1.871-14.969h46.259A9.623,9.623,0,0,0,156,142.505V49.693A9.623,9.623,0,0,0,146.387,40.081ZM58.607,167.086l1.871-14.969h8.41l.825,3.3a8.542,8.542,0,0,0,16.573,0l.825-3.3h8.41l1.871,14.969ZM73.6,152.117h8.8l-.548,2.191a3.971,3.971,0,0,1-7.706,0Zm77.83-9.612h0a5.048,5.048,0,0,1-5.042,5.042H9.613a5.048,5.048,0,0,1-5.042-5.042V49.693a5.048,5.048,0,0,1,5.042-5.042H146.387a5.048,5.048,0,0,1,5.042,5.042Z" transform="translate(0 -40.081)" fill="#0e186e"/>
            </g>
          </g>
          <g id="Group_26" data-name="Group 26" transform="translate(9.826 9.827)">
            <g id="Group_25" data-name="Group 25">
              <path id="Path_36" data-name="Path 36" d="M152.281,72.146H34.362a2.3,2.3,0,0,0-2.3,2.3v88.439a2.3,2.3,0,0,0,2.3,2.3h4.913a2.3,2.3,0,0,0,0-4.6H36.661V76.743h115.62a2.3,2.3,0,0,0,0-4.6Z" transform="translate(-32.064 -72.146)" fill="#0e186e"/>
            </g>
          </g>
          <g id="Group_28" data-name="Group 28" transform="translate(23.658 9.827)">
            <g id="Group_27" data-name="Group 27">
              <path id="Path_37" data-name="Path 37" d="M200.379,72.146h-4.913a2.3,2.3,0,0,0,0,4.6h2.615v83.842H82.46a2.3,2.3,0,1,0,0,4.6H200.378a2.3,2.3,0,0,0,2.3-2.3V74.444A2.3,2.3,0,0,0,200.379,72.146Z" transform="translate(-80.162 -72.146)" fill="#0e186e"/>
            </g>
          </g>
          <g id="Group_30" data-name="Group 30" transform="translate(41.334 24.292)">
            <g id="Group_29" data-name="Group 29">
              <path id="Path_38" data-name="Path 38" d="M204.256,130.95a2.3,2.3,0,0,0-1.705-.88l-54.046-2.457c-.042,0-.084,0-.126,0a4.763,4.763,0,0,0-1.911-2.572l-6.619-4.412a2.3,2.3,0,0,0-2.55,3.825l6.618,4.412a.16.16,0,0,1,.065.089l8.43,29.506a7.237,7.237,0,0,0,1.251,2.461l-3.085,6.169a4.724,4.724,0,0,0,.208,4.626,4.774,4.774,0,0,0,1.179,1.3,7.211,7.211,0,1,0,12.98.958H185.9a7.212,7.212,0,1,0,13.173-.6,2.3,2.3,0,0,0-1.541-4h-42.7a.158.158,0,0,1-.141-.229l2.842-5.683a7.213,7.213,0,0,0,1.8.229,7.411,7.411,0,0,0,.86-.051l32.3-3.8a9.645,9.645,0,0,0,8.351-7.706l3.863-19.317A2.3,2.3,0,0,0,204.256,130.95ZM192.62,173.971a2.615,2.615,0,1,1-2.615,2.615A2.618,2.618,0,0,1,192.62,173.971Zm-34.393,0a2.615,2.615,0,1,1-2.615,2.615A2.617,2.617,0,0,1,158.227,173.971Zm-5.636-31.62-2.88-10.081,9.189.418,1.593,9.663Zm7.061,16.724a2.6,2.6,0,0,1-2.82-1.879L153.9,146.948h7.346l1.931,11.712Zm13.473-1.585-5.373.632-1.842-11.174h7.215Zm0-15.139h-7.973l-1.558-9.45,9.531.433Zm11.64,13.769-7.043.829v-10H185.6Zm1.246-13.769h-8.289v-8.808l9.049.411Zm10.317,8.882a5.059,5.059,0,0,1-4.38,4.042l-2.518.3.781-8.624h6.975Zm1.777-8.882h-7.478l.741-8.187,8.3.377Z" transform="translate(-136.276 -120.241)" fill="#0e186e"/>
            </g>
          </g>
        </g>
      </g>
    </g>
  </g>
</svg>
