<svg xmlns="http://www.w3.org/2000/svg" xmlns:xlink="http://www.w3.org/1999/xlink" width="200" height="200" viewBox="0 0 200 200">
  <defs>
    <clipPath id="clip-icon_-_magnifying_glass_with_stats">
      <rect width="200" height="200"/>
    </clipPath>
  </defs>
  <g id="icon_-_magnifying_glass_with_stats" data-name="icon - magnifying glass with stats" clip-path="url(#clip-icon_-_magnifying_glass_with_stats)">
    <rect width="200" height="200" fill="#fff"/>
    <g id="Group_75" data-name="Group 75">
      <rect id="Rectangle_411" data-name="Rectangle 411" width="200" height="200" fill="none"/>
      <g id="statistics" transform="translate(37.401 32.401)">
        <g id="Group_46" data-name="Group 46" transform="translate(0)">
          <path id="Path_2102" data-name="Path 2102" d="M135.719,121.552l-1.951-1.951a2,2,0,0,0-2.834,2.833L132.6,124.1l-8.5,8.5-14.451-14.45,8.5-8.5,6.742,6.742a2,2,0,1,0,2.834-2.834l-8.155-8.154,0,0L113.9,99.734l0,0-5-5a3.606,3.606,0,0,0-5.1,0l-.283.284-7.169-7.171a53.919,53.919,0,0,0,10.621-22.279c.348-1.6.707-3.982.71-4.007q.265-1.911.394-3.863c.065-1.377.028-1.414.118-4.007q-.014-1.945-.162-3.863c-.149-1.975-.149-.948-.458-4.007A53.441,53.441,0,0,0,96.534,20.546a2,2,0,0,0-3.142,2.487A49.566,49.566,0,0,1,104.184,54.1,50.088,50.088,0,1,1,87.774,17.019a2,2,0,1,0,2.695-2.965,54.1,54.1,0,1,0-46.593,93.165c.184.106,3.724.614,4.007.614.188.05,2.563.249,3.863.3,1.342.053,2.009.066,4.007.026q1.949-.059,3.863-.252a26.508,26.508,0,0,0,4.007-.561A53.883,53.883,0,0,0,87.841,96.343l7.171,7.169-.283.283a3.606,3.606,0,0,0,0,5.1l5,5,0,0,5.667,5.667,0,0,16.147,16.146a3.606,3.606,0,0,0,5.1,0l9.067-9.067a3.606,3.606,0,0,0,0-5.1Zm-42-30.669,6.96,6.962-2.833,2.833-6.962-6.96q1.469-1.364,2.835-2.835Zm13.1,24.435-2.834-2.833,8.5-8.5,2.833,2.834Zm-.472-17.473,3.306,3.306-8.5,8.5-3.306-3.306Z" transform="translate(0)" fill="#0e186e"/>
          <path id="Path_2103" data-name="Path 2103" d="M48.173,112.758a47,47,0,0,0,27.9,9.405,46.082,46.082,0,0,0,0-92.163A45.538,45.538,0,0,0,43.6,43.515,46.556,46.556,0,0,0,29.993,76.06a45.038,45.038,0,0,0,11.594,30.669,2,2,0,1,0,2.979-2.68A41.04,41.04,0,0,1,34,76.1a42.568,42.568,0,0,1,12.438-29.76A41.556,41.556,0,0,1,76.075,34.007a42.075,42.075,0,0,1,.024,84.149,43,43,0,0,1-25.517-8.6,2,2,0,1,0-2.407,3.2Z" transform="translate(-21.979 -21.986)" fill="#0e186e"/>
          <path id="Path_2104" data-name="Path 2104" d="M127.639,68.5H113.748a3.076,3.076,0,0,0-3.072,3.072v7.079H97.719a3.076,3.076,0,0,0-3.072,3.072v21.5H91.966a2,2,0,1,0,0,4.007h57.455a2,2,0,0,0,0-4.007h-2.682V91.875a3.076,3.076,0,0,0-3.072-3.072H130.711V71.572A3.076,3.076,0,0,0,127.639,68.5ZM98.654,82.658h12.021v20.57H98.654Zm16.028-10.151H126.7v30.721H114.683Zm28.05,20.3v10.418H130.711V92.81Z" transform="translate(-65.93 -50.201)" fill="#0e186e"/>
          <path id="Path_2105" data-name="Path 2105" d="M161.734,243.509H152.3l-4.285-10.954a2,2,0,0,0-3.745.033l-5.856,15.79-4.093-11.6a2,2,0,0,0-3.639-.31l-3.93,7.04h-9.408a2,2,0,0,0,0,4.007h10.584a2,2,0,0,0,1.749-1.027l2.341-4.193,4.459,12.638a2,2,0,0,0,1.873,1.337h.016a2,2,0,0,0,1.878-1.307l5.953-16.052,2.867,7.33a2,2,0,0,0,1.866,1.274h10.8a2,2,0,1,0,0-4.007Z" transform="translate(-84.531 -169.497)" fill="#0e186e"/>
        </g>
      </g>
    </g>
  </g>
</svg>
