<svg xmlns="http://www.w3.org/2000/svg" xmlns:xlink="http://www.w3.org/1999/xlink" width="200" height="200" viewBox="0 0 200 200">
  <defs>
    <clipPath id="clip-icon_-_truck_with_checkmark">
      <rect width="200" height="200"/>
    </clipPath>
  </defs>
  <g id="icon_-_truck_with_checkmark" data-name="icon - truck with checkmark" clip-path="url(#clip-icon_-_truck_with_checkmark)">
    <rect width="200" height="200" fill="#fff"/>
    <g id="Group_79" data-name="Group 79">
      <rect id="Rectangle_411" data-name="Rectangle 411" width="200" height="200" fill="none"/>
      <g id="shipped" transform="translate(15 46)">
        <g id="Group_12" data-name="Group 12" transform="translate(0 0)">
          <g id="Group_11" data-name="Group 11">
            <path id="Path_29" data-name="Path 29" d="M158.1,139.65l-4.4-17.609a2.662,2.662,0,0,0,2.107-2.6V116.6a11.192,11.192,0,0,0-11.179-11.18H124.572V99.563a5.507,5.507,0,0,0-5.5-5.5H16.858a5.507,5.507,0,0,0-5.5,5.5v48.267a2.662,2.662,0,0,0,5.324,0V99.563a.177.177,0,0,1,.177-.177H119.071a.177.177,0,0,1,.177.177v48.268a2.662,2.662,0,0,0,5.324,0v-3.017h31.414a8.71,8.71,0,0,1,8.272,6.033h-8.277a2.662,2.662,0,0,0-2.662,2.662v5.678a8.35,8.35,0,0,0,8.34,8.34h3.017V179.24h-6.96a16.853,16.853,0,0,0-31.863,0h-1.282V159.187a2.662,2.662,0,1,0-5.324,0v20.052H64.021a16.853,16.853,0,0,0-31.863,0h-15.3a.177.177,0,0,1-.177-.177v-5.856H28.215a2.662,2.662,0,1,0,0-5.324H2.662a2.662,2.662,0,1,0,0,5.324h8.7v5.856a5.507,5.507,0,0,0,5.5,5.5H31.237c0,.059,0,.118,0,.177a16.858,16.858,0,1,0,33.716,0c0-.06,0-.118,0-.177h59.988c0,.059,0,.118,0,.177a16.858,16.858,0,1,0,33.716,0c0-.06,0-.118,0-.177h8.7A2.662,2.662,0,0,0,170,181.9V153.509A14.04,14.04,0,0,0,158.1,139.65Zm-33.527-28.907h20.052a5.863,5.863,0,0,1,5.856,5.856v.177H124.572Zm0,28.747V122.1h23.652l4.348,17.39ZM48.09,196.275a11.534,11.534,0,1,1,11.534-11.535A11.547,11.547,0,0,1,48.09,196.275Zm93.7,0a11.534,11.534,0,1,1,11.534-11.535A11.547,11.547,0,0,1,141.785,196.275ZM164.677,162.2H161.66a3.02,3.02,0,0,1-3.017-3.017v-3.017h6.033V162.2Z" transform="translate(0 -94.062)" fill="#0e186e"/>
          </g>
        </g>
        <g id="Group_14" data-name="Group 14" transform="translate(42.565 84.998)">
          <g id="Group_13" data-name="Group 13">
            <path id="Path_30" data-name="Path 30" d="M133.812,350.6a5.545,5.545,0,1,0,5.545,5.545A5.551,5.551,0,0,0,133.812,350.6Z" transform="translate(-128.267 -350.597)" fill="#0e186e"/>
          </g>
        </g>
        <g id="Group_16" data-name="Group 16" transform="translate(136.013 84.998)">
          <g id="Group_15" data-name="Group 15">
            <path id="Path_31" data-name="Path 31" d="M416,350.6a5.545,5.545,0,1,0,5.545,5.545A5.551,5.551,0,0,0,416,350.6Z" transform="translate(-410.455 -350.597)" fill="#0e186e"/>
          </g>
        </g>
        <g id="Group_18" data-name="Group 18" transform="translate(67.944 73.79)">
          <g id="Group_17" data-name="Group 17">
            <path id="Path_32" data-name="Path 32" d="M247.98,316.393H207.91a2.683,2.683,0,1,0,0,5.367H247.98a2.683,2.683,0,0,0,0-5.367Z" transform="translate(-205.227 -316.393)" fill="#0e186e"/>
          </g>
        </g>
        <g id="Group_20" data-name="Group 20" transform="translate(5.724 62.438)">
          <g id="Group_19" data-name="Group 19">
            <path id="Path_33" data-name="Path 33" d="M54.13,282.188H19.785a2.683,2.683,0,0,0,0,5.367H54.13a2.683,2.683,0,0,0,0-5.367Z" transform="translate(-17.102 -282.188)" fill="#0e186e"/>
          </g>
        </g>
        <g id="Group_22" data-name="Group 22" transform="translate(48.127 25.471)">
          <g id="Group_21" data-name="Group 21">
            <path id="Path_34" data-name="Path 34" d="M190.019,171.808a2.683,2.683,0,0,0-3.795,0L162.363,195.67,149.95,183.257a2.683,2.683,0,1,0-3.795,3.795l14.311,14.311a2.683,2.683,0,0,0,3.794,0L190.019,175.6A2.684,2.684,0,0,0,190.019,171.808Z" transform="translate(-145.37 -171.023)" fill="#0e186e"/>
          </g>
        </g>
      </g>
    </g>
  </g>
</svg>
