<svg xmlns="http://www.w3.org/2000/svg" xmlns:xlink="http://www.w3.org/1999/xlink" width="200" height="200" viewBox="0 0 200 200">
  <defs>
    <clipPath id="clip-icon_-_wizard_hat">
      <rect width="200" height="200"/>
    </clipPath>
  </defs>
  <g id="icon_-_wizard_hat" data-name="icon - wizard hat" clip-path="url(#clip-icon_-_wizard_hat)">
    <rect width="200" height="200" fill="#fff"/>
    <g id="Group_70" data-name="Group 70">
      <rect id="Rectangle_411" data-name="Rectangle 411" width="200" height="200" fill="none"/>
      <g id="wizard" transform="translate(26 26)">
        <g id="Group_53" data-name="Group 53" transform="translate(37.001 117.856)">
          <g id="Group_52" data-name="Group 52">
            <path id="Path_47" data-name="Path 47" d="M131.235,408.863l-.072,0a2.883,2.883,0,0,0,.066,5.765h.069l.072,0a2.883,2.883,0,0,0-.135-5.764Z" transform="translate(-128.348 -408.862)" fill="#0e186e"/>
          </g>
        </g>
        <g id="Group_55" data-name="Group 55" transform="translate(0 0)">
          <g id="Group_54" data-name="Group 54" transform="translate(0)">
            <path id="Path_48" data-name="Path 48" d="M137.981,125.584q-2.517-.675-5.113-1.218L81.514,5.124a8.394,8.394,0,0,0-15.422,0L14.383,125.187a18.38,18.38,0,0,0-3.238-.3c-5.889,0-10.445,3.364-11.077,8.181-.549,4.18,2.192,9.279,9.552,11.245a105.434,105.434,0,0,0,27.545,3.31c12.2,0,24.75-1.549,36.89-3.047,11.541-1.425,23.474-2.9,34.712-2.9a87.124,87.124,0,0,1,22.674,2.636,19.511,19.511,0,0,0,5.018.7c5.89,0,10.444-3.365,11.076-8.181C148.082,132.649,145.341,127.551,137.981,125.584ZM112.506,91.663l3.284,7.627L117,106.533l-.058-.029-7.726-4a2.883,2.883,0,0,0-2.649,0L98.8,106.526c0-.017.006-.034.009-.051l1.412-8.58a2.883,2.883,0,0,0-.818-2.519l-6.239-6.143c.066-.01.131-.022.2-.036l8.476-1.29a2.883,2.883,0,0,0,2.143-1.557l3.354-6.709ZM71.388,7.4a2.628,2.628,0,0,1,4.829,0L87.289,33.11,82.2,32.335,78.95,25.87a5.708,5.708,0,0,0-2.58-2.588,5.753,5.753,0,0,0-7.717,2.57L65.4,32.336l-5.082.773ZM59.262,39.1l8.478-1.29a2.883,2.883,0,0,0,2.143-1.557l3.909-7.81,3.92,7.81a2.883,2.883,0,0,0,2.143,1.557l8.671,1.315c-.049.042-.1.086-.142.131l-6.1,6.023a2.883,2.883,0,0,0-.818,2.519L82.9,56.436l-.051-.026-7.732-4a2.883,2.883,0,0,0-2.649,0L64.7,56.43c0-.017.006-.034.009-.051l1.412-8.58a2.883,2.883,0,0,0-.819-2.519l-6.239-6.143C59.133,39.127,59.2,39.115,59.262,39.1Zm-28.64,67.374,1.177-7.15,8.466-19.659,3.355,6.684a2.882,2.882,0,0,0,2.143,1.557l8.67,1.316q-.073.063-.141.13l-6.1,6.023a2.883,2.883,0,0,0-.819,2.519l1.436,8.638-.052-.027-7.731-4a2.883,2.883,0,0,0-2.649,0l-7.768,4.018C30.616,106.509,30.619,106.492,30.622,106.475Zm-8.789,15.989a78.159,78.159,0,0,0,9.31,1.064c.056,0,.112,0,.167,0a2.883,2.883,0,0,0,.162-5.761c-2.569-.147-5.006-.4-7.29-.76l2.64-6.13a5.755,5.755,0,0,0,6.424.774l6.46-3.342,6.46,3.342.078.039a5.8,5.8,0,0,0,3.488.527,5.758,5.758,0,0,0,4.758-6.613L53.309,98.43l4.979-4.919a5.765,5.765,0,0,0-2.993-9.985L48.1,82.431l-3.245-6.465A5.693,5.693,0,0,0,42.834,73.7L55.679,43.874l4.514,4.46-1.166,7.081a5.758,5.758,0,0,0,8.308,6.145l6.46-3.342,6.46,3.342.08.04a5.759,5.759,0,0,0,8.245-6.087L87.4,48.334l4.521-4.467,12.844,29.822a5.734,5.734,0,0,0-2.021,2.258l-3.254,6.484L92.3,83.526c-.087.013-.172.03-.255.05a5.759,5.759,0,0,0-2.926,9.75l5.167,5.1-1.166,7.081a5.758,5.758,0,0,0,8.308,6.145l6.46-3.342,6.46,3.342.086.043a5.8,5.8,0,0,0,3.48.523,5.711,5.711,0,0,0,2.861-1.355l5.306,12.321a125.129,125.129,0,0,0-17.335-1.135c-12.632,0-25.413,1.578-37.777,3.1C59.645,126.556,47.935,128,37.139,128A87.23,87.23,0,0,1,20.1,126.5Zm119.984,13.614c-.207,1.576-1.944,3.166-5.36,3.166a13.778,13.778,0,0,1-3.527-.5,92.778,92.778,0,0,0-24.164-2.832c-11.592,0-23.7,1.5-35.42,2.941-11.964,1.477-24.335,3-36.181,3a99.785,99.785,0,0,1-26.055-3.114c-3.986-1.065-5.546-3.241-5.325-4.924.207-1.576,1.944-3.166,5.36-3.166a13.77,13.77,0,0,1,3.527.5,86.342,86.342,0,0,0,22.469,2.613c11.151,0,23.04-1.468,34.541-2.887,12.187-1.5,24.79-3.06,37.067-3.06a106.171,106.171,0,0,1,27.743,3.335C140.477,132.219,142.038,134.4,141.817,136.079Z" transform="translate(0 -0.044)" fill="#0e186e"/>
          </g>
        </g>
      </g>
    </g>
  </g>
</svg>
