<svg xmlns="http://www.w3.org/2000/svg" xmlns:xlink="http://www.w3.org/1999/xlink" width="200" height="200" viewBox="0 0 200 200">
  <defs>
    <clipPath id="clip-icon_-_laptop_with_charts_-_color">
      <rect width="200" height="200"/>
    </clipPath>
  </defs>
  <g id="icon_-_laptop_with_charts_-_color" data-name="icon - laptop with charts - color" clip-path="url(#clip-icon_-_laptop_with_charts_-_color)">
    <rect width="200" height="200" fill="#fff"/>
    <g id="Group_81" data-name="Group 81">
      <g id="Group_68" data-name="Group 68">
        <rect id="Rectangle_411" data-name="Rectangle 411" width="200" height="200" fill="none"/>
        <g id="Group_65" data-name="Group 65">
          <g id="Group_64" data-name="Group 64">
            <path id="Subtraction_16" data-name="Subtraction 16" d="M19-1148a18.876,18.876,0,0,1-13.435-5.565A18.875,18.875,0,0,1,0-1167a18.985,18.985,0,0,1,18-18.974V-1166H37.974A18.985,18.985,0,0,1,19-1148Z" transform="translate(54 1247)" fill="#77ffd6"/>
            <rect id="Rectangle_413" data-name="Rectangle 413" width="8" height="30" transform="translate(102 93)" fill="#77ffd6"/>
            <rect id="Rectangle_414" data-name="Rectangle 414" width="8" height="25" transform="translate(120 98)" fill="#77ffd6"/>
            <rect id="Rectangle_415" data-name="Rectangle 415" width="8" height="17" transform="translate(138 106)" fill="#77ffd6"/>
          </g>
          <g id="business-and-finance" transform="translate(20 41)">
            <path id="Path_1" data-name="Path 1" d="M62.771,106.455v73.016a4.247,4.247,0,0,0,4.2,4.286h111.75a4.247,4.247,0,0,0,4.2-4.286V106.455a4.247,4.247,0,0,0-4.2-4.286H66.968a4.247,4.247,0,0,0-4.2,4.286Zm4.663.476H178.252V179H67.434Z" transform="translate(-42.843 -90.74)" fill="#0e186e"/>
            <path id="Path_2" data-name="Path 2" d="M155.156,164.291h-3.522V76.325a10.168,10.168,0,0,0-10.156-10.156H40.12a2.344,2.344,0,0,0,0,4.688H141.478a5.475,5.475,0,0,1,5.469,5.469v87.966H13.053V76.325a5.475,5.475,0,0,1,5.469-5.469H29.183a2.344,2.344,0,0,0,0-4.688H18.522A10.168,10.168,0,0,0,8.366,76.325v87.966H4.844A4.849,4.849,0,0,0,0,169.135v4.585a11.106,11.106,0,0,0,11.094,11.094h113.2a2.344,2.344,0,1,0,0-4.687H11.094a6.413,6.413,0,0,1-6.406-6.406v-4.585a.157.157,0,0,1,.156-.156H155.156a.157.157,0,0,1,.156.156v4.585a6.413,6.413,0,0,1-6.406,6.406H135.232a2.344,2.344,0,1,0,0,4.688h13.674A11.106,11.106,0,0,0,160,173.72v-4.585A4.849,4.849,0,0,0,155.156,164.291Z" transform="translate(0 -66.169)" fill="#0e186e"/>
            <path id="Path_3" data-name="Path 3" d="M124.7,167.751a20.816,20.816,0,1,0-20.816-20.815A20.839,20.839,0,0,0,124.7,167.751Zm2.381-36.692.035,0,.153.026a16.083,16.083,0,0,1,13.277,13.279c.008.05.018.1.025.15,0,.012,0,.023,0,.035H127.079Zm-4.762,0v15.876a2.381,2.381,0,0,0,2.381,2.381h15.876a16.054,16.054,0,1,1-18.257-18.257Z" transform="translate(-71.597 -107.543)" fill="#0e186e"/>
            <path id="Path_4" data-name="Path 4" d="M260.685,151.908h42.8a2.381,2.381,0,1,0,0-4.762h-42.8a2.381,2.381,0,1,0,0,4.762Z" transform="translate(-178.116 -121.857)" fill="#0e186e"/>
            <path id="Path_5" data-name="Path 5" d="M260.685,177.914h42.8a2.381,2.381,0,1,0,0-4.762h-42.8a2.381,2.381,0,1,0,0,4.762Z" transform="translate(-178.116 -139.742)" fill="#0e186e"/>
            <path id="Path_6" data-name="Path 6" d="M260.685,203.921h21.4a2.381,2.381,0,1,0,0-4.762h-21.4a2.381,2.381,0,1,0,0,4.762Z" transform="translate(-177.831 -157.627)" fill="#0e186e"/>
            <path id="Path_7" data-name="Path 7" d="M265.526,227.112h-5.4a3.973,3.973,0,0,0-3.968,3.968v26.064a3.973,3.973,0,0,0,3.968,3.968h5.4a3.973,3.973,0,0,0,3.968-3.968V231.08A3.973,3.973,0,0,0,265.526,227.112Zm-.794,29.239h-3.81V231.874h3.81Z" transform="translate(-176.224 -177.132)" fill="#0e186e"/>
            <path id="Path_8" data-name="Path 8" d="M321.577,241.357h-5.4a3.973,3.973,0,0,0-3.968,3.968v21.542a3.973,3.973,0,0,0,3.968,3.968h5.4a3.973,3.973,0,0,0,3.968-3.968V245.325A3.973,3.973,0,0,0,321.577,241.357Zm-.794,24.716h-3.81V246.119h3.81Z" transform="translate(-214.784 -186.893)" fill="#0e186e"/>
            <path id="Path_9" data-name="Path 9" d="M377.627,266.274h-5.4a3.973,3.973,0,0,0-3.968,3.968v13.631a3.973,3.973,0,0,0,3.968,3.968h5.4a3.973,3.973,0,0,0,3.968-3.968V270.242A3.973,3.973,0,0,0,377.627,266.274Zm-.794,16.806h-3.81V271.036h3.81Z" transform="translate(-253.344 -203.958)" fill="#0e186e"/>
            <path id="Path_10" data-name="Path 10" d="M146.1,281.2H106.263a2.381,2.381,0,1,0,0,4.762H146.1a2.381,2.381,0,1,0,0-4.762Z" transform="translate(-71.614 -214.05)" fill="#0e186e"/>
            <path id="Path_11" data-name="Path 11" d="M126.18,307.211H106.263a2.381,2.381,0,1,0,0,4.762H126.18a2.381,2.381,0,1,0,0-4.762Z" transform="translate(-71.511 -231.935)" fill="#0e186e"/>
          </g>
        </g>
      </g>
    </g>
  </g>
</svg>
